<svg display="block" role="presentation" viewBox="0 0 40 40" xmlns="http://www.w3.org/2000/svg"><path d="M 29.3 2.25 C 26.5 0.8 23.35 0 20 0 C 16.65 0 13.5 0.8 10.7 2.25 L 10.7 2.25 C 4.35 5.6 0 12.3 0 20 C 0 27.7 4.35 34.4 10.75 37.75 C 13.5 39.15 16.65 40 20 40 C 23.35 40 26.45 39.15 29.25 37.7 C 35.65 34.4 40 27.7 40 20 C 40 12.3 35.65 5.6 29.3 2.25 Z M 2 20 C 2 13.45 5.5 7.75 10.75 4.55 L 10.75 4.55 C 13.3 3 16.25 2.1 19.5 2 L 17.25 18.35 L 10.75 23.4 L 10.75 23.4 L 4.15 28.55 C 2.8 26 2 23.1 2 20 Z M 29.3 35.4 C 26.55 37.05 23.4 38 20 38 C 16.6 38 13.4 37.05 10.7 35.4 C 8.25 33.95 6.25 31.95 4.75 29.55 L 10.7 27.1 L 10.7 27.1 L 20 23.3 L 29.3 27.05 L 29.3 27.05 L 35.3 29.5 C 33.8 31.95 31.7 33.95 29.3 35.4 Z M 29.3 23.4 L 29.3 23.4 L 22.85 18.4 L 20.55 2 C 23.7 2.1 26.7 3 29.25 4.55 L 29.25 4.55 C 34.5 7.7 38 13.45 38 20 C 38 23.1 37.25 26 35.85 28.55 Z" fill="rgb(0, 0, 0)" height="40px" id="AP5xQtNl5" width="40px"/></svg>