<svg display="block" role="presentation" viewBox="0 0 40 40" xmlns="http://www.w3.org/2000/svg"><g d="M 11.607 34.747 L 11.607 33.04 L 18.514 33.04 L 18.514 34.747 Z M 12.434 38.987 L 12.434 35.44 L 17.634 35.44 L 17.634 38.987 Z M 4.807 25.973 L 4.807 25.147 L 25.261 25.147 L 25.261 25.973 Z M 3.714 27.6 L 3.714 26.773 L 26.354 26.773 L 26.354 27.6 Z M 3.714 24.427 L 3.714 23.6 L 26.354 23.6 L 26.354 24.427 Z M 18.647 29.467 C 17.501 30.507 17.501 32.373 17.501 32.373 L 15.021 32.373 L 12.594 32.373 C 12.594 32.373 12.594 30.507 11.447 29.467 C 10.647 28.747 9.661 28.587 9.661 28.587 C 9.021 28.48 9.021 28.373 9.021 28.32 L 14.541 28.32 L 16.087 28.32 L 20.967 28.32 C 20.967 28.32 20.967 28.427 20.327 28.587 C 20.381 28.587 19.394 28.747 18.647 29.467 Z M 4.914 28.4 C 5.181 28.4 7.047 28.4 7.341 28.4 C 7.341 29.867 6.381 30.533 4.914 30.187 C 4.914 29.2 4.914 28.827 4.914 28.4 Z M 13.634 4.88 C 14.621 2.96 14.781 0.027 15.021 0 C 15.287 0.053 15.421 2.987 16.407 4.88 C 17.367 6.693 19.314 8.267 19.234 8.427 C 19.074 8.64 18.007 8.08 17.447 7.787 C 16.567 7.387 15.821 7.067 15.821 7.067 C 15.821 7.067 15.474 11.68 16.621 15.973 C 17.581 19.467 19.714 22.693 19.954 22.933 L 17.154 22.933 C 17.047 22.773 16.994 22.613 16.887 22.533 C 16.087 21.173 15.581 20 15.074 18 C 14.567 20.027 14.007 21.173 13.207 22.533 C 13.101 22.693 13.047 22.853 12.941 22.933 L 10.141 22.933 C 10.354 22.667 12.514 19.44 13.474 15.973 C 14.621 11.707 14.274 7.067 14.274 7.067 C 14.274 7.067 13.554 7.387 12.647 7.787 C 12.087 8.053 10.967 8.613 10.834 8.427 C 10.727 8.267 12.727 6.72 13.634 4.88 Z M 4.807 22.96 C 4.807 22.613 4.594 17.92 3.501 14.213 C 2.301 10.16 -0.153 7.787 0.007 7.493 C 0.167 7.28 2.141 7.707 3.661 8.693 C 5.287 9.76 6.834 11.6 6.727 11.76 C 6.674 11.867 6.087 11.413 5.101 11.04 C 4.061 10.693 3.581 10.72 3.581 10.72 C 3.581 10.72 5.287 13.573 6.167 16.64 C 6.887 19.227 7.234 22.56 7.234 22.88 L 4.727 22.88 L 4.727 22.933 L 4.807 22.96 Z M 25.287 22.96 C 25.287 22.613 25.501 17.92 26.594 14.213 C 27.794 10.16 30.247 7.787 30.087 7.493 C 29.927 7.28 27.954 7.707 26.434 8.693 C 24.807 9.76 23.261 11.6 23.367 11.76 C 23.421 11.867 24.007 11.413 24.994 11.04 C 26.034 10.693 26.514 10.72 26.514 10.72 C 26.514 10.72 24.807 13.573 23.927 16.64 C 23.207 19.227 22.861 22.56 22.861 22.88 L 25.367 22.88 L 25.367 22.933 L 25.287 22.96 Z M 25.154 28.4 C 24.887 28.4 23.021 28.4 22.727 28.4 C 22.727 29.867 23.687 30.533 25.154 30.187 C 25.154 29.2 25.154 28.827 25.154 28.4 Z" fill="transparent" height="38.98666422049206px" id="TX9d7fDSx" transform="translate(4.979 0.32)" width="30.094924451677034px"><g d="M 11.607 34.747 L 11.607 33.04 L 18.514 33.04 L 18.514 34.747 Z M 12.434 38.987 L 12.434 35.44 L 17.634 35.44 L 17.634 38.987 Z M 4.807 25.973 L 4.807 25.147 L 25.261 25.147 L 25.261 25.973 Z M 3.714 27.6 L 3.714 26.773 L 26.354 26.773 L 26.354 27.6 Z M 3.714 24.427 L 3.714 23.6 L 26.354 23.6 L 26.354 24.427 Z M 18.647 29.467 C 17.501 30.507 17.501 32.373 17.501 32.373 L 15.021 32.373 L 12.594 32.373 C 12.594 32.373 12.594 30.507 11.447 29.467 C 10.647 28.747 9.661 28.587 9.661 28.587 C 9.021 28.48 9.021 28.373 9.021 28.32 L 14.541 28.32 L 16.087 28.32 L 20.967 28.32 C 20.967 28.32 20.967 28.427 20.327 28.587 C 20.381 28.587 19.394 28.747 18.647 29.467 Z M 4.914 28.4 C 5.181 28.4 7.047 28.4 7.341 28.4 C 7.341 29.867 6.381 30.533 4.914 30.187 C 4.914 29.2 4.914 28.827 4.914 28.4 Z M 13.634 4.88 C 14.621 2.96 14.781 0.027 15.021 0 C 15.287 0.053 15.421 2.987 16.407 4.88 C 17.367 6.693 19.314 8.267 19.234 8.427 C 19.074 8.64 18.007 8.08 17.447 7.787 C 16.567 7.387 15.821 7.067 15.821 7.067 C 15.821 7.067 15.474 11.68 16.621 15.973 C 17.581 19.467 19.714 22.693 19.954 22.933 L 17.154 22.933 C 17.047 22.773 16.994 22.613 16.887 22.533 C 16.087 21.173 15.581 20 15.074 18 C 14.567 20.027 14.007 21.173 13.207 22.533 C 13.101 22.693 13.047 22.853 12.941 22.933 L 10.141 22.933 C 10.354 22.667 12.514 19.44 13.474 15.973 C 14.621 11.707 14.274 7.067 14.274 7.067 C 14.274 7.067 13.554 7.387 12.647 7.787 C 12.087 8.053 10.967 8.613 10.834 8.427 C 10.727 8.267 12.727 6.72 13.634 4.88 Z M 4.807 22.96 C 4.807 22.613 4.594 17.92 3.501 14.213 C 2.301 10.16 -0.153 7.787 0.007 7.493 C 0.167 7.28 2.141 7.707 3.661 8.693 C 5.287 9.76 6.834 11.6 6.727 11.76 C 6.674 11.867 6.087 11.413 5.101 11.04 C 4.061 10.693 3.581 10.72 3.581 10.72 C 3.581 10.72 5.287 13.573 6.167 16.64 C 6.887 19.227 7.234 22.56 7.234 22.88 L 4.727 22.88 L 4.727 22.933 L 4.807 22.96 Z M 25.287 22.96 C 25.287 22.613 25.501 17.92 26.594 14.213 C 27.794 10.16 30.247 7.787 30.087 7.493 C 29.927 7.28 27.954 7.707 26.434 8.693 C 24.807 9.76 23.261 11.6 23.367 11.76 C 23.421 11.867 24.007 11.413 24.994 11.04 C 26.034 10.693 26.514 10.72 26.514 10.72 C 26.514 10.72 24.807 13.573 23.927 16.64 C 23.207 19.227 22.861 22.56 22.861 22.88 L 25.367 22.88 L 25.367 22.933 L 25.287 22.96 Z M 25.154 28.4 C 24.887 28.4 23.021 28.4 22.727 28.4 C 22.727 29.867 23.687 30.533 25.154 30.187 C 25.154 29.2 25.154 28.827 25.154 28.4 Z" fill="transparent" height="38.98666422049206px" id="iVxUysPRF" width="30.094924451677034px"><path d="M 0 1.707 L 0 0 L 6.907 0 L 6.907 1.707 Z" fill="rgb(0, 0, 0)" height="1.7066666666666634px" id="D_Hn4isHC" transform="translate(11.607 33.04)" width="6.906666666666666px"/><path d="M 0 3.547 L 0 0 L 5.2 0 L 5.2 3.547 Z" fill="rgb(0, 0, 0)" height="3.546666666666681px" id="HvOEiV9ww" transform="translate(12.434 35.44)" width="5.200000000000003px"/><path d="M 0 0.827 L 0 0 L 20.453 0 L 20.453 0.827 Z" fill="rgb(0, 0, 0)" height="1px" id="wtCHNVuRT" transform="translate(4.807 25.147)" width="20.45333333333333px"/><path d="M 0 0.827 L 0 0 L 22.64 0 L 22.64 0.827 Z" fill="rgb(0, 0, 0)" height="1px" id="tl4fWZ8_u" transform="translate(3.714 26.773)" width="22.639999999999997px"/><path d="M 0 0.827 L 0 0 L 22.64 0 L 22.64 0.827 Z" fill="rgb(0, 0, 0)" height="1px" id="X3rKTva7r" transform="translate(3.714 23.6)" width="22.639999999999997px"/><path d="M 9.627 1.147 C 8.48 2.187 8.48 4.053 8.48 4.053 L 6 4.053 L 3.573 4.053 C 3.573 4.053 3.573 2.187 2.427 1.147 C 1.627 0.427 0.64 0.267 0.64 0.267 C 0 0.16 0 0.053 0 0 L 5.52 0 L 7.067 0 L 11.947 0 C 11.947 0 11.947 0.107 11.307 0.267 C 11.36 0.267 10.373 0.427 9.627 1.147 Z" fill="rgb(0, 0, 0)" height="4.0533333333333275px" id="ujh5JjtLn" transform="translate(9.021 28.32)" width="11.946666666666669px"/><g d="M 0 0 C 0.267 0 2.133 0 2.427 0 C 2.427 1.467 1.467 2.133 0 1.787 C 0 0.8 0 0.427 0 0 Z" fill="transparent" height="1.8767116529149916px" id="YRXxCauKM" transform="translate(4.914 28.4)" width="2.426666666666673px"><path d="M 0 0 C 0.267 0 2.133 0 2.427 0 C 2.427 1.467 1.467 2.133 0 1.787 C 0 0.8 0 0.427 0 0 Z" fill="rgb(0, 0, 0)" height="1.8767116529149774px" id="l5N6kXl15" transform="translate(0 0)" width="2.426666666666673px"/></g><path d="M 3.493 4.88 C 4.48 2.96 4.64 0.027 4.88 0 C 5.147 0.053 5.28 2.987 6.267 4.88 C 7.227 6.693 9.173 8.267 9.093 8.427 C 8.933 8.64 7.867 8.08 7.307 7.787 C 6.427 7.387 5.68 7.067 5.68 7.067 C 5.68 7.067 5.333 11.68 6.48 15.973 C 7.44 19.467 9.573 22.693 9.813 22.933 L 7.013 22.933 C 6.907 22.773 6.853 22.613 6.747 22.533 C 5.947 21.173 5.44 20 4.933 18 C 4.427 20.027 3.867 21.173 3.067 22.533 C 2.96 22.693 2.907 22.853 2.8 22.933 L 0 22.933 C 0.213 22.667 2.373 19.44 3.333 15.973 C 4.48 11.707 4.133 7.067 4.133 7.067 C 4.133 7.067 3.413 7.387 2.507 7.787 C 1.947 8.053 0.827 8.613 0.693 8.427 C 0.587 8.267 2.587 6.72 3.493 4.88 Z" fill="rgb(0, 0, 0)" height="22.93333333333333px" id="RQy0frDbe" transform="translate(10.141 0)" width="9.81333333333334px"/><path d="M 4.807 15.52 C 4.807 15.174 4.594 10.48 3.501 6.774 C 2.301 2.72 -0.153 0.347 0.007 0.054 C 0.167 -0.16 2.141 0.267 3.661 1.254 C 5.287 2.32 6.834 4.16 6.727 4.32 C 6.674 4.427 6.087 3.974 5.101 3.6 C 4.061 3.254 3.581 3.28 3.581 3.28 C 3.581 3.28 5.287 6.134 6.167 9.2 C 6.887 11.787 7.234 15.12 7.234 15.44 L 4.727 15.44 L 4.727 15.494 L 4.807 15.52 Z" fill="rgb(0, 0, 0)" height="15.520376280981843px" id="JDsKPng_2" transform="translate(0 7.44)" width="7.234128476945573px"/><path d="M 2.427 15.52 C 2.427 15.174 2.64 10.48 3.733 6.774 C 4.933 2.72 7.387 0.347 7.227 0.054 C 7.067 -0.16 5.093 0.267 3.573 1.254 C 1.947 2.32 0.4 4.16 0.507 4.32 C 0.56 4.427 1.147 3.974 2.133 3.6 C 3.173 3.254 3.653 3.28 3.653 3.28 C 3.653 3.28 1.947 6.134 1.067 9.2 C 0.347 11.787 0 15.12 0 15.44 L 2.507 15.44 L 2.507 15.494 L 2.427 15.52 Z" fill="rgb(0, 0, 0)" height="15.520376280981843px" id="typh3Pxw6" transform="translate(22.861 7.44)" width="7.234128476945585px"/><g d="M 2.427 0 C 2.16 0 0.293 0 0 0 C 0 1.467 0.96 2.133 2.427 1.787 C 2.427 0.8 2.427 0.427 2.427 0 Z" fill="transparent" height="1.8767116529149916px" id="xOzNj69v2" transform="translate(22.727 28.4)" width="2.4266666666666765px"><path d="M 2.427 0 C 2.16 0 0.293 0 0 0 C 0 1.467 0.96 2.133 2.427 1.787 C 2.427 0.8 2.427 0.427 2.427 0 Z" fill="rgb(0, 0, 0)" height="1.8767116529149774px" id="Zt2ASNOOt" transform="translate(0 0)" width="2.4266666666666765px"/></g></g></g></svg>