<svg display="block" role="presentation" viewBox="0 0 40 40" xmlns="http://www.w3.org/2000/svg"><g d="M 30.614 25.038 C 33.019 25.038 34.458 23.318 34.458 21.195 C 34.458 19.072 33.019 17.352 30.614 17.352 L 22.818 17.352 L 22.818 25.038 Z M 30.614 11.642 C 32.731 11.642 34.019 10.118 34.019 8.238 C 34.019 6.358 32.731 4.834 30.614 4.834 L 22.818 4.834 L 22.818 11.642 Z M 11.837 17.35 L 11.837 19.254 L 7.006 19.254 L 7.006 9.738 L 11.837 9.738 L 11.837 11.642 L 16.45 11.642 L 16.45 4.832 L 4.83 4.832 L 4.83 7.248 L 0 7.248 L 0 4.832 L 0 0 L 30.614 0 C 35.405 0 39.29 3.883 39.29 8.675 C 39.293 10.779 38.528 12.811 37.139 14.392 C 38.741 16.034 39.728 18.28 39.728 20.755 C 39.728 25.789 35.648 29.869 30.614 29.869 L 0 29.869 L 0 25.037 L 0 22.621 L 4.832 22.621 L 4.832 25.037 L 16.451 25.037 L 16.451 17.35 L 11.837 17.35 Z" fill="transparent" height="29.86880000000002px" id="mIgQzYm8r" transform="translate(0.136 4.963)" width="39.72800000000001px"><path d="M 30.614 25.038 C 33.019 25.038 34.458 23.318 34.458 21.195 C 34.458 19.072 33.019 17.352 30.614 17.352 L 22.818 17.352 L 22.818 25.038 Z M 30.614 11.642 C 32.731 11.642 34.019 10.118 34.019 8.238 C 34.019 6.358 32.731 4.834 30.614 4.834 L 22.818 4.834 L 22.818 11.642 Z M 11.837 17.35 L 11.837 19.254 L 7.006 19.254 L 7.006 9.738 L 11.837 9.738 L 11.837 11.642 L 16.45 11.642 L 16.45 4.832 L 4.83 4.832 L 4.83 7.248 L 0 7.248 L 0 4.832 L 0 0 L 30.614 0 C 35.405 0 39.29 3.883 39.29 8.675 C 39.293 10.779 38.528 12.811 37.139 14.392 C 38.741 16.034 39.728 18.28 39.728 20.755 C 39.728 25.789 35.648 29.869 30.614 29.869 L 0 29.869 L 0 25.037 L 0 22.621 L 4.832 22.621 L 4.832 25.037 L 16.451 25.037 L 16.451 17.35 L 11.837 17.35 Z" fill="rgb(0, 0, 0)" height="29.86880000000002px" id="G5Uo62WIQ" width="39.72800000000001px"/></g></svg>