<svg display="block" role="presentation" viewBox="0 0 40 40" xmlns="http://www.w3.org/2000/svg"><g d="M 17.666 29.562 C 17.898 29.385 18.416 29.207 18.703 29.084 C 18.689 28.647 18.512 28.238 18.621 27.869 C 18.812 27.214 19.263 26.927 19.7 26.873 C 19.727 26.886 19.754 26.941 19.727 26.954 C 19.481 27.187 19.386 27.514 19.345 27.869 C 19.331 28.006 19.304 28.429 19.427 28.729 C 19.686 28.593 20.314 28.374 20.519 28.333 C 20.546 27.896 20.614 27.473 20.737 27.159 C 20.983 26.545 21.529 26.053 22.075 26.34 C 22.102 26.354 22.13 26.408 22.102 26.422 C 21.761 26.545 21.543 26.9 21.352 27.309 C 21.297 27.432 21.106 28.088 21.324 28.224 C 21.324 28.224 21.338 28.224 21.338 28.238 C 21.734 28.156 21.802 28.197 22.225 28.156 C 22.294 27.733 22.485 27.364 22.648 27.091 C 22.894 26.613 23.536 26.231 24.109 26.572 C 24.137 26.586 24.164 26.654 24.123 26.654 C 23.727 26.736 23.468 26.995 23.331 27.228 C 23.263 27.337 22.894 27.842 23.085 28.047 C 23.099 28.047 23.126 28.047 23.154 28.047 C 23.495 28.033 23.741 28.101 24.096 28.169 C 24.205 27.91 24.3 27.883 24.41 27.746 C 24.805 27.268 25.474 27.105 25.706 27.555 C 25.734 27.582 25.734 27.637 25.706 27.637 C 25.502 27.664 25.16 27.774 24.997 27.978 C 24.956 28.019 24.846 28.142 24.737 28.374 C 25.201 28.729 25.461 29.016 25.584 29.494 C 25.611 29.576 25.652 30.067 25.488 29.821 C 24.737 28.879 23.727 28.675 22.212 28.825 C 20.587 28.975 19.836 29.221 18.212 30.094 C 19.113 30.9 17.761 31.692 17.543 30.504 C 16.751 31.705 15.918 30.19 16.983 29.972 C 15.891 28.907 17.379 28.415 17.666 29.562 Z M 20.437 24.374 C 21.024 24.183 21.666 23.978 21.993 23.91 C 22.048 22.954 22.949 21.767 24.014 22.176 C 24.055 22.19 24.082 22.245 24.041 22.258 C 23.768 22.34 22.894 23.173 23.195 23.705 C 23.413 23.719 24.014 23.705 24.191 23.719 C 24.423 22.668 25.338 21.931 26.375 22.408 C 26.416 22.422 26.444 22.49 26.403 22.49 C 25.993 22.559 25.065 23.214 25.174 23.774 C 25.365 23.787 25.884 23.965 26.212 24.142 C 26.334 23.883 26.471 23.787 26.594 23.651 C 27.044 23.173 27.973 23.132 28.246 23.596 C 28.273 23.623 28.273 23.678 28.246 23.678 C 27.85 23.664 27.495 23.719 27.154 24.019 C 27.099 24.06 26.99 24.224 26.867 24.456 C 27.195 24.634 27.563 24.975 27.631 25.303 C 27.686 25.466 27.713 25.603 27.686 25.767 C 27.672 25.808 27.59 25.767 27.563 25.739 C 26.703 24.797 24.805 24.21 22.962 24.443 C 21.734 24.593 20.532 24.934 19.536 25.371 C 19.877 25.071 20.177 24.743 20.437 24.374 Z M 17.734 26.504 C 17.652 26.586 17.57 26.654 17.502 26.736 C 17.939 27.337 17.242 27.815 17.038 27.214 C 16.519 27.774 16.109 27.118 16.451 26.845 C 16.887 26.777 17.324 26.668 17.734 26.504 Z M 17.433 34.559 C 17.556 34.422 17.857 34.163 18.007 34.04 C 17.543 33.316 17.802 32.388 18.253 32.32 C 18.28 32.333 18.294 32.374 18.28 32.402 C 18.157 32.579 18.102 33.535 18.457 33.739 C 18.635 33.617 18.976 33.371 19.126 33.33 C 18.867 32.456 19.317 31.282 20.191 31.473 C 20.218 31.487 20.232 31.542 20.218 31.555 C 19.509 31.924 19.495 33.016 19.686 33.139 C 19.973 33.057 20.287 32.934 20.601 32.907 C 20.737 31.746 21.761 31.228 22.28 31.528 C 22.307 31.542 22.321 31.61 22.307 31.61 C 22.02 31.446 20.942 32.552 21.297 32.879 C 21.543 32.866 21.829 32.975 22.116 33.043 C 22.239 32.402 23.14 31.869 23.522 32.279 C 23.549 32.306 23.549 32.361 23.536 32.361 C 23.195 32.429 22.744 32.743 22.676 33.344 C 23.399 33.685 23.317 34.395 23.195 34.204 C 22.512 33.303 21.065 33.453 19.959 33.685 C 19.317 33.821 18.416 34.436 18.034 34.873 C 19.195 35.419 18.143 36.443 17.652 35.282 C 16.846 36.702 16.055 35.405 16.997 35.023 C 15.85 34.135 17.038 33.535 17.433 34.559 Z M 5.747 33.48 C 4.601 32.156 3.631 30.722 2.853 29.275 L 15.413 29.275 L 15.413 33.48 L 5.747 33.48 Z M 21.461 12.934 L 30.689 12.934 L 30.689 16.552 L 21.461 16.552 Z M 30.689 7.446 L 27.959 6.477 L 24.778 5.835 L 21.201 5.057 L 17.884 4.797 L 15.358 4.797 L 15.358 8.606 L 30.676 8.606 Z M 2.266 3.173 C 2.635 3.05 3.003 2.941 3.386 2.832 C 3.522 2.791 3.659 2.75 3.809 2.722 C 3.959 2.695 4.109 2.681 4.259 2.722 L 4.314 2.75 C 4.369 2.777 4.396 2.818 4.423 2.873 C 4.464 2.968 4.478 3.064 4.491 3.173 C 4.519 3.391 4.519 3.61 4.491 3.828 C 4.478 4.006 4.451 4.183 4.382 4.333 C 4.355 4.402 4.314 4.456 4.259 4.511 C 4.218 4.552 4.177 4.593 4.137 4.62 C 4.041 4.688 3.959 4.743 3.85 4.784 C 3.604 4.893 3.358 4.975 3.099 5.057 C 2.662 5.207 2.225 5.357 1.788 5.507 L 1.788 6.313 C 1.57 6.395 1.352 6.49 1.133 6.572 L 1.133 3.542 C 1.515 3.419 1.884 3.296 2.266 3.173 Z M 1.788 4.961 C 2.225 4.811 2.662 4.661 3.113 4.511 C 3.249 4.47 3.386 4.429 3.509 4.374 L 3.604 4.32 L 3.645 4.292 L 3.686 4.251 L 3.727 4.21 L 3.754 4.169 L 3.795 4.088 C 3.809 4.033 3.823 3.992 3.823 3.937 C 3.836 3.801 3.836 3.678 3.795 3.542 L 3.768 3.473 L 3.741 3.419 L 3.7 3.378 L 3.645 3.35 L 3.59 3.337 L 3.536 3.337 L 3.481 3.337 C 3.345 3.35 3.222 3.391 3.085 3.432 C 2.648 3.569 2.212 3.719 1.775 3.855 L 1.788 4.961 Z M 7.345 1.794 C 7.645 1.739 7.932 1.685 8.232 1.658 C 8.328 1.644 8.423 1.644 8.519 1.644 C 8.56 1.644 8.614 1.658 8.655 1.671 C 8.696 1.685 8.724 1.699 8.765 1.726 C 8.792 1.753 8.819 1.767 8.846 1.794 C 8.874 1.821 8.887 1.862 8.901 1.89 C 8.928 1.944 8.942 1.985 8.942 2.04 C 8.969 2.217 8.983 2.408 8.997 2.6 C 9.01 2.818 9.01 3.023 8.997 3.228 C 8.997 3.309 8.997 3.405 8.983 3.487 C 8.969 3.651 8.969 3.815 8.928 3.978 C 8.915 4.019 8.901 4.06 8.887 4.088 C 8.86 4.142 8.833 4.197 8.792 4.251 L 8.71 4.374 L 8.587 4.456 C 8.532 4.483 8.491 4.497 8.437 4.524 C 8.218 4.593 8 4.634 7.782 4.688 C 7.331 4.784 6.881 4.866 6.43 4.961 C 6.212 5.002 5.993 5.043 5.775 5.071 C 5.72 5.084 5.652 5.084 5.597 5.084 L 5.461 5.071 C 5.42 5.057 5.392 5.043 5.365 5.03 L 5.297 4.975 L 5.242 4.893 L 5.16 4.443 L 5.16 3.228 C 5.174 3.091 5.188 2.941 5.215 2.804 L 5.256 2.681 C 5.283 2.613 5.311 2.559 5.352 2.504 L 5.447 2.395 L 5.529 2.326 C 5.611 2.272 5.706 2.217 5.816 2.176 L 6.307 2.026 C 6.621 1.931 6.976 1.862 7.345 1.794 Z M 7.003 2.408 L 6.294 2.572 C 6.239 2.586 6.184 2.613 6.13 2.627 L 6.075 2.668 L 6.02 2.709 L 5.98 2.75 L 5.939 2.791 L 5.898 2.832 L 5.87 2.886 C 5.843 2.927 5.829 2.982 5.816 3.023 C 5.775 3.2 5.775 3.378 5.775 3.555 C 5.775 3.746 5.775 3.937 5.802 4.115 L 5.829 4.183 L 5.87 4.251 L 5.925 4.306 L 5.98 4.347 L 6.048 4.374 L 6.116 4.388 L 6.198 4.388 C 6.253 4.388 6.294 4.388 6.334 4.374 C 6.608 4.333 6.881 4.279 7.154 4.224 C 7.372 4.183 7.604 4.129 7.823 4.074 C 7.863 4.06 7.918 4.047 7.959 4.033 L 8.027 3.992 L 8.096 3.951 L 8.15 3.896 L 8.205 3.842 L 8.246 3.774 L 8.273 3.705 L 8.3 3.637 C 8.341 3.432 8.328 3.241 8.328 3.036 C 8.328 2.927 8.328 2.818 8.314 2.722 L 8.3 2.64 C 8.287 2.586 8.273 2.531 8.246 2.477 L 8.218 2.422 L 8.191 2.381 L 8.15 2.34 L 8.123 2.326 L 8.068 2.299 L 8.014 2.286 L 7.904 2.272 C 7.782 2.272 7.672 2.286 7.563 2.299 C 7.372 2.34 7.181 2.381 7.003 2.408 Z M 11.509 1.289 C 11.85 1.262 12.191 1.234 12.532 1.234 C 12.601 1.234 12.683 1.234 12.751 1.234 C 12.833 1.234 12.901 1.248 12.969 1.289 C 12.997 1.303 13.024 1.316 13.038 1.33 C 13.092 1.371 13.133 1.412 13.16 1.48 C 13.188 1.521 13.201 1.576 13.215 1.617 C 13.242 1.726 13.242 1.849 13.242 1.958 C 13.242 2.108 13.242 2.245 13.229 2.395 C 13.229 2.449 13.215 2.504 13.201 2.559 L 13.174 2.613 C 13.147 2.654 13.133 2.681 13.106 2.722 L 13.038 2.777 C 13.01 2.791 12.983 2.818 12.942 2.832 C 12.901 2.845 12.846 2.859 12.805 2.873 L 12.437 2.954 L 12.805 3.159 C 12.86 3.2 12.901 3.228 12.942 3.268 L 12.983 3.323 C 13.038 3.405 13.079 3.487 13.119 3.582 C 13.174 3.746 13.201 3.91 13.201 4.074 C 12.983 4.088 12.765 4.088 12.546 4.101 C 12.532 3.978 12.519 3.869 12.478 3.746 L 12.423 3.61 L 12.396 3.542 L 12.355 3.487 L 12.314 3.432 L 12.259 3.391 L 12.191 3.35 C 12.15 3.337 12.109 3.323 12.068 3.323 C 11.986 3.309 11.891 3.323 11.809 3.323 C 11.386 3.35 10.976 3.391 10.553 3.432 L 10.389 3.446 L 10.389 4.251 C 10.171 4.279 9.952 4.306 9.734 4.32 L 9.734 1.453 C 10.334 1.385 10.922 1.33 11.509 1.289 Z M 10.403 2.954 C 10.84 2.914 11.276 2.873 11.713 2.845 C 11.863 2.832 12.014 2.818 12.164 2.804 C 12.205 2.804 12.246 2.791 12.287 2.777 L 12.341 2.763 L 12.396 2.736 L 12.437 2.709 L 12.478 2.668 L 12.505 2.627 L 12.532 2.586 C 12.546 2.545 12.56 2.518 12.56 2.477 C 12.573 2.354 12.573 2.231 12.573 2.108 C 12.573 2.067 12.56 2.026 12.546 1.972 L 12.519 1.931 L 12.491 1.89 L 12.451 1.849 L 12.41 1.821 L 12.369 1.794 L 12.314 1.78 C 12.273 1.767 12.232 1.767 12.191 1.767 C 11.973 1.767 11.754 1.794 11.549 1.808 C 11.167 1.835 10.799 1.876 10.416 1.903 L 10.403 2.954 Z M 15.044 3.623 C 15.29 3.623 15.536 3.623 15.795 3.623 C 15.959 3.623 16.137 3.623 16.314 3.61 C 16.355 3.61 16.382 3.596 16.423 3.596 C 16.464 3.582 16.491 3.569 16.519 3.555 L 16.56 3.528 L 16.587 3.487 L 16.614 3.446 L 16.628 3.405 L 16.642 3.309 L 16.642 3.173 L 16.614 3.023 L 16.601 2.982 L 16.587 2.941 L 16.56 2.9 L 16.519 2.873 L 16.478 2.845 L 16.382 2.818 L 16.218 2.791 L 16.014 2.791 L 14.635 2.791 C 14.498 2.791 14.362 2.791 14.239 2.763 C 14.198 2.75 14.171 2.75 14.143 2.736 L 14.102 2.709 L 14.061 2.681 L 14.034 2.654 L 14.007 2.613 L 13.98 2.572 C 13.952 2.518 13.925 2.463 13.911 2.408 C 13.884 2.258 13.884 2.094 13.884 1.944 C 13.884 1.753 13.898 1.562 13.98 1.385 C 13.993 1.357 14.02 1.33 14.034 1.303 C 14.13 1.221 14.253 1.18 14.375 1.152 C 14.498 1.125 14.635 1.125 14.758 1.125 C 15.058 1.125 15.358 1.125 15.659 1.125 C 16.15 1.125 16.655 1.139 17.147 1.152 L 17.147 1.589 C 16.491 1.576 15.836 1.562 15.181 1.562 C 15.031 1.562 14.881 1.562 14.73 1.576 C 14.703 1.576 14.662 1.589 14.635 1.589 L 14.58 1.617 L 14.539 1.658 L 14.512 1.712 L 14.498 1.767 L 14.485 1.862 C 14.485 1.944 14.485 2.012 14.485 2.094 L 14.498 2.149 L 14.512 2.204 L 14.553 2.258 L 14.621 2.299 L 14.689 2.313 C 15.372 2.326 16.068 2.34 16.751 2.367 L 16.833 2.381 C 16.942 2.408 17.051 2.449 17.133 2.531 C 17.174 2.572 17.201 2.613 17.215 2.654 C 17.283 2.804 17.297 2.982 17.297 3.146 C 17.297 3.337 17.297 3.528 17.242 3.705 C 17.229 3.733 17.229 3.76 17.215 3.787 L 17.174 3.842 C 17.147 3.883 17.119 3.91 17.078 3.937 C 17.01 3.978 16.942 4.019 16.874 4.033 C 16.765 4.06 16.642 4.06 16.532 4.074 C 16.191 4.088 15.863 4.088 15.522 4.088 C 14.99 4.088 14.457 4.101 13.939 4.101 C 13.939 3.951 13.939 3.787 13.939 3.637 C 14.294 3.623 14.648 3.623 15.003 3.623 L 15.044 3.623 L 15.044 3.623 L 15.044 3.623 Z M 19.563 4.224 C 19.29 4.197 19.003 4.183 18.73 4.142 C 18.608 4.129 18.485 4.101 18.375 4.06 C 18.321 4.033 18.266 4.019 18.212 3.978 C 18.171 3.951 18.143 3.924 18.102 3.896 C 18.075 3.869 18.048 3.828 18.02 3.801 C 17.993 3.76 17.98 3.719 17.966 3.678 C 17.925 3.528 17.911 3.364 17.911 3.2 C 17.898 2.804 17.898 2.422 17.911 2.026 L 17.911 1.931 C 17.925 1.753 17.939 1.576 18.048 1.425 C 18.089 1.385 18.116 1.344 18.171 1.316 C 18.307 1.248 18.471 1.221 18.621 1.207 C 18.785 1.193 18.935 1.193 19.099 1.207 C 19.413 1.221 19.741 1.234 20.055 1.262 C 20.519 1.303 20.969 1.344 21.433 1.398 L 21.433 1.917 C 20.819 1.862 20.218 1.808 19.604 1.767 C 19.413 1.753 19.208 1.739 19.003 1.753 L 18.908 1.767 L 18.84 1.78 L 18.785 1.808 L 18.73 1.849 L 18.676 1.903 L 18.635 1.958 L 18.608 2.026 C 18.594 2.067 18.58 2.108 18.58 2.149 C 18.553 2.34 18.539 2.545 18.553 2.75 C 18.553 2.914 18.553 3.077 18.58 3.241 C 18.594 3.282 18.594 3.323 18.608 3.364 L 18.635 3.432 L 18.676 3.487 L 18.73 3.542 L 18.785 3.582 L 18.84 3.61 L 18.908 3.637 C 18.962 3.651 19.017 3.664 19.072 3.664 C 19.249 3.692 19.44 3.705 19.618 3.719 C 20.232 3.774 20.86 3.828 21.474 3.896 C 21.474 4.06 21.474 4.21 21.474 4.374 L 21.474 4.429 C 21.092 4.388 20.696 4.347 20.314 4.32 C 20.082 4.265 19.823 4.251 19.563 4.224 Z M 23.741 2.927 C 24.246 3.023 24.751 3.118 25.256 3.214 L 25.256 2.053 C 25.488 2.108 25.72 2.163 25.966 2.204 L 25.966 5.193 C 25.734 5.139 25.502 5.084 25.256 5.03 L 25.256 3.855 C 24.846 3.774 24.451 3.692 24.041 3.61 C 23.672 3.542 23.29 3.473 22.922 3.405 L 22.922 4.565 C 22.689 4.524 22.457 4.497 22.212 4.456 L 22.212 1.548 C 22.444 1.576 22.689 1.603 22.922 1.644 L 22.922 2.791 C 23.195 2.832 23.468 2.873 23.741 2.927 Z M 29.106 3.118 C 29.352 3.2 29.597 3.282 29.857 3.364 L 29.857 3.855 C 29.133 3.61 28.396 3.378 27.659 3.146 L 27.413 3.077 L 27.413 3.828 C 27.945 3.992 28.491 4.156 29.024 4.333 C 29.256 4.415 29.502 4.483 29.734 4.565 L 29.734 5.002 C 29.051 4.77 28.355 4.552 27.659 4.347 L 27.413 4.279 L 27.413 5.071 C 27.932 5.221 28.451 5.385 28.956 5.548 C 29.256 5.644 29.556 5.753 29.87 5.849 L 29.87 6.354 C 28.887 6.026 27.891 5.726 26.881 5.439 L 26.771 5.412 L 26.771 2.408 C 27.549 2.627 28.328 2.873 29.106 3.118 Z M 1.092 25.084 C 0.655 23.623 0.423 22.258 0.41 21.084 L 9.556 21.084 C 9.584 22.627 10.225 24.047 11.235 25.084 L 1.092 25.084 Z M 0 3.036 L 0.177 2.968 C 5.283 1.084 10.375 0.101 15.481 0.006 C 20.587 -0.076 25.679 0.729 30.785 2.449 L 30.976 2.518 L 30.976 2.709 C 30.935 8.838 30.894 14.968 30.853 21.098 C 30.84 24.265 29.174 28.716 26.034 32.606 C 23.509 35.746 20.014 38.531 15.645 40.006 L 15.495 40.006 C 11.085 38.873 7.604 36.197 5.065 33.071 C 1.816 29.043 0.15 24.238 0.137 20.975 L 0.137 20.975 L 0.137 20.975 L 0.137 20.975 C 0.109 18.012 0.096 15.05 0.068 12.101 L 0 3.036 Z M 5.952 33.316 L 15.235 33.316 L 15.235 29.589 L 3.331 29.589 C 3.29 29.521 3.249 29.453 3.222 29.385 C 3.863 30.531 4.614 31.664 5.474 32.743 C 5.638 32.934 5.788 33.125 5.952 33.316 Z M 15.249 33.78 L 6.375 33.78 C 8.669 36.292 11.631 38.381 15.249 39.391 L 15.249 33.78 Z M 6.348 33.753 C 6.321 33.726 6.294 33.698 6.28 33.671 C 6.294 33.698 6.321 33.726 6.348 33.753 Z M 6.184 33.576 C 6.171 33.562 6.171 33.562 6.171 33.548 C 6.171 33.562 6.184 33.576 6.184 33.576 Z M 3.072 29.111 L 15.249 29.111 L 15.249 26.914 C 15.345 26.914 15.44 26.914 15.536 26.914 C 15.604 26.914 15.659 26.914 15.727 26.914 L 15.727 39.405 C 15.713 39.405 15.7 39.419 15.7 39.419 C 19.85 37.972 23.181 35.296 25.611 32.279 C 28.628 28.538 30.239 24.279 30.307 21.221 C 30.307 21.234 30.307 21.234 30.307 21.248 L 21.529 21.248 C 21.529 21.152 21.543 21.057 21.543 20.961 L 21.543 20.77 L 30.321 20.77 C 30.334 19.46 30.334 18.149 30.348 16.852 L 21.543 16.852 L 21.543 16.388 L 30.348 16.388 C 30.362 15.323 30.362 14.272 30.375 13.221 L 21.543 13.221 L 21.543 12.757 L 21.474 12.757 L 21.474 12.743 L 30.375 12.743 C 30.389 11.46 30.389 10.19 30.403 8.907 L 15.59 8.907 L 15.59 12.757 L 15.113 12.757 L 15.113 5.016 C 10.253 5.098 5.379 6.067 0.491 7.965 L 0.478 7.473 C 5.502 5.535 10.526 4.579 15.536 4.538 C 20.505 4.497 25.461 5.357 30.403 7.064 C 30.403 7.228 30.403 7.391 30.403 7.555 C 30.416 5.999 30.43 4.443 30.43 2.9 C 25.447 1.248 20.464 0.47 15.495 0.552 C 10.444 0.634 5.406 1.603 0.369 3.473 L 0.614 12.101 C 0.642 14.995 0.655 17.89 0.683 20.797 C 0.683 20.797 0.683 20.797 0.683 20.784 L 9.57 20.784 L 9.57 20.975 C 9.57 21.071 9.57 21.166 9.584 21.262 L 0.669 21.262 L 0.669 21.262 C 0.696 22.354 0.928 23.623 1.324 24.961 C 1.324 24.948 1.311 24.934 1.311 24.92 L 11.058 24.92 C 11.14 25.016 11.222 25.111 11.317 25.193 L 11.618 25.398 L 1.461 25.398 C 1.857 26.6 2.389 27.855 3.072 29.111 Z M 3.208 29.371 C 3.208 29.371 3.208 29.357 3.195 29.357 C 3.208 29.357 3.208 29.371 3.208 29.371 Z M 3.195 29.344 C 3.181 29.33 3.181 29.316 3.167 29.303 C 3.181 29.316 3.181 29.33 3.195 29.344 Z M 3.113 29.207 C 3.113 29.193 3.113 29.193 3.113 29.207 C 3.113 29.193 3.113 29.193 3.113 29.207 Z M 1.433 25.303 C 1.42 25.275 1.42 25.248 1.406 25.234 C 1.42 25.262 1.433 25.275 1.433 25.303 Z M 1.379 25.125 C 1.365 25.098 1.365 25.071 1.352 25.043 C 1.365 25.071 1.379 25.098 1.379 25.125 Z M 0.669 21.125 L 0.669 21.125 L 0.669 21.125 Z M 0.669 20.825 L 0.669 20.825 L 0.669 20.825 Z M 30.294 20.879 L 30.294 20.893 L 30.294 20.879 Z M 30.294 20.948 C 30.294 20.961 30.294 20.961 30.294 20.975 C 30.294 20.961 30.294 20.961 30.294 20.948 Z M 30.294 20.975 L 30.294 20.989 C 30.294 20.989 30.294 20.989 30.294 20.975 Z M 30.294 21.057 L 30.294 21.071 C 30.294 21.071 30.294 21.071 30.294 21.057 Z M 30.294 21.084 L 30.294 21.098 L 30.294 21.084 Z M 30.294 21.098 C 30.294 21.098 30.294 21.111 30.294 21.098 C 30.294 21.111 30.294 21.098 30.294 21.098 Z M 30.294 21.057 L 30.294 21.057 L 30.294 21.057 L 30.294 21.057 C 30.294 21.043 30.294 21.043 30.294 21.043 L 30.294 21.043 L 30.294 21.043 L 30.294 21.043 L 30.294 21.043 L 30.294 21.043 L 30.294 21.043 L 30.294 21.057 Z M 30.294 21.016 L 30.294 21.016 C 30.294 21.002 30.294 21.002 30.294 21.002 L 30.294 21.002 L 30.294 21.002 L 30.294 21.016 Z M 30.294 20.811 L 30.294 20.811 C 30.294 20.811 30.294 20.797 30.294 20.811 C 30.294 20.797 30.294 20.797 30.294 20.797 L 30.294 20.797 L 30.294 20.797 L 30.294 20.811 Z M 30.362 12.811 L 30.362 12.811 L 30.362 12.811 Z M 15.59 8.443 L 30.389 8.443 C 30.389 8.524 30.389 8.593 30.389 8.675 C 30.389 8.306 30.389 7.937 30.389 7.569 C 25.461 5.849 20.532 4.989 15.59 5.016 L 15.59 8.443 Z M 30.389 8.675 C 30.389 8.716 30.389 8.743 30.389 8.784 C 30.389 8.743 30.389 8.716 30.389 8.675 Z M 30.389 8.811 L 30.389 8.811 L 30.389 8.811 Z M 30.389 8.825 C 30.389 8.852 30.389 8.879 30.389 8.907 C 30.389 8.879 30.389 8.852 30.389 8.825 Z M 15.672 39.432 L 15.672 39.432 L 15.672 39.432 Z M 15.563 39.46 L 15.563 39.46 L 15.563 39.46 Z M 15.563 39.46 C 15.549 39.46 15.549 39.46 15.536 39.473 C 15.549 39.473 15.549 39.473 15.563 39.46 Z M 15.372 39.432 C 15.331 39.419 15.304 39.419 15.263 39.405 C 15.304 39.405 15.345 39.419 15.372 39.432 Z M 15.672 39.419 C 15.686 39.419 15.686 39.419 15.672 39.419 C 15.686 39.419 15.686 39.419 15.672 39.419 L 15.672 39.419 Z M 2.608 10.586 C 2.867 10.422 3.14 10.258 3.413 10.122 C 3.372 9.699 3.331 9.043 3.44 8.688 C 3.645 8.033 4.246 7.501 4.956 7.623 C 4.997 7.637 5.024 7.678 4.997 7.692 C 4.601 7.896 4.287 8.21 4.109 8.647 C 4.055 8.77 3.863 9.644 4.15 9.712 C 4.177 9.726 4.205 9.726 4.246 9.726 C 4.765 9.507 5.297 9.316 5.843 9.152 C 5.843 8.729 5.857 8.142 6.007 7.828 C 6.28 7.214 6.962 6.763 7.7 6.982 C 7.741 6.995 7.768 7.05 7.741 7.064 C 7.304 7.214 6.949 7.473 6.717 7.883 C 6.648 8.006 6.362 8.838 6.662 8.948 L 6.676 8.948 C 7.181 8.838 7.7 8.743 8.259 8.675 C 8.328 8.251 8.437 7.705 8.628 7.419 C 9.038 6.818 9.857 6.408 10.621 6.695 C 10.662 6.709 10.689 6.763 10.648 6.777 C 10.143 6.9 9.706 7.132 9.392 7.528 C 9.311 7.637 8.887 8.402 9.133 8.579 C 9.16 8.579 9.188 8.579 9.215 8.565 C 9.652 8.524 10.157 8.511 10.635 8.538 C 10.758 8.279 10.881 8.047 11.017 7.896 C 11.495 7.405 12.546 7.228 12.86 7.651 C 12.887 7.678 12.901 7.733 12.86 7.733 C 12.41 7.746 11.945 7.815 11.604 8.129 C 11.549 8.183 11.358 8.374 11.249 8.593 C 11.973 8.716 12.587 8.961 12.778 9.425 C 12.846 9.576 12.887 9.712 12.86 9.876 C 12.86 9.917 12.765 9.89 12.737 9.849 C 11.823 9.002 10.362 8.907 8.41 9.248 C 6.43 9.589 4.778 10.176 3.003 11.023 C 3.713 11.828 2.594 12.443 2.225 11.596 C 1.365 12.62 0.573 11.132 1.747 10.954 C 1.078 9.917 2.43 9.876 2.608 10.586 Z M 2.853 18.75 C 3.085 18.572 3.386 18.422 3.631 18.272 C 3.386 17.876 3.235 17.303 3.331 16.934 C 3.495 16.279 3.904 15.965 4.41 15.992 C 4.451 15.992 4.478 16.047 4.451 16.06 C 4.096 16.292 4.041 16.593 3.932 17.043 C 3.877 17.289 4.014 17.699 4.191 17.849 C 4.642 17.603 4.628 17.644 5.106 17.466 C 4.969 17.043 4.997 16.47 5.174 16.115 C 5.447 15.542 5.898 15.323 6.348 15.419 C 6.389 15.432 6.416 15.473 6.375 15.487 C 6.02 15.637 5.297 16.21 5.775 17.289 C 6.212 17.139 6.239 17.111 6.799 16.989 C 6.84 16.565 6.853 16.06 7.017 15.76 C 7.358 15.146 8.164 14.859 8.532 15.009 C 8.573 15.023 8.601 15.077 8.56 15.091 C 8.355 15.228 8.082 15.337 7.809 15.746 C 7.659 15.965 7.399 16.47 7.468 16.811 C 7.863 16.757 8.382 16.729 8.833 16.743 C 8.928 16.483 9.119 16.169 9.242 16.019 C 9.324 15.924 9.433 15.842 9.543 15.801 L 9.543 17.33 C 8.792 17.289 7.959 17.371 7.167 17.562 C 5.379 17.985 4.915 18.313 3.317 19.173 C 4.273 19.774 3.345 20.688 2.758 19.787 C 1.72 20.975 1.051 19.446 2.13 19.214 C 1.311 18.217 2.648 17.685 2.853 18.75 Z M 2.389 14.681 C 2.662 14.518 3.031 14.395 3.304 14.258 C 3.276 13.835 3.222 13.453 3.345 13.098 C 3.563 12.456 3.904 12.129 4.451 12.183 C 4.491 12.197 4.519 12.238 4.491 12.265 C 4.096 12.47 4.191 12.743 4.014 13.166 C 3.959 13.289 3.823 13.808 4.109 13.89 C 4.137 13.903 4.164 13.903 4.205 13.903 C 4.724 13.699 4.532 13.712 5.065 13.576 C 5.078 13.166 5.106 12.606 5.242 12.306 C 5.529 11.719 6.061 11.432 6.553 11.555 C 6.594 11.569 6.676 11.664 6.635 11.678 C 6.239 11.801 5.556 12.606 5.843 13.234 C 6.184 13.18 6.416 13.071 7.031 12.989 C 7.113 12.565 7.249 12.142 7.454 11.855 C 7.877 11.268 8.532 11.146 8.915 11.323 C 8.956 11.337 9.01 11.446 8.969 11.46 C 8.464 11.569 8.451 11.514 8.123 11.91 C 7.945 12.115 7.59 12.675 7.85 12.934 C 8.287 12.907 8.587 12.852 9.065 12.893 C 9.188 12.647 9.283 12.306 9.42 12.169 C 9.898 11.678 10.73 11.637 11.003 11.965 C 11.031 11.992 11.044 12.047 11.003 12.047 C 10.553 12.06 10.389 12.183 10.034 12.497 C 9.993 12.524 9.911 12.634 9.816 12.77 L 9.556 12.77 L 9.556 13.617 C 8.819 13.548 8.014 13.576 7.263 13.685 C 5.283 13.985 4.56 14.436 2.922 15.228 C 3.618 16.047 2.485 16.62 2.143 15.76 C 1.27 16.77 0.491 15.255 1.693 15.105 C 1.024 14.026 2.198 13.739 2.389 14.681 Z M 21.242 13.043 L 21.242 20.975 C 21.242 24.101 18.689 26.64 15.536 26.64 C 12.396 26.64 9.829 24.101 9.829 20.975 L 9.829 13.043 L 21.242 13.043 M 21.515 12.757 L 9.543 12.757 L 9.543 20.961 C 9.543 24.224 12.232 26.914 15.522 26.914 C 18.826 26.914 21.502 24.224 21.502 20.961 L 21.515 12.757 Z M 15.276 18.572 C 15.331 18.627 15.454 18.559 15.495 18.504 C 15.59 18.354 15.577 18.163 15.59 17.972 C 15.604 17.767 15.604 17.589 15.536 17.398 C 15.427 17.071 15.276 16.811 14.908 16.757 C 14.867 16.743 14.785 16.825 14.812 16.852 C 15.058 17.111 15.154 17.098 15.222 17.494 C 15.29 17.876 15.249 18.545 15.276 18.572 Z M 12.696 23.337 C 12.751 23.35 12.874 23.187 12.915 23.091 C 12.956 23.009 12.942 22.845 12.942 22.832 C 12.928 22.804 12.792 22.859 12.724 22.859 C 12.655 22.859 12.601 22.845 12.505 22.832 C 12.41 22.818 12.423 22.6 12.41 22.477 C 12.382 22.163 12.369 21.849 12.382 21.535 C 12.382 21.453 12.41 21.344 12.478 21.289 C 12.573 21.234 12.71 21.248 12.819 21.262 C 13.038 21.303 13.242 21.412 13.474 21.453 C 13.597 21.48 13.734 21.466 13.857 21.425 C 13.966 21.398 14.048 21.316 14.143 21.275 C 14.198 21.262 14.266 21.248 14.307 21.275 C 14.485 21.371 14.608 21.548 14.785 21.617 C 15.017 21.685 15.263 21.658 15.509 21.671 C 15.7 21.671 15.891 21.644 16.082 21.671 C 16.164 21.685 16.3 21.699 16.328 21.794 C 16.355 21.917 16.15 22.026 16.177 22.149 C 16.232 22.34 16.451 22.436 16.546 22.6 C 16.587 22.668 16.573 22.75 16.546 22.818 C 16.519 22.873 16.423 22.886 16.382 22.941 C 16.328 23.023 16.314 23.118 16.259 23.2 C 16.205 23.282 16.123 23.35 16.041 23.419 C 15.863 23.555 15.686 23.692 15.481 23.801 C 15.413 23.842 15.29 23.76 15.263 23.828 C 15.208 23.951 15.154 24.101 15.099 24.183 C 15.044 24.265 14.976 24.279 14.935 24.32 C 14.894 24.374 14.84 24.47 14.867 24.483 C 14.894 24.497 15.154 24.497 15.249 24.483 C 15.345 24.47 15.399 24.456 15.427 24.443 C 15.454 24.415 15.413 24.333 15.386 24.169 C 15.372 24.006 15.823 23.937 16.041 23.815 C 16.273 23.664 16.505 23.501 16.737 23.364 C 16.833 23.309 16.969 23.296 17.051 23.214 C 17.092 23.173 17.079 23.105 17.079 23.05 C 17.079 22.914 17.051 22.777 17.051 22.64 C 17.051 22.572 17.051 22.49 17.106 22.449 C 17.147 22.408 17.229 22.395 17.27 22.422 C 17.352 22.463 17.365 22.586 17.433 22.64 C 17.543 22.722 17.679 22.75 17.802 22.804 C 17.911 22.859 18.102 22.859 18.116 22.968 C 18.143 23.173 18.007 23.364 17.925 23.542 C 17.884 23.637 17.788 23.692 17.734 23.787 C 17.706 23.842 17.706 23.91 17.666 23.951 C 17.556 24.06 17.406 24.129 17.297 24.238 C 17.215 24.32 17.147 24.402 17.106 24.497 C 17.079 24.552 17.065 24.606 17.038 24.661 C 16.997 24.716 16.928 24.729 16.887 24.811 C 16.846 24.893 16.751 25.111 16.833 25.098 C 16.915 25.084 17.392 25.002 17.406 24.948 C 17.42 24.907 17.379 24.784 17.352 24.634 C 17.324 24.483 17.666 24.374 17.829 24.279 C 17.925 24.224 18.061 24.251 18.143 24.183 C 18.198 24.142 18.171 24.047 18.184 23.992 C 18.225 23.896 18.253 23.787 18.334 23.705 C 18.43 23.596 18.594 23.555 18.676 23.446 C 18.758 23.309 18.853 23.146 18.826 22.995 C 18.799 22.873 18.648 22.832 18.567 22.736 C 18.498 22.668 18.43 22.586 18.403 22.49 C 18.362 22.354 18.334 22.217 18.375 22.081 C 18.43 21.917 18.594 21.808 18.689 21.671 C 18.771 21.548 18.894 21.453 18.935 21.316 C 18.976 21.152 18.894 20.975 18.881 20.811 C 18.881 20.784 18.853 20.743 18.881 20.716 C 18.99 20.62 19.113 20.497 19.263 20.47 C 19.399 20.456 19.509 20.593 19.645 20.62 C 19.782 20.634 19.945 20.647 20.082 20.593 C 20.123 20.579 20.137 20.483 20.109 20.443 C 20.014 20.361 19.809 20.388 19.768 20.279 C 19.741 20.183 19.932 20.156 19.986 20.06 C 20.055 19.937 20.109 19.801 20.109 19.651 C 20.109 19.596 20 19.596 19.959 19.623 C 19.891 19.664 19.891 19.76 19.836 19.815 C 19.795 19.856 19.727 19.869 19.672 19.869 C 19.618 19.869 19.536 19.842 19.509 19.801 C 19.468 19.76 19.44 19.664 19.481 19.637 C 19.59 19.569 19.741 19.596 19.863 19.569 C 19.918 19.555 19.986 19.542 20.014 19.501 C 20.055 19.419 20.055 19.323 20.014 19.241 C 20 19.2 19.932 19.2 19.891 19.214 C 19.836 19.228 19.809 19.309 19.741 19.309 C 19.659 19.309 19.577 19.268 19.522 19.214 C 19.481 19.159 19.468 19.077 19.495 19.023 C 19.536 18.927 19.672 18.9 19.713 18.804 C 19.768 18.681 19.809 18.531 19.782 18.395 C 19.768 18.34 19.659 18.313 19.618 18.354 C 19.549 18.395 19.563 18.49 19.522 18.545 C 19.468 18.627 19.44 18.75 19.358 18.791 C 19.304 18.818 19.208 18.763 19.195 18.695 C 19.167 18.586 19.235 18.477 19.263 18.381 C 19.304 18.272 19.358 18.163 19.427 18.067 C 19.495 17.972 19.631 17.931 19.686 17.821 C 19.727 17.739 19.768 17.63 19.713 17.562 C 19.672 17.507 19.577 17.548 19.522 17.589 C 19.481 17.617 19.495 17.712 19.454 17.739 C 19.331 17.794 19.181 17.753 19.072 17.808 C 18.976 17.862 18.935 17.958 18.881 18.053 C 18.785 18.217 18.771 18.504 18.73 18.531 C 18.689 18.572 18.594 18.559 18.567 18.504 C 18.526 18.436 18.594 18.326 18.539 18.258 C 18.498 18.217 18.389 18.217 18.348 18.258 C 18.294 18.313 18.28 18.395 18.28 18.477 C 18.28 18.6 18.294 18.722 18.348 18.832 C 18.444 19.009 18.594 19.146 18.717 19.309 C 18.84 19.473 18.99 19.623 19.058 19.815 C 19.099 19.937 19.113 20.088 19.058 20.197 C 19.017 20.306 18.908 20.415 18.799 20.415 C 18.648 20.402 18.539 20.238 18.416 20.156 C 18.294 20.074 18.171 19.965 18.034 19.937 C 17.72 19.883 17.392 19.937 17.065 19.937 C 16.778 19.937 16.478 19.978 16.191 19.937 C 16.055 19.924 15.904 19.869 15.809 19.774 C 15.713 19.678 15.645 19.542 15.645 19.419 C 15.631 19.241 15.7 19.077 15.768 18.914 C 15.823 18.804 15.904 18.695 16.014 18.627 C 16.096 18.572 16.232 18.545 16.314 18.572 C 16.41 18.613 16.669 18.968 16.724 18.954 C 16.778 18.941 16.737 18.627 16.71 18.531 C 16.655 18.381 16.491 18.299 16.451 18.149 C 16.437 18.108 16.505 18.053 16.546 18.053 C 16.628 18.053 16.724 18.108 16.792 18.176 C 16.833 18.204 17.01 18.463 17.051 18.449 C 17.092 18.436 17.024 18.081 16.983 17.972 C 16.915 17.821 16.696 17.712 16.683 17.671 C 16.669 17.644 16.683 17.617 16.724 17.603 C 16.805 17.603 16.887 17.644 16.969 17.671 C 17.038 17.699 17.147 17.78 17.188 17.767 C 17.229 17.753 17.188 17.63 17.147 17.576 C 16.997 17.398 16.792 17.289 16.642 17.125 C 16.56 17.043 16.478 16.934 16.478 16.811 C 16.478 16.743 16.56 16.675 16.628 16.647 C 16.751 16.593 16.915 16.565 17.024 16.497 C 17.065 16.47 17.038 16.443 16.997 16.429 C 16.819 16.361 16.628 16.333 16.437 16.333 C 16.328 16.333 16.232 16.402 16.123 16.429 C 16.055 16.456 15.986 16.497 15.904 16.497 C 15.768 16.497 15.618 16.511 15.522 16.429 C 15.468 16.374 15.536 16.265 15.577 16.183 C 15.618 16.115 15.686 16.074 15.741 16.019 C 15.782 15.978 15.904 15.937 15.863 15.924 C 15.823 15.91 15.604 15.91 15.481 15.951 C 15.372 15.978 15.276 16.019 15.195 16.101 C 15.126 16.169 15.14 16.32 15.044 16.361 C 14.881 16.456 14.799 16.429 14.621 16.511 C 14.58 16.538 14.485 16.647 14.444 16.661 C 14.225 16.688 13.788 16.579 13.775 16.62 C 13.747 16.661 14.116 16.866 14.184 17.057 C 14.212 17.139 14.007 17.016 13.925 17.03 C 13.788 17.043 13.652 17.071 13.543 17.125 C 13.433 17.18 13.338 17.275 13.256 17.371 C 13.174 17.453 13.133 17.562 13.038 17.63 C 12.997 17.658 12.901 17.617 12.874 17.658 C 12.833 17.712 12.819 17.835 12.887 17.835 L 13.27 17.862 C 13.338 17.862 13.201 18.012 13.242 18.081 C 13.27 18.122 13.365 18.108 13.406 18.081 C 13.461 18.053 13.488 17.972 13.556 17.931 C 13.625 17.89 13.693 17.835 13.775 17.835 C 13.87 17.835 13.993 17.876 14.034 17.958 C 14.075 18.04 13.98 18.135 13.966 18.217 C 13.952 18.313 14.007 18.436 13.939 18.504 C 13.734 18.695 13.666 18.531 13.365 18.914 C 13.119 19.214 13.229 19.05 13.147 19.446 C 13.133 19.528 13.119 19.61 13.051 19.664 C 12.983 19.705 12.874 19.733 12.805 19.692 C 12.669 19.623 12.587 19.487 12.491 19.35 C 12.437 19.282 12.464 19.159 12.396 19.105 C 12.3 19.05 12.164 19.05 12.055 19.077 C 11.973 19.105 11.932 19.2 11.891 19.268 C 11.782 19.419 11.7 19.596 11.604 19.746 C 11.522 19.869 11.413 19.978 11.345 20.101 C 11.304 20.169 11.331 20.251 11.29 20.32 C 11.208 20.511 11.14 20.688 11.044 20.866 C 11.003 20.934 10.922 20.975 10.894 21.057 C 10.881 21.139 10.908 21.316 10.949 21.316 C 10.99 21.316 11.126 21.221 11.208 21.166 C 11.304 21.125 11.481 21.071 11.495 21.043 C 11.509 21.016 11.399 20.92 11.345 20.852 C 11.249 20.729 11.454 20.552 11.536 20.415 C 11.563 20.361 11.631 20.347 11.659 20.292 C 11.713 20.183 11.727 20.047 11.782 19.937 C 11.85 19.787 11.932 19.637 12.041 19.528 C 12.096 19.473 12.191 19.432 12.259 19.487 C 12.369 19.555 12.382 19.705 12.451 19.828 C 12.505 19.91 12.573 19.992 12.601 20.088 C 12.628 20.169 12.546 20.279 12.601 20.347 C 12.669 20.429 12.805 20.456 12.915 20.47 L 13.16 20.497 L 13.188 20.838 C 13.201 20.961 12.928 20.866 12.805 20.893 C 12.696 20.92 12.587 20.961 12.464 20.989 C 12.355 21.016 12.15 20.92 12.123 21.043 C 12.027 21.521 12.15 21.999 12.177 22.477 C 12.177 22.6 12.109 22.804 12.232 22.859 L 12.464 22.954 C 12.505 23.05 12.532 23.173 12.587 23.241 C 12.573 23.309 12.642 23.323 12.696 23.337 Z M 20.218 14.231 C 20.218 14.135 20.15 14.094 20.027 14.094 L 19.563 14.094 C 19.44 14.094 19.372 14.135 19.372 14.231 C 19.372 14.326 19.44 14.367 19.563 14.367 L 19.659 14.367 L 19.659 15.228 C 19.659 15.378 19.7 15.446 19.795 15.446 C 19.891 15.446 19.932 15.378 19.932 15.228 L 19.932 14.367 L 20.027 14.367 C 20.164 14.367 20.218 14.326 20.218 14.231 Z M 18.894 14.531 C 18.894 14.64 18.84 14.695 18.73 14.695 L 18.608 14.695 L 18.608 14.367 L 18.73 14.367 C 18.84 14.367 18.894 14.422 18.894 14.531 Z M 19.195 15.309 C 19.195 15.255 19.167 15.2 19.113 15.132 L 18.894 14.859 C 19.072 14.818 19.181 14.681 19.181 14.49 C 19.181 14.245 19.017 14.067 18.73 14.067 L 18.526 14.067 C 18.375 14.067 18.334 14.135 18.334 14.286 L 18.334 15.214 C 18.334 15.364 18.375 15.432 18.471 15.432 C 18.567 15.432 18.608 15.364 18.608 15.214 L 18.608 14.886 L 18.922 15.337 C 18.976 15.405 19.017 15.446 19.072 15.446 C 19.14 15.446 19.195 15.391 19.195 15.309 Z M 17.747 14.886 L 17.461 14.886 L 17.611 14.395 L 17.747 14.886 Z M 18.13 15.296 C 18.13 15.268 18.13 15.241 18.116 15.2 L 17.816 14.245 C 17.775 14.135 17.706 14.067 17.611 14.067 C 17.515 14.067 17.447 14.135 17.406 14.258 L 17.092 15.2 C 17.078 15.228 17.078 15.255 17.078 15.282 C 17.078 15.364 17.133 15.432 17.201 15.432 C 17.256 15.432 17.311 15.391 17.338 15.296 L 17.379 15.159 L 17.816 15.159 L 17.843 15.282 C 17.87 15.378 17.911 15.432 17.98 15.432 C 18.075 15.446 18.13 15.391 18.13 15.296 Z M 16.887 14.818 C 16.887 14.668 16.833 14.613 16.724 14.613 L 16.546 14.613 C 16.437 14.613 16.382 14.654 16.382 14.75 C 16.382 14.845 16.437 14.886 16.546 14.886 L 16.628 14.886 C 16.628 15.05 16.546 15.159 16.41 15.159 C 16.259 15.159 16.15 14.995 16.15 14.736 C 16.15 14.477 16.259 14.326 16.41 14.326 C 16.56 14.326 16.628 14.449 16.696 14.449 C 16.751 14.449 16.805 14.381 16.805 14.313 C 16.805 14.176 16.655 14.04 16.423 14.04 C 16.096 14.04 15.891 14.313 15.891 14.75 C 15.891 15.173 16.096 15.46 16.396 15.46 C 16.696 15.46 16.887 15.187 16.887 14.818 Z M 15.823 14.231 C 15.823 14.135 15.754 14.094 15.631 14.094 L 15.167 14.094 C 15.044 14.094 14.976 14.135 14.976 14.231 C 14.976 14.326 15.044 14.367 15.167 14.367 L 15.263 14.367 L 15.263 15.228 C 15.263 15.378 15.304 15.446 15.399 15.446 C 15.495 15.446 15.536 15.378 15.536 15.228 L 15.536 14.367 L 15.631 14.367 C 15.754 14.367 15.823 14.326 15.823 14.231 Z M 14.922 14.231 C 14.922 14.135 14.853 14.094 14.73 14.094 L 14.266 14.094 C 14.143 14.094 14.075 14.135 14.075 14.231 C 14.075 14.326 14.143 14.367 14.266 14.367 L 14.362 14.367 L 14.362 15.228 C 14.362 15.378 14.403 15.446 14.498 15.446 C 14.594 15.446 14.635 15.378 14.635 15.228 L 14.635 14.367 L 14.73 14.367 C 14.853 14.367 14.922 14.326 14.922 14.231 Z M 13.911 14.845 L 13.911 14.286 C 13.911 14.135 13.87 14.067 13.775 14.067 C 13.679 14.067 13.638 14.135 13.638 14.286 L 13.638 14.818 C 13.638 15.05 13.556 15.173 13.406 15.173 C 13.256 15.173 13.174 15.05 13.174 14.818 L 13.174 14.286 C 13.174 14.135 13.133 14.067 13.038 14.067 C 12.942 14.067 12.901 14.135 12.901 14.286 L 12.901 14.845 C 12.901 15.241 13.092 15.46 13.406 15.46 C 13.706 15.46 13.911 15.241 13.911 14.845 Z M 12.792 14.231 C 12.792 14.135 12.724 14.094 12.601 14.094 L 12.137 14.094 C 12.014 14.094 11.945 14.135 11.945 14.231 C 11.945 14.326 12.014 14.367 12.137 14.367 L 12.232 14.367 L 12.232 15.228 C 12.232 15.378 12.273 15.446 12.369 15.446 C 12.464 15.446 12.505 15.378 12.505 15.228 L 12.505 14.367 L 12.601 14.367 C 12.724 14.367 12.792 14.326 12.792 14.231 Z M 11.85 15.009 C 11.85 14.804 11.741 14.681 11.522 14.6 C 11.386 14.545 11.304 14.531 11.304 14.436 C 11.304 14.367 11.358 14.326 11.44 14.326 C 11.509 14.326 11.59 14.367 11.645 14.367 C 11.727 14.367 11.768 14.313 11.768 14.245 C 11.768 14.135 11.645 14.053 11.44 14.053 C 11.181 14.053 11.017 14.231 11.017 14.477 C 11.017 14.681 11.126 14.777 11.345 14.859 C 11.468 14.9 11.549 14.941 11.549 15.05 C 11.549 15.132 11.495 15.187 11.413 15.187 C 11.29 15.187 11.195 15.118 11.126 15.118 C 11.044 15.118 10.99 15.173 10.99 15.255 C 10.99 15.364 11.154 15.473 11.372 15.473 C 11.672 15.46 11.85 15.268 11.85 15.009 Z" fill="transparent" height="40.005668098194505px" id="Es8ksWW_g" transform="translate(4.164 -0.006)" width="30.97610921501706px"><path d="M 1.187 3.306 C 1.419 3.128 1.938 2.951 2.224 2.828 C 2.211 2.391 2.033 1.981 2.142 1.613 C 2.334 0.958 2.784 0.671 3.221 0.616 C 3.248 0.63 3.276 0.685 3.248 0.698 C 3.003 0.93 2.907 1.258 2.866 1.613 C 2.852 1.749 2.825 2.173 2.948 2.473 C 3.207 2.336 3.835 2.118 4.04 2.077 C 4.067 1.64 4.136 1.217 4.259 0.903 C 4.504 0.289 5.05 -0.203 5.596 0.084 C 5.624 0.098 5.651 0.152 5.624 0.166 C 5.282 0.289 5.064 0.644 4.873 1.053 C 4.818 1.176 4.627 1.831 4.846 1.968 C 4.846 1.968 4.859 1.968 4.859 1.981 C 5.255 1.9 5.323 1.941 5.747 1.9 C 5.815 1.476 6.006 1.108 6.17 0.835 C 6.416 0.357 7.057 -0.025 7.631 0.316 C 7.658 0.33 7.685 0.398 7.644 0.398 C 7.248 0.48 6.989 0.739 6.852 0.971 C 6.784 1.08 6.416 1.586 6.607 1.79 C 6.62 1.79 6.648 1.79 6.675 1.79 C 7.016 1.777 7.262 1.845 7.617 1.913 C 7.726 1.654 7.822 1.627 7.931 1.49 C 8.327 1.012 8.996 0.848 9.228 1.299 C 9.255 1.326 9.255 1.381 9.228 1.381 C 9.023 1.408 8.682 1.517 8.518 1.722 C 8.477 1.763 8.368 1.886 8.259 2.118 C 8.723 2.473 8.982 2.76 9.105 3.237 C 9.132 3.319 9.173 3.811 9.009 3.565 C 8.259 2.623 7.248 2.418 5.733 2.569 C 4.108 2.719 3.357 2.964 1.733 3.838 C 2.634 4.644 1.282 5.435 1.064 4.248 C 0.272 5.449 -0.561 3.934 0.504 3.715 C -0.588 2.65 0.9 2.159 1.187 3.306 Z" fill="rgb(0, 0, 0)" height="4.852690335342601px" id="GPIOmq1wl" transform="translate(16.479 26.256)" width="9.2482738398853px"/><path d="M 4.112 2.281 C 4.699 2.09 5.34 1.885 5.668 1.817 C 5.723 0.861 6.624 -0.326 7.688 0.083 C 7.729 0.097 7.757 0.151 7.716 0.165 C 7.443 0.247 6.569 1.08 6.869 1.612 C 7.088 1.626 7.688 1.612 7.866 1.626 C 8.098 0.575 9.013 -0.163 10.05 0.315 C 10.091 0.329 10.118 0.397 10.077 0.397 C 9.668 0.465 8.74 1.121 8.849 1.68 C 9.04 1.694 9.559 1.872 9.886 2.049 C 10.009 1.79 10.146 1.694 10.269 1.558 C 10.719 1.08 11.647 1.039 11.92 1.503 C 11.948 1.53 11.948 1.585 11.92 1.585 C 11.525 1.571 11.17 1.626 10.828 1.926 C 10.774 1.967 10.665 2.131 10.542 2.363 C 10.869 2.54 11.238 2.882 11.306 3.209 C 11.361 3.373 11.388 3.51 11.361 3.674 C 11.347 3.715 11.265 3.674 11.238 3.646 C 10.378 2.704 8.48 2.117 6.637 2.349 C 5.409 2.5 4.207 2.841 3.211 3.278 C 3.552 2.977 3.852 2.65 4.112 2.281 Z M 1.409 4.411 C 1.327 4.493 1.245 4.561 1.176 4.643 C 1.613 5.244 0.917 5.721 0.712 5.121 C 0.194 5.68 -0.216 5.025 0.125 4.752 C 0.562 4.684 0.999 4.575 1.409 4.411 Z" fill="rgb(0, 0, 0)" height="5.397385977329748px" id="nwA9Xhi4d" transform="translate(16.325 22.093)" width="11.940961974472714px"/><path d="M 0.923 3.114 C 1.046 2.978 1.347 2.719 1.497 2.596 C 1.033 1.872 1.292 0.944 1.743 0.876 C 1.77 0.889 1.784 0.93 1.77 0.957 C 1.647 1.135 1.592 2.091 1.947 2.295 C 2.125 2.172 2.466 1.927 2.616 1.886 C 2.357 1.012 2.807 -0.162 3.681 0.029 C 3.708 0.043 3.722 0.097 3.708 0.111 C 2.999 0.48 2.985 1.572 3.176 1.695 C 3.463 1.613 3.777 1.49 4.091 1.463 C 4.227 0.302 5.251 -0.217 5.77 0.084 C 5.797 0.097 5.811 0.166 5.797 0.166 C 5.51 0.002 4.432 1.108 4.787 1.435 C 5.033 1.422 5.319 1.531 5.606 1.599 C 5.729 0.957 6.63 0.425 7.012 0.835 C 7.039 0.862 7.039 0.916 7.026 0.916 C 6.685 0.985 6.234 1.299 6.166 1.899 C 6.889 2.241 6.807 2.951 6.685 2.759 C 6.002 1.858 4.555 2.009 3.449 2.241 C 2.807 2.377 1.906 2.992 1.524 3.428 C 2.685 3.975 1.633 4.998 1.142 3.838 C 0.336 5.258 -0.455 3.961 0.487 3.579 C -0.66 2.691 0.528 2.091 0.923 3.114 Z" fill="rgb(0, 0, 0)" height="4.48677814850123px" id="KcPq7ZHMQ" transform="translate(16.51 31.444)" width="7.034808116537491px"/><path d="M 2.894 4.205 C 1.747 2.881 0.778 1.447 0 0 L 12.56 0 L 12.56 4.205 L 2.894 4.205 Z" fill="rgb(0, 0, 0)" height="4.204778156996582px" id="bovt0UhaE" transform="translate(2.853 29.275)" width="12.559726962457333px"/><path d="M 0 0 L 9.229 0 L 9.229 3.618 L 0 3.618 Z" fill="rgb(0, 0, 0)" height="3.6177474402730496px" id="PHR0LfPn7" transform="translate(21.461 12.934)" width="9.228668941979521px"/><path d="M 15.331 2.648 L 12.601 1.679 L 9.42 1.038 L 5.843 0.259 L 2.526 0 L 0 0 L 0 3.809 L 15.317 3.809 Z" fill="rgb(0, 0, 0)" height="3.8088737201365213px" id="pulXx7zCf" transform="translate(15.358 4.797)" width="15.331058020477812px"/><path d="M 1.133 2.048 C 1.502 1.925 1.87 1.816 2.253 1.706 C 2.389 1.666 2.526 1.625 2.676 1.597 C 2.826 1.57 2.976 1.556 3.126 1.597 L 3.181 1.625 C 3.235 1.652 3.263 1.693 3.29 1.747 C 3.331 1.843 3.345 1.939 3.358 2.048 C 3.386 2.266 3.386 2.485 3.358 2.703 C 3.345 2.881 3.317 3.058 3.249 3.208 C 3.222 3.276 3.181 3.331 3.126 3.386 C 3.085 3.427 3.044 3.468 3.003 3.495 C 2.908 3.563 2.826 3.618 2.717 3.659 C 2.471 3.768 2.225 3.85 1.966 3.932 C 1.529 4.082 1.092 4.232 0.655 4.382 L 0.655 5.188 C 0.437 5.27 0.218 5.365 0 5.447 L 0 2.416 C 0.382 2.294 0.751 2.171 1.133 2.048 Z M 0.655 3.836 C 1.092 3.686 1.529 3.536 1.98 3.386 C 2.116 3.345 2.253 3.304 2.375 3.249 L 2.471 3.195 L 2.512 3.167 L 2.553 3.126 L 2.594 3.085 L 2.621 3.044 L 2.662 2.962 C 2.676 2.908 2.689 2.867 2.689 2.812 C 2.703 2.676 2.703 2.553 2.662 2.416 L 2.635 2.348 L 2.608 2.294 L 2.567 2.253 L 2.512 2.225 L 2.457 2.212 L 2.403 2.212 L 2.348 2.212 C 2.212 2.225 2.089 2.266 1.952 2.307 C 1.515 2.444 1.079 2.594 0.642 2.73 L 0.655 3.836 Z M 6.212 0.669 C 6.512 0.614 6.799 0.56 7.099 0.532 C 7.195 0.519 7.29 0.519 7.386 0.519 C 7.427 0.519 7.481 0.532 7.522 0.546 C 7.563 0.56 7.59 0.573 7.631 0.601 C 7.659 0.628 7.686 0.642 7.713 0.669 C 7.741 0.696 7.754 0.737 7.768 0.765 C 7.795 0.819 7.809 0.86 7.809 0.915 C 7.836 1.092 7.85 1.283 7.863 1.474 C 7.877 1.693 7.877 1.898 7.863 2.102 C 7.863 2.184 7.863 2.28 7.85 2.362 C 7.836 2.526 7.836 2.689 7.795 2.853 C 7.782 2.894 7.768 2.935 7.754 2.962 C 7.727 3.017 7.7 3.072 7.659 3.126 L 7.577 3.249 L 7.454 3.331 C 7.399 3.358 7.358 3.372 7.304 3.399 C 7.085 3.468 6.867 3.509 6.648 3.563 C 6.198 3.659 5.747 3.741 5.297 3.836 C 5.079 3.877 4.86 3.918 4.642 3.945 C 4.587 3.959 4.519 3.959 4.464 3.959 L 4.328 3.945 C 4.287 3.932 4.259 3.918 4.232 3.904 L 4.164 3.85 L 4.109 3.768 L 4.027 3.317 L 4.027 2.102 C 4.041 1.966 4.055 1.816 4.082 1.679 L 4.123 1.556 C 4.15 1.488 4.177 1.433 4.218 1.379 L 4.314 1.27 L 4.396 1.201 C 4.478 1.147 4.573 1.092 4.683 1.051 L 5.174 0.901 C 5.488 0.805 5.843 0.737 6.212 0.669 Z M 5.87 1.283 L 5.16 1.447 C 5.106 1.461 5.051 1.488 4.997 1.502 L 4.942 1.543 L 4.887 1.584 L 4.846 1.625 L 4.805 1.666 L 4.765 1.706 L 4.737 1.761 C 4.71 1.802 4.696 1.857 4.683 1.898 C 4.642 2.075 4.642 2.253 4.642 2.43 C 4.642 2.621 4.642 2.812 4.669 2.99 L 4.696 3.058 L 4.737 3.126 L 4.792 3.181 L 4.846 3.222 L 4.915 3.249 L 4.983 3.263 L 5.065 3.263 C 5.119 3.263 5.16 3.263 5.201 3.249 C 5.474 3.208 5.747 3.154 6.02 3.099 C 6.239 3.058 6.471 3.003 6.689 2.949 C 6.73 2.935 6.785 2.922 6.826 2.908 L 6.894 2.867 L 6.962 2.826 L 7.017 2.771 L 7.072 2.717 L 7.113 2.648 L 7.14 2.58 L 7.167 2.512 C 7.208 2.307 7.195 2.116 7.195 1.911 C 7.195 1.802 7.195 1.693 7.181 1.597 L 7.167 1.515 C 7.154 1.461 7.14 1.406 7.113 1.352 L 7.085 1.297 L 7.058 1.256 L 7.017 1.215 L 6.99 1.201 L 6.935 1.174 L 6.881 1.16 L 6.771 1.147 C 6.648 1.147 6.539 1.16 6.43 1.174 C 6.239 1.215 6.048 1.256 5.87 1.283 Z M 10.375 0.164 C 10.717 0.137 11.058 0.109 11.399 0.109 C 11.468 0.109 11.549 0.109 11.618 0.109 C 11.7 0.109 11.768 0.123 11.836 0.164 C 11.863 0.177 11.891 0.191 11.904 0.205 C 11.959 0.246 12 0.287 12.027 0.355 C 12.055 0.396 12.068 0.451 12.082 0.491 C 12.109 0.601 12.109 0.724 12.109 0.833 C 12.109 0.983 12.109 1.119 12.096 1.27 C 12.096 1.324 12.082 1.379 12.068 1.433 L 12.041 1.488 C 12.014 1.529 12 1.556 11.973 1.597 L 11.904 1.652 C 11.877 1.666 11.85 1.693 11.809 1.706 C 11.768 1.72 11.713 1.734 11.672 1.747 L 11.304 1.829 L 11.672 2.034 C 11.727 2.075 11.768 2.102 11.809 2.143 L 11.85 2.198 C 11.904 2.28 11.945 2.362 11.986 2.457 C 12.041 2.621 12.068 2.785 12.068 2.949 C 11.85 2.962 11.631 2.962 11.413 2.976 C 11.399 2.853 11.386 2.744 11.345 2.621 L 11.29 2.485 L 11.263 2.416 L 11.222 2.362 L 11.181 2.307 L 11.126 2.266 L 11.058 2.225 C 11.017 2.212 10.976 2.198 10.935 2.198 C 10.853 2.184 10.758 2.198 10.676 2.198 C 10.253 2.225 9.843 2.266 9.42 2.307 L 9.256 2.321 L 9.256 3.126 C 9.038 3.154 8.819 3.181 8.601 3.195 L 8.601 0.328 C 9.201 0.259 9.788 0.205 10.375 0.164 Z M 9.27 1.829 C 9.706 1.788 10.143 1.747 10.58 1.72 C 10.73 1.706 10.881 1.693 11.031 1.679 C 11.072 1.679 11.113 1.666 11.154 1.652 L 11.208 1.638 L 11.263 1.611 L 11.304 1.584 L 11.345 1.543 L 11.372 1.502 L 11.399 1.461 C 11.413 1.42 11.427 1.392 11.427 1.352 C 11.44 1.229 11.44 1.106 11.44 0.983 C 11.44 0.942 11.427 0.901 11.413 0.846 L 11.386 0.805 L 11.358 0.765 L 11.317 0.724 L 11.276 0.696 L 11.235 0.669 L 11.181 0.655 C 11.14 0.642 11.099 0.642 11.058 0.642 C 10.84 0.642 10.621 0.669 10.416 0.683 C 10.034 0.71 9.666 0.751 9.283 0.778 L 9.27 1.829 Z M 13.911 2.498 C 14.157 2.498 14.403 2.498 14.662 2.498 C 14.826 2.498 15.003 2.498 15.181 2.485 C 15.222 2.485 15.249 2.471 15.29 2.471 C 15.331 2.457 15.358 2.444 15.386 2.43 L 15.427 2.403 L 15.454 2.362 L 15.481 2.321 L 15.495 2.28 L 15.509 2.184 L 15.509 2.048 L 15.481 1.898 L 15.468 1.857 L 15.454 1.816 L 15.427 1.775 L 15.386 1.747 L 15.345 1.72 L 15.249 1.693 L 15.085 1.666 L 14.881 1.666 L 13.502 1.666 C 13.365 1.666 13.229 1.666 13.106 1.638 C 13.065 1.625 13.038 1.625 13.01 1.611 L 12.969 1.584 L 12.928 1.556 L 12.901 1.529 L 12.874 1.488 L 12.846 1.447 C 12.819 1.392 12.792 1.338 12.778 1.283 C 12.751 1.133 12.751 0.969 12.751 0.819 C 12.751 0.628 12.765 0.437 12.846 0.259 C 12.86 0.232 12.887 0.205 12.901 0.177 C 12.997 0.096 13.119 0.055 13.242 0.027 C 13.365 0 13.502 0 13.625 0 C 13.925 0 14.225 0 14.526 0 C 15.017 0 15.522 0.014 16.014 0.027 L 16.014 0.464 C 15.358 0.451 14.703 0.437 14.048 0.437 C 13.898 0.437 13.747 0.437 13.597 0.451 C 13.57 0.451 13.529 0.464 13.502 0.464 L 13.447 0.491 L 13.406 0.532 L 13.379 0.587 L 13.365 0.642 L 13.352 0.737 C 13.352 0.819 13.352 0.887 13.352 0.969 L 13.365 1.024 L 13.379 1.078 L 13.42 1.133 L 13.488 1.174 L 13.556 1.188 C 14.239 1.201 14.935 1.215 15.618 1.242 L 15.7 1.256 C 15.809 1.283 15.918 1.324 16 1.406 C 16.041 1.447 16.068 1.488 16.082 1.529 C 16.15 1.679 16.164 1.857 16.164 2.02 C 16.164 2.212 16.164 2.403 16.109 2.58 C 16.096 2.608 16.096 2.635 16.082 2.662 L 16.041 2.717 C 16.014 2.758 15.986 2.785 15.945 2.812 C 15.877 2.853 15.809 2.894 15.741 2.908 C 15.631 2.935 15.509 2.935 15.399 2.949 C 15.058 2.962 14.73 2.962 14.389 2.962 C 13.857 2.962 13.324 2.976 12.805 2.976 C 12.805 2.826 12.805 2.662 12.805 2.512 C 13.16 2.498 13.515 2.498 13.87 2.498 L 13.911 2.498 L 13.911 2.498 L 13.911 2.498 Z M 18.43 3.099 C 18.157 3.072 17.87 3.058 17.597 3.017 C 17.474 3.003 17.352 2.976 17.242 2.935 C 17.188 2.908 17.133 2.894 17.079 2.853 C 17.038 2.826 17.01 2.799 16.969 2.771 C 16.942 2.744 16.915 2.703 16.887 2.676 C 16.86 2.635 16.846 2.594 16.833 2.553 C 16.792 2.403 16.778 2.239 16.778 2.075 C 16.765 1.679 16.765 1.297 16.778 0.901 L 16.778 0.805 C 16.792 0.628 16.805 0.451 16.915 0.3 C 16.956 0.259 16.983 0.218 17.038 0.191 C 17.174 0.123 17.338 0.096 17.488 0.082 C 17.652 0.068 17.802 0.068 17.966 0.082 C 18.28 0.096 18.608 0.109 18.922 0.137 C 19.386 0.177 19.836 0.218 20.3 0.273 L 20.3 0.792 C 19.686 0.737 19.085 0.683 18.471 0.642 C 18.28 0.628 18.075 0.614 17.87 0.628 L 17.775 0.642 L 17.706 0.655 L 17.652 0.683 L 17.597 0.724 L 17.543 0.778 L 17.502 0.833 L 17.474 0.901 C 17.461 0.942 17.447 0.983 17.447 1.024 C 17.42 1.215 17.406 1.42 17.42 1.625 C 17.42 1.788 17.42 1.952 17.447 2.116 C 17.461 2.157 17.461 2.198 17.474 2.239 L 17.502 2.307 L 17.543 2.362 L 17.597 2.416 L 17.652 2.457 L 17.706 2.485 L 17.775 2.512 C 17.829 2.526 17.884 2.539 17.939 2.539 C 18.116 2.567 18.307 2.58 18.485 2.594 C 19.099 2.648 19.727 2.703 20.341 2.771 C 20.341 2.935 20.341 3.085 20.341 3.249 L 20.341 3.304 C 19.959 3.263 19.563 3.222 19.181 3.195 C 18.949 3.14 18.689 3.126 18.43 3.099 Z M 22.608 1.802 C 23.113 1.898 23.618 1.993 24.123 2.089 L 24.123 0.928 C 24.355 0.983 24.587 1.038 24.833 1.078 L 24.833 4.068 C 24.601 4.014 24.369 3.959 24.123 3.904 L 24.123 2.73 C 23.713 2.648 23.317 2.567 22.908 2.485 C 22.539 2.416 22.157 2.348 21.788 2.28 L 21.788 3.44 C 21.556 3.399 21.324 3.372 21.079 3.331 L 21.079 0.423 C 21.311 0.451 21.556 0.478 21.788 0.519 L 21.788 1.666 C 22.061 1.706 22.334 1.747 22.608 1.802 Z M 27.973 1.993 C 28.218 2.075 28.464 2.157 28.724 2.239 L 28.724 2.73 C 28 2.485 27.263 2.253 26.526 2.02 L 26.28 1.952 L 26.28 2.703 C 26.812 2.867 27.358 3.031 27.891 3.208 C 28.123 3.29 28.369 3.358 28.601 3.44 L 28.601 3.877 C 27.918 3.645 27.222 3.427 26.526 3.222 L 26.28 3.154 L 26.28 3.945 C 26.799 4.096 27.317 4.259 27.823 4.423 C 28.123 4.519 28.423 4.628 28.737 4.724 L 28.737 5.229 C 27.754 4.901 26.758 4.601 25.747 4.314 L 25.638 4.287 L 25.638 1.283 C 26.416 1.502 27.195 1.747 27.973 1.993 Z" fill="rgb(0, 0, 0)" height="5.447098838247058px" id="a9jG9r0FO" transform="translate(1.133 1.125)" width="28.737204525657887px"/><path d="M 0.683 4 C 0.246 2.539 0.014 1.174 0 0 L 9.147 0 C 9.174 1.543 9.816 2.962 10.826 4 L 0.683 4 Z" fill="rgb(0, 0, 0)" height="4px" id="SSkE5B2hq" transform="translate(0.41 21.084)" width="10.825938566552903px"/><path d="M 0 3.036 L 0.177 2.968 C 5.283 1.084 10.375 0.101 15.481 0.006 C 20.587 -0.076 25.679 0.729 30.785 2.449 L 30.976 2.518 L 30.976 2.709 C 30.935 8.838 30.894 14.968 30.853 21.098 C 30.84 24.265 29.174 28.716 26.034 32.606 C 23.509 35.746 20.014 38.531 15.645 40.006 L 15.495 40.006 C 11.085 38.873 7.604 36.197 5.065 33.071 C 1.816 29.043 0.15 24.238 0.137 20.975 L 0.137 20.975 L 0.137 20.975 L 0.137 20.975 C 0.109 18.012 0.096 15.05 0.068 12.101 L 0 3.036 Z M 5.952 33.316 L 15.235 33.316 L 15.235 29.589 L 3.331 29.589 C 3.29 29.521 3.249 29.453 3.222 29.385 C 3.863 30.531 4.614 31.664 5.474 32.743 C 5.638 32.934 5.788 33.125 5.952 33.316 Z M 15.249 33.78 L 6.375 33.78 C 8.669 36.292 11.631 38.381 15.249 39.391 L 15.249 33.78 Z M 6.348 33.753 C 6.321 33.726 6.294 33.698 6.28 33.671 C 6.294 33.698 6.321 33.726 6.348 33.753 Z M 6.184 33.576 C 6.171 33.562 6.171 33.562 6.171 33.548 C 6.171 33.562 6.184 33.576 6.184 33.576 Z M 3.072 29.111 L 15.249 29.111 L 15.249 26.914 C 15.345 26.914 15.44 26.914 15.536 26.914 C 15.604 26.914 15.659 26.914 15.727 26.914 L 15.727 39.405 C 15.713 39.405 15.7 39.419 15.7 39.419 C 19.85 37.972 23.181 35.296 25.611 32.279 C 28.628 28.538 30.239 24.279 30.307 21.221 C 30.307 21.234 30.307 21.234 30.307 21.248 L 21.529 21.248 C 21.529 21.152 21.543 21.057 21.543 20.961 L 21.543 20.77 L 30.321 20.77 C 30.334 19.46 30.334 18.149 30.348 16.852 L 21.543 16.852 L 21.543 16.388 L 30.348 16.388 C 30.362 15.323 30.362 14.272 30.375 13.221 L 21.543 13.221 L 21.543 12.757 L 21.474 12.757 L 21.474 12.743 L 30.375 12.743 C 30.389 11.46 30.389 10.19 30.403 8.907 L 15.59 8.907 L 15.59 12.757 L 15.113 12.757 L 15.113 5.016 C 10.253 5.098 5.379 6.067 0.491 7.965 L 0.478 7.473 C 5.502 5.535 10.526 4.579 15.536 4.538 C 20.505 4.497 25.461 5.357 30.403 7.064 C 30.403 7.228 30.403 7.391 30.403 7.555 C 30.416 5.999 30.43 4.443 30.43 2.9 C 25.447 1.248 20.464 0.47 15.495 0.552 C 10.444 0.634 5.406 1.603 0.369 3.473 L 0.614 12.101 C 0.642 14.995 0.655 17.89 0.683 20.797 C 0.683 20.797 0.683 20.797 0.683 20.784 L 9.57 20.784 L 9.57 20.975 C 9.57 21.071 9.57 21.166 9.584 21.262 L 0.669 21.262 L 0.669 21.262 C 0.696 22.354 0.928 23.623 1.324 24.961 C 1.324 24.948 1.311 24.934 1.311 24.92 L 11.058 24.92 C 11.14 25.016 11.222 25.111 11.317 25.193 L 11.618 25.398 L 1.461 25.398 C 1.857 26.6 2.389 27.855 3.072 29.111 Z M 3.208 29.371 C 3.208 29.371 3.208 29.357 3.195 29.357 C 3.208 29.357 3.208 29.371 3.208 29.371 Z M 3.195 29.344 C 3.181 29.33 3.181 29.316 3.167 29.303 C 3.181 29.316 3.181 29.33 3.195 29.344 Z M 3.113 29.207 C 3.113 29.193 3.113 29.193 3.113 29.207 C 3.113 29.193 3.113 29.193 3.113 29.207 Z M 1.433 25.303 C 1.42 25.275 1.42 25.248 1.406 25.234 C 1.42 25.262 1.433 25.275 1.433 25.303 Z M 1.379 25.125 C 1.365 25.098 1.365 25.071 1.352 25.043 C 1.365 25.071 1.379 25.098 1.379 25.125 Z M 0.669 21.125 L 0.669 21.125 L 0.669 21.125 Z M 0.669 20.825 L 0.669 20.825 L 0.669 20.825 Z M 30.294 20.879 L 30.294 20.893 L 30.294 20.879 Z M 30.294 20.948 C 30.294 20.961 30.294 20.961 30.294 20.975 C 30.294 20.961 30.294 20.961 30.294 20.948 Z M 30.294 20.975 L 30.294 20.989 C 30.294 20.989 30.294 20.989 30.294 20.975 Z M 30.294 21.057 L 30.294 21.071 C 30.294 21.071 30.294 21.071 30.294 21.057 Z M 30.294 21.084 L 30.294 21.098 L 30.294 21.084 Z M 30.294 21.098 C 30.294 21.098 30.294 21.111 30.294 21.098 C 30.294 21.111 30.294 21.098 30.294 21.098 Z M 30.294 21.057 L 30.294 21.057 L 30.294 21.057 L 30.294 21.057 C 30.294 21.043 30.294 21.043 30.294 21.043 L 30.294 21.043 L 30.294 21.043 L 30.294 21.043 L 30.294 21.043 L 30.294 21.043 L 30.294 21.043 L 30.294 21.057 Z M 30.294 21.016 L 30.294 21.016 C 30.294 21.002 30.294 21.002 30.294 21.002 L 30.294 21.002 L 30.294 21.002 L 30.294 21.016 Z M 30.294 20.811 L 30.294 20.811 C 30.294 20.811 30.294 20.797 30.294 20.811 C 30.294 20.797 30.294 20.797 30.294 20.797 L 30.294 20.797 L 30.294 20.797 L 30.294 20.811 Z M 30.362 12.811 L 30.362 12.811 L 30.362 12.811 Z M 15.59 8.443 L 30.389 8.443 C 30.389 8.524 30.389 8.593 30.389 8.675 C 30.389 8.306 30.389 7.937 30.389 7.569 C 25.461 5.849 20.532 4.989 15.59 5.016 L 15.59 8.443 Z M 30.389 8.675 C 30.389 8.716 30.389 8.743 30.389 8.784 C 30.389 8.743 30.389 8.716 30.389 8.675 Z M 30.389 8.811 L 30.389 8.811 L 30.389 8.811 Z M 30.389 8.825 C 30.389 8.852 30.389 8.879 30.389 8.907 C 30.389 8.879 30.389 8.852 30.389 8.825 Z M 15.672 39.432 L 15.672 39.432 L 15.672 39.432 Z M 15.563 39.46 L 15.563 39.46 L 15.563 39.46 Z M 15.563 39.46 C 15.549 39.46 15.549 39.46 15.536 39.473 C 15.549 39.473 15.549 39.473 15.563 39.46 Z M 15.372 39.432 C 15.331 39.419 15.304 39.419 15.263 39.405 C 15.304 39.405 15.345 39.419 15.372 39.432 Z M 15.672 39.419 C 15.686 39.419 15.686 39.419 15.672 39.419 C 15.686 39.419 15.686 39.419 15.672 39.419 L 15.672 39.419 Z" fill="rgb(0, 0, 0)" height="40.005668098194505px" id="bDZvpQ2TL" width="30.97610921501706px"/><path d="M 1.452 3.984 C 1.712 3.82 1.985 3.657 2.258 3.52 C 2.217 3.097 2.176 2.442 2.285 2.087 C 2.49 1.431 3.09 0.899 3.8 1.022 C 3.841 1.036 3.869 1.076 3.841 1.09 C 3.445 1.295 3.131 1.609 2.954 2.046 C 2.899 2.169 2.708 3.042 2.995 3.111 C 3.022 3.124 3.05 3.124 3.09 3.124 C 3.609 2.906 4.142 2.715 4.688 2.551 C 4.688 2.128 4.701 1.541 4.852 1.227 C 5.125 0.612 5.807 0.162 6.544 0.38 C 6.585 0.394 6.613 0.448 6.585 0.462 C 6.149 0.612 5.794 0.872 5.561 1.281 C 5.493 1.404 5.207 2.237 5.507 2.346 L 5.521 2.346 C 6.026 2.237 6.544 2.141 7.104 2.073 C 7.172 1.65 7.282 1.104 7.473 0.817 C 7.882 0.216 8.701 -0.193 9.466 0.094 C 9.507 0.107 9.534 0.162 9.493 0.175 C 8.988 0.298 8.551 0.53 8.237 0.926 C 8.155 1.036 7.732 1.8 7.978 1.977 C 8.005 1.977 8.032 1.977 8.06 1.964 C 8.497 1.923 9.002 1.909 9.48 1.937 C 9.602 1.677 9.725 1.445 9.862 1.295 C 10.34 0.803 11.391 0.626 11.705 1.049 C 11.732 1.076 11.746 1.131 11.705 1.131 C 11.254 1.145 10.79 1.213 10.449 1.527 C 10.394 1.582 10.203 1.773 10.094 1.991 C 10.817 2.114 11.432 2.36 11.623 2.824 C 11.691 2.974 11.732 3.111 11.705 3.274 C 11.705 3.315 11.609 3.288 11.582 3.247 C 10.667 2.401 9.207 2.305 7.254 2.646 C 5.275 2.988 3.623 3.575 1.848 4.421 C 2.558 5.227 1.439 5.841 1.07 4.995 C 0.21 6.018 -0.582 4.53 0.592 4.353 C -0.077 3.315 1.275 3.274 1.452 3.984 Z" fill="rgb(0, 0, 0)" height="5.401209621875836px" id="EBewdD6en" transform="translate(1.155 6.602)" width="11.73067943072488px"/><path d="M 1.273 3.78 C 1.505 3.602 1.806 3.452 2.051 3.302 C 1.806 2.906 1.656 2.333 1.751 1.964 C 1.915 1.309 2.324 0.995 2.83 1.022 C 2.871 1.022 2.898 1.077 2.871 1.09 C 2.516 1.323 2.461 1.623 2.352 2.073 C 2.297 2.319 2.434 2.729 2.611 2.879 C 3.062 2.633 3.048 2.674 3.526 2.497 C 3.389 2.073 3.417 1.5 3.594 1.145 C 3.867 0.572 4.318 0.353 4.768 0.449 C 4.809 0.462 4.836 0.503 4.795 0.517 C 4.44 0.667 3.717 1.241 4.195 2.319 C 4.632 2.169 4.659 2.142 5.219 2.019 C 5.26 1.596 5.273 1.09 5.437 0.79 C 5.778 0.176 6.584 -0.111 6.952 0.039 C 6.993 0.053 7.021 0.108 6.98 0.121 C 6.775 0.258 6.502 0.367 6.229 0.776 C 6.079 0.995 5.819 1.5 5.888 1.841 C 6.283 1.787 6.802 1.759 7.253 1.773 C 7.348 1.514 7.539 1.2 7.662 1.05 C 7.744 0.954 7.853 0.872 7.963 0.831 L 7.963 2.36 C 7.212 2.319 6.379 2.401 5.587 2.592 C 3.799 3.015 3.335 3.343 1.737 4.203 C 2.693 4.804 1.765 5.718 1.178 4.817 C 0.14 6.005 -0.529 4.476 0.55 4.244 C -0.269 3.247 1.068 2.715 1.273 3.78 Z" fill="rgb(0, 0, 0)" height="5.264428361944624px" id="jNb4cmBgM" transform="translate(1.58 14.97)" width="7.962674355719841px"/><path d="M 1.312 3.433 C 1.585 3.269 1.954 3.147 2.227 3.01 C 2.2 2.587 2.145 2.205 2.268 1.85 C 2.486 1.208 2.828 0.88 3.374 0.935 C 3.415 0.949 3.442 0.99 3.415 1.017 C 3.019 1.222 3.114 1.495 2.937 1.918 C 2.882 2.041 2.746 2.56 3.032 2.641 C 3.06 2.655 3.087 2.655 3.128 2.655 C 3.647 2.45 3.456 2.464 3.988 2.327 C 4.002 1.918 4.029 1.358 4.165 1.058 C 4.452 0.471 4.985 0.184 5.476 0.307 C 5.517 0.321 5.599 0.416 5.558 0.43 C 5.162 0.553 4.479 1.358 4.766 1.986 C 5.107 1.932 5.34 1.822 5.954 1.74 C 6.036 1.317 6.172 0.894 6.377 0.607 C 6.8 0.02 7.456 -0.103 7.838 0.075 C 7.879 0.089 7.933 0.198 7.892 0.211 C 7.387 0.321 7.374 0.266 7.046 0.662 C 6.869 0.867 6.514 1.426 6.773 1.686 C 7.21 1.658 7.51 1.604 7.988 1.645 C 8.111 1.399 8.206 1.058 8.343 0.921 C 8.821 0.43 9.654 0.389 9.927 0.717 C 9.954 0.744 9.968 0.798 9.927 0.798 C 9.476 0.812 9.312 0.935 8.957 1.249 C 8.916 1.276 8.834 1.385 8.739 1.522 L 8.479 1.522 L 8.479 2.368 C 7.742 2.3 6.937 2.327 6.186 2.437 C 4.206 2.737 3.483 3.187 1.845 3.979 C 2.541 4.798 1.408 5.372 1.066 4.512 C 0.193 5.522 -0.585 4.007 0.616 3.856 C -0.053 2.778 1.121 2.491 1.312 3.433 Z" fill="rgb(0, 0, 0)" height="4.938936024983377px" id="rExDtHQ8E" transform="translate(1.077 11.248)" width="9.952400426435489px"/><g d="M 11.7 0.287 L 11.7 8.218 C 11.7 11.345 9.147 13.884 5.993 13.884 C 2.853 13.884 0.287 11.345 0.287 8.218 L 0.287 0.287 L 11.7 0.287 M 11.973 0 L 0 0 L 0 8.205 C 0 11.468 2.689 14.157 5.98 14.157 C 9.283 14.157 11.959 11.468 11.959 8.205 L 11.973 0 Z" fill="transparent" height="14.156996587030719px" id="smkjVnTJZ" transform="translate(9.543 12.757)" width="11.9726962457338px"><path d="M 11.7 0.287 L 11.7 8.218 C 11.7 11.345 9.147 13.884 5.993 13.884 C 2.853 13.884 0.287 11.345 0.287 8.218 L 0.287 0.287 L 11.7 0.287 M 11.973 0 L 0 0 L 0 8.205 C 0 11.468 2.689 14.157 5.98 14.157 C 9.283 14.157 11.959 11.468 11.959 8.205 L 11.973 0 Z" fill="rgb(0, 0, 0)" height="14.156996587030719px" id="udaScw1Fe" width="11.9726962457338px"/></g><path d="M 4.386 2.657 C 4.44 2.711 4.563 2.643 4.604 2.588 C 4.7 2.438 4.686 2.247 4.7 2.056 C 4.713 1.851 4.713 1.674 4.645 1.483 C 4.536 1.155 4.386 0.896 4.017 0.841 C 3.976 0.827 3.894 0.909 3.922 0.936 C 4.167 1.196 4.263 1.182 4.331 1.578 C 4.399 1.96 4.358 2.629 4.386 2.657 Z M 1.806 7.421 C 1.86 7.435 1.983 7.271 2.024 7.175 C 2.065 7.093 2.051 6.93 2.051 6.916 C 2.038 6.889 1.901 6.943 1.833 6.943 C 1.765 6.943 1.71 6.93 1.614 6.916 C 1.519 6.902 1.533 6.684 1.519 6.561 C 1.492 6.247 1.478 5.933 1.492 5.619 C 1.492 5.537 1.519 5.428 1.587 5.373 C 1.683 5.319 1.819 5.332 1.928 5.346 C 2.147 5.387 2.352 5.496 2.584 5.537 C 2.707 5.564 2.843 5.551 2.966 5.51 C 3.075 5.483 3.157 5.401 3.253 5.36 C 3.307 5.346 3.376 5.332 3.417 5.36 C 3.594 5.455 3.717 5.633 3.894 5.701 C 4.126 5.769 4.372 5.742 4.618 5.756 C 4.809 5.756 5 5.728 5.191 5.756 C 5.273 5.769 5.41 5.783 5.437 5.878 C 5.464 6.001 5.26 6.111 5.287 6.233 C 5.341 6.425 5.56 6.52 5.655 6.684 C 5.696 6.752 5.683 6.834 5.655 6.902 C 5.628 6.957 5.533 6.971 5.492 7.025 C 5.437 7.107 5.423 7.203 5.369 7.285 C 5.314 7.367 5.232 7.435 5.15 7.503 C 4.973 7.64 4.795 7.776 4.591 7.885 C 4.522 7.926 4.399 7.844 4.372 7.913 C 4.318 8.035 4.263 8.186 4.208 8.268 C 4.154 8.349 4.085 8.363 4.045 8.404 C 4.004 8.459 3.949 8.554 3.976 8.568 C 4.004 8.582 4.263 8.582 4.358 8.568 C 4.454 8.554 4.509 8.541 4.536 8.527 C 4.563 8.5 4.522 8.418 4.495 8.254 C 4.481 8.09 4.932 8.022 5.15 7.899 C 5.382 7.749 5.614 7.585 5.847 7.448 C 5.942 7.394 6.079 7.38 6.161 7.298 C 6.202 7.257 6.188 7.189 6.188 7.134 C 6.188 6.998 6.161 6.861 6.161 6.725 C 6.161 6.657 6.161 6.575 6.215 6.534 C 6.256 6.493 6.338 6.479 6.379 6.506 C 6.461 6.547 6.475 6.67 6.543 6.725 C 6.652 6.807 6.789 6.834 6.911 6.889 C 7.021 6.943 7.212 6.943 7.225 7.053 C 7.253 7.257 7.116 7.448 7.034 7.626 C 6.993 7.721 6.898 7.776 6.843 7.872 C 6.816 7.926 6.816 7.995 6.775 8.035 C 6.666 8.145 6.515 8.213 6.406 8.322 C 6.324 8.404 6.256 8.486 6.215 8.582 C 6.188 8.636 6.174 8.691 6.147 8.745 C 6.106 8.8 6.038 8.814 5.997 8.896 C 5.956 8.977 5.86 9.196 5.942 9.182 C 6.024 9.169 6.502 9.087 6.515 9.032 C 6.529 8.991 6.488 8.868 6.461 8.718 C 6.434 8.568 6.775 8.459 6.939 8.363 C 7.034 8.309 7.171 8.336 7.253 8.268 C 7.307 8.227 7.28 8.131 7.294 8.076 C 7.335 7.981 7.362 7.872 7.444 7.79 C 7.539 7.681 7.703 7.64 7.785 7.53 C 7.867 7.394 7.963 7.23 7.935 7.08 C 7.908 6.957 7.758 6.916 7.676 6.82 C 7.608 6.752 7.539 6.67 7.512 6.575 C 7.471 6.438 7.444 6.302 7.485 6.165 C 7.539 6.001 7.703 5.892 7.799 5.756 C 7.881 5.633 8.004 5.537 8.045 5.401 C 8.085 5.237 8.004 5.059 7.99 4.896 C 7.99 4.868 7.963 4.827 7.99 4.8 C 8.099 4.704 8.222 4.582 8.372 4.554 C 8.509 4.541 8.618 4.677 8.754 4.704 C 8.891 4.718 9.055 4.732 9.191 4.677 C 9.232 4.663 9.246 4.568 9.219 4.527 C 9.123 4.445 8.918 4.472 8.877 4.363 C 8.85 4.268 9.041 4.24 9.096 4.145 C 9.164 4.022 9.219 3.885 9.219 3.735 C 9.219 3.681 9.109 3.681 9.068 3.708 C 9 3.749 9 3.844 8.946 3.899 C 8.905 3.94 8.836 3.954 8.782 3.954 C 8.727 3.954 8.645 3.926 8.618 3.885 C 8.577 3.844 8.55 3.749 8.591 3.721 C 8.7 3.653 8.85 3.681 8.973 3.653 C 9.027 3.64 9.096 3.626 9.123 3.585 C 9.164 3.503 9.164 3.407 9.123 3.326 C 9.109 3.285 9.041 3.285 9 3.298 C 8.946 3.312 8.918 3.394 8.85 3.394 C 8.768 3.394 8.686 3.353 8.632 3.298 C 8.591 3.244 8.577 3.162 8.604 3.107 C 8.645 3.012 8.782 2.984 8.823 2.889 C 8.877 2.766 8.918 2.616 8.891 2.479 C 8.877 2.425 8.768 2.397 8.727 2.438 C 8.659 2.479 8.672 2.575 8.632 2.629 C 8.577 2.711 8.55 2.834 8.468 2.875 C 8.413 2.902 8.318 2.848 8.304 2.779 C 8.277 2.67 8.345 2.561 8.372 2.466 C 8.413 2.356 8.468 2.247 8.536 2.152 C 8.604 2.056 8.741 2.015 8.795 1.906 C 8.836 1.824 8.877 1.715 8.823 1.646 C 8.782 1.592 8.686 1.633 8.632 1.674 C 8.591 1.701 8.604 1.797 8.563 1.824 C 8.44 1.878 8.29 1.838 8.181 1.892 C 8.085 1.947 8.045 2.042 7.99 2.138 C 7.894 2.302 7.881 2.588 7.84 2.616 C 7.799 2.657 7.703 2.643 7.676 2.588 C 7.635 2.52 7.703 2.411 7.649 2.343 C 7.608 2.302 7.498 2.302 7.457 2.343 C 7.403 2.397 7.389 2.479 7.389 2.561 C 7.389 2.684 7.403 2.807 7.457 2.916 C 7.553 3.093 7.703 3.23 7.826 3.394 C 7.949 3.558 8.099 3.708 8.167 3.899 C 8.208 4.022 8.222 4.172 8.167 4.281 C 8.126 4.39 8.017 4.5 7.908 4.5 C 7.758 4.486 7.649 4.322 7.526 4.24 C 7.403 4.158 7.28 4.049 7.143 4.022 C 6.829 3.967 6.502 4.022 6.174 4.022 C 5.888 4.022 5.587 4.063 5.3 4.022 C 5.164 4.008 5.014 3.954 4.918 3.858 C 4.823 3.762 4.754 3.626 4.754 3.503 C 4.741 3.326 4.809 3.162 4.877 2.998 C 4.932 2.889 5.014 2.779 5.123 2.711 C 5.205 2.657 5.341 2.629 5.423 2.657 C 5.519 2.698 5.778 3.053 5.833 3.039 C 5.888 3.025 5.847 2.711 5.819 2.616 C 5.765 2.466 5.601 2.384 5.56 2.233 C 5.546 2.192 5.614 2.138 5.655 2.138 C 5.737 2.138 5.833 2.192 5.901 2.261 C 5.942 2.288 6.12 2.547 6.161 2.534 C 6.202 2.52 6.133 2.165 6.092 2.056 C 6.024 1.906 5.806 1.797 5.792 1.756 C 5.778 1.728 5.792 1.701 5.833 1.687 C 5.915 1.687 5.997 1.728 6.079 1.756 C 6.147 1.783 6.256 1.865 6.297 1.851 C 6.338 1.838 6.297 1.715 6.256 1.66 C 6.106 1.483 5.901 1.373 5.751 1.21 C 5.669 1.128 5.587 1.018 5.587 0.896 C 5.587 0.827 5.669 0.759 5.737 0.732 C 5.86 0.677 6.024 0.65 6.133 0.582 C 6.174 0.554 6.147 0.527 6.106 0.513 C 5.928 0.445 5.737 0.418 5.546 0.418 C 5.437 0.418 5.341 0.486 5.232 0.513 C 5.164 0.541 5.096 0.582 5.014 0.582 C 4.877 0.582 4.727 0.595 4.632 0.513 C 4.577 0.459 4.645 0.349 4.686 0.268 C 4.727 0.199 4.795 0.158 4.85 0.104 C 4.891 0.063 5.014 0.022 4.973 0.008 C 4.932 -0.005 4.713 -0.005 4.591 0.035 C 4.481 0.063 4.386 0.104 4.304 0.186 C 4.236 0.254 4.249 0.404 4.154 0.445 C 3.99 0.541 3.908 0.513 3.731 0.595 C 3.69 0.622 3.594 0.732 3.553 0.745 C 3.335 0.773 2.898 0.663 2.884 0.704 C 2.857 0.745 3.225 0.95 3.294 1.141 C 3.321 1.223 3.116 1.1 3.034 1.114 C 2.898 1.128 2.761 1.155 2.652 1.21 C 2.543 1.264 2.447 1.36 2.365 1.455 C 2.283 1.537 2.242 1.646 2.147 1.715 C 2.106 1.742 2.01 1.701 1.983 1.742 C 1.942 1.797 1.928 1.919 1.997 1.919 L 2.379 1.947 C 2.447 1.947 2.311 2.097 2.352 2.165 C 2.379 2.206 2.475 2.192 2.515 2.165 C 2.57 2.138 2.597 2.056 2.666 2.015 C 2.734 1.974 2.802 1.919 2.884 1.919 C 2.98 1.919 3.103 1.96 3.143 2.042 C 3.184 2.124 3.089 2.22 3.075 2.302 C 3.062 2.397 3.116 2.52 3.048 2.588 C 2.843 2.779 2.775 2.616 2.475 2.998 C 2.229 3.298 2.338 3.134 2.256 3.53 C 2.242 3.612 2.229 3.694 2.161 3.749 C 2.092 3.79 1.983 3.817 1.915 3.776 C 1.778 3.708 1.696 3.571 1.601 3.435 C 1.546 3.367 1.574 3.244 1.505 3.189 C 1.41 3.134 1.273 3.134 1.164 3.162 C 1.082 3.189 1.041 3.285 1 3.353 C 0.891 3.503 0.809 3.681 0.713 3.831 C 0.632 3.954 0.522 4.063 0.454 4.186 C 0.413 4.254 0.44 4.336 0.399 4.404 C 0.318 4.595 0.249 4.773 0.154 4.95 C 0.113 5.018 0.031 5.059 0.004 5.141 C -0.01 5.223 0.017 5.401 0.058 5.401 C 0.099 5.401 0.236 5.305 0.318 5.25 C 0.413 5.21 0.591 5.155 0.604 5.128 C 0.618 5.1 0.509 5.005 0.454 4.936 C 0.358 4.814 0.563 4.636 0.645 4.5 C 0.672 4.445 0.741 4.431 0.768 4.377 C 0.823 4.268 0.836 4.131 0.891 4.022 C 0.959 3.872 1.041 3.721 1.15 3.612 C 1.205 3.558 1.3 3.517 1.369 3.571 C 1.478 3.64 1.492 3.79 1.56 3.913 C 1.614 3.995 1.683 4.076 1.71 4.172 C 1.737 4.254 1.655 4.363 1.71 4.431 C 1.778 4.513 1.915 4.541 2.024 4.554 L 2.27 4.582 L 2.297 4.923 C 2.311 5.046 2.038 4.95 1.915 4.977 C 1.806 5.005 1.696 5.046 1.574 5.073 C 1.464 5.1 1.26 5.005 1.232 5.128 C 1.137 5.605 1.26 6.083 1.287 6.561 C 1.287 6.684 1.219 6.889 1.341 6.943 L 1.574 7.039 C 1.614 7.134 1.642 7.257 1.696 7.326 C 1.683 7.394 1.751 7.407 1.806 7.421 Z" fill="rgb(0, 0, 0)" height="9.182838308095043px" id="XuGCB8glh" transform="translate(10.891 15.916)" width="9.232773350766266px"/><path d="M 9.229 0.191 C 9.229 0.096 9.16 0.055 9.038 0.055 L 8.573 0.055 C 8.451 0.055 8.382 0.096 8.382 0.191 C 8.382 0.287 8.451 0.328 8.573 0.328 L 8.669 0.328 L 8.669 1.188 C 8.669 1.338 8.71 1.406 8.805 1.406 C 8.901 1.406 8.942 1.338 8.942 1.188 L 8.942 0.328 L 9.038 0.328 C 9.174 0.328 9.229 0.287 9.229 0.191 Z M 7.904 0.491 C 7.904 0.601 7.85 0.655 7.741 0.655 L 7.618 0.655 L 7.618 0.328 L 7.741 0.328 C 7.85 0.328 7.904 0.382 7.904 0.491 Z M 8.205 1.27 C 8.205 1.215 8.177 1.16 8.123 1.092 L 7.904 0.819 C 8.082 0.778 8.191 0.642 8.191 0.451 C 8.191 0.205 8.027 0.027 7.741 0.027 L 7.536 0.027 C 7.386 0.027 7.345 0.096 7.345 0.246 L 7.345 1.174 C 7.345 1.324 7.386 1.392 7.481 1.392 C 7.577 1.392 7.618 1.324 7.618 1.174 L 7.618 0.846 L 7.932 1.297 C 7.986 1.365 8.027 1.406 8.082 1.406 C 8.15 1.406 8.205 1.352 8.205 1.27 Z M 6.758 0.846 L 6.471 0.846 L 6.621 0.355 L 6.758 0.846 Z M 7.14 1.256 C 7.14 1.229 7.14 1.201 7.126 1.16 L 6.826 0.205 C 6.785 0.096 6.717 0.027 6.621 0.027 C 6.526 0.027 6.457 0.096 6.416 0.218 L 6.102 1.16 C 6.089 1.188 6.089 1.215 6.089 1.242 C 6.089 1.324 6.143 1.392 6.212 1.392 C 6.266 1.392 6.321 1.352 6.348 1.256 L 6.389 1.119 L 6.826 1.119 L 6.853 1.242 C 6.881 1.338 6.922 1.392 6.99 1.392 C 7.085 1.406 7.14 1.352 7.14 1.256 Z M 5.898 0.778 C 5.898 0.628 5.843 0.573 5.734 0.573 L 5.556 0.573 C 5.447 0.573 5.392 0.614 5.392 0.71 C 5.392 0.805 5.447 0.846 5.556 0.846 L 5.638 0.846 C 5.638 1.01 5.556 1.119 5.42 1.119 C 5.27 1.119 5.16 0.956 5.16 0.696 C 5.16 0.437 5.27 0.287 5.42 0.287 C 5.57 0.287 5.638 0.41 5.706 0.41 C 5.761 0.41 5.816 0.341 5.816 0.273 C 5.816 0.137 5.666 0 5.433 0 C 5.106 0 4.901 0.273 4.901 0.71 C 4.901 1.133 5.106 1.42 5.406 1.42 C 5.706 1.42 5.898 1.147 5.898 0.778 Z M 4.833 0.191 C 4.833 0.096 4.765 0.055 4.642 0.055 L 4.177 0.055 C 4.055 0.055 3.986 0.096 3.986 0.191 C 3.986 0.287 4.055 0.328 4.177 0.328 L 4.273 0.328 L 4.273 1.188 C 4.273 1.338 4.314 1.406 4.41 1.406 C 4.505 1.406 4.546 1.338 4.546 1.188 L 4.546 0.328 L 4.642 0.328 C 4.765 0.328 4.833 0.287 4.833 0.191 Z M 3.932 0.191 C 3.932 0.096 3.863 0.055 3.741 0.055 L 3.276 0.055 C 3.154 0.055 3.085 0.096 3.085 0.191 C 3.085 0.287 3.154 0.328 3.276 0.328 L 3.372 0.328 L 3.372 1.188 C 3.372 1.338 3.413 1.406 3.509 1.406 C 3.604 1.406 3.645 1.338 3.645 1.188 L 3.645 0.328 L 3.741 0.328 C 3.863 0.328 3.932 0.287 3.932 0.191 Z M 2.922 0.805 L 2.922 0.246 C 2.922 0.096 2.881 0.027 2.785 0.027 C 2.689 0.027 2.648 0.096 2.648 0.246 L 2.648 0.778 C 2.648 1.01 2.567 1.133 2.416 1.133 C 2.266 1.133 2.184 1.01 2.184 0.778 L 2.184 0.246 C 2.184 0.096 2.143 0.027 2.048 0.027 C 1.952 0.027 1.911 0.096 1.911 0.246 L 1.911 0.805 C 1.911 1.201 2.102 1.42 2.416 1.42 C 2.717 1.42 2.922 1.201 2.922 0.805 Z M 1.802 0.191 C 1.802 0.096 1.734 0.055 1.611 0.055 L 1.147 0.055 C 1.024 0.055 0.956 0.096 0.956 0.191 C 0.956 0.287 1.024 0.328 1.147 0.328 L 1.242 0.328 L 1.242 1.188 C 1.242 1.338 1.283 1.406 1.379 1.406 C 1.474 1.406 1.515 1.338 1.515 1.188 L 1.515 0.328 L 1.611 0.328 C 1.734 0.328 1.802 0.287 1.802 0.191 Z M 0.86 0.969 C 0.86 0.764 0.751 0.642 0.532 0.56 C 0.396 0.505 0.314 0.491 0.314 0.396 C 0.314 0.328 0.369 0.287 0.451 0.287 C 0.519 0.287 0.601 0.328 0.655 0.328 C 0.737 0.328 0.778 0.273 0.778 0.205 C 0.778 0.096 0.655 0.014 0.451 0.014 C 0.191 0.014 0.027 0.191 0.027 0.437 C 0.027 0.642 0.137 0.737 0.355 0.819 C 0.478 0.86 0.56 0.901 0.56 1.01 C 0.56 1.092 0.505 1.147 0.423 1.147 C 0.3 1.147 0.205 1.078 0.137 1.078 C 0.055 1.078 0 1.133 0 1.215 C 0 1.324 0.164 1.433 0.382 1.433 C 0.683 1.42 0.86 1.229 0.86 0.969 Z" fill="rgb(0, 0, 0)" height="1.4334442086594095px" id="e0L7rtaWz" transform="translate(10.99 14.04)" width="9.228671936451804px"/></g></svg>