<svg display="block" role="presentation" viewBox="0 0 40 40" xmlns="http://www.w3.org/2000/svg"><g d="M 25.122 20.467 C 25.833 20.378 30.778 19.778 34.267 18.033 C 38.044 16.144 39.867 13.089 39.867 10.378 C 39.867 4.522 31.667 0 19.922 0 C 8.178 0 0 4.489 0 10.378 C 0 13.122 1.8 16.211 5.6 18.033 C 9.111 19.722 14.089 20.344 14.833 20.467 L 19.922 5.578 L 25.122 20.467 Z M 19.922 3.256 C 19.922 3.256 12.178 13.578 11.433 14.511 C 8.578 14.256 3.633 12.367 3.633 9.133 C 3.633 5.022 10.833 1.189 19.922 1.189 C 29.467 1.189 36.211 5.022 36.211 9.133 C 36.211 12.389 31.267 14.244 28.411 14.478 C 27.633 13.489 19.922 3.256 19.922 3.256" fill="transparent" height="20.46666666666667px" id="tUIhiG3cm" transform="translate(0.067 9.811)" width="39.86666666666665px"><g d="M 25.122 20.467 C 25.833 20.378 30.778 19.778 34.267 18.033 C 38.044 16.144 39.867 13.089 39.867 10.378 C 39.867 4.522 31.667 0 19.922 0 C 8.178 0 0 4.489 0 10.378 C 0 13.122 1.8 16.211 5.6 18.033 C 9.111 19.722 14.089 20.344 14.833 20.467 L 19.922 5.578 L 25.122 20.467 Z M 19.922 3.256 C 19.922 3.256 12.178 13.578 11.433 14.511 C 8.578 14.256 3.633 12.367 3.633 9.133 C 3.633 5.022 10.833 1.189 19.922 1.189 C 29.467 1.189 36.211 5.022 36.211 9.133 C 36.211 12.389 31.267 14.244 28.411 14.478 C 27.633 13.489 19.922 3.256 19.922 3.256" fill="transparent" height="20.46666666666667px" id="dnZUEQWKB" width="39.86666666666665px"><g d="M 25.122 20.467 C 25.833 20.378 30.778 19.778 34.267 18.033 C 38.044 16.144 39.867 13.089 39.867 10.378 C 39.867 4.522 31.667 0 19.922 0 C 8.178 0 0 4.489 0 10.378 C 0 13.122 1.8 16.211 5.6 18.033 C 9.111 19.722 14.089 20.344 14.833 20.467 L 19.922 5.578 L 25.122 20.467 Z M 19.922 3.256 C 19.922 3.256 12.178 13.578 11.433 14.511 C 8.578 14.256 3.633 12.367 3.633 9.133 C 3.633 5.022 10.833 1.189 19.922 1.189 C 29.467 1.189 36.211 5.022 36.211 9.133 C 36.211 12.389 31.267 14.244 28.411 14.478 C 27.633 13.489 19.922 3.256 19.922 3.256" fill="transparent" height="20.46666666666667px" id="Orz4BhoDB" width="39.86666666666665px"><path d="M 25.122 20.467 C 25.833 20.378 30.778 19.778 34.267 18.033 C 38.044 16.144 39.867 13.089 39.867 10.378 C 39.867 4.522 31.667 0 19.922 0 C 8.178 0 0 4.489 0 10.378 C 0 13.122 1.8 16.211 5.6 18.033 C 9.111 19.722 14.089 20.344 14.833 20.467 L 19.922 5.578 L 25.122 20.467 Z M 19.922 3.256 C 19.922 3.256 12.178 13.578 11.433 14.511 C 8.578 14.256 3.633 12.367 3.633 9.133 C 3.633 5.022 10.833 1.189 19.922 1.189 C 29.467 1.189 36.211 5.022 36.211 9.133 C 36.211 12.389 31.267 14.244 28.411 14.478 C 27.633 13.489 19.922 3.256 19.922 3.256" fill="rgb(0, 0, 0)" height="20.46666666666667px" id="fQjHEU5AG" width="39.86666666666665px"/></g></g></g></svg>