<svg display="block" role="presentation" viewBox="0 0 40 40" xmlns="http://www.w3.org/2000/svg"><g d="" fill="transparent" height="0px" id="ri4zaklSz" transform="translate(0.15 0)" width="0px"/><g d="M 28.121 3.452 L 28.06 3.057 L 27.695 2.89 C 25.839 2.008 20.82 0 14.22 0 C 7.984 0 3.208 1.795 0.897 2.875 L 0.532 3.042 L 0.471 3.437 C 0.06 6.068 -0.67 13.065 1.368 20.958 C 3.436 28.958 7.649 35.194 13.855 39.529 L 14.281 39.833 L 14.706 39.529 C 20.912 35.209 25.125 28.958 27.193 20.958 C 29.262 13.08 28.532 6.084 28.121 3.452 Z M 25.748 20.593 C 23.817 28.046 19.969 33.886 14.296 37.992 C 8.623 33.886 4.775 28.03 2.843 20.593 C 0.957 13.338 1.505 6.89 1.916 4.091 C 4.212 3.057 8.592 1.536 14.22 1.536 C 20.121 1.536 24.684 3.209 26.691 4.091 C 27.087 6.89 27.634 13.338 25.748 20.593 Z M 3.68 7.285 L 4.577 6.951 L 4.699 7.27 L 3.421 7.757 L 2.767 5.947 L 3.132 5.81 Z M 9.246 6.16 L 8.881 6.236 L 8.577 4.654 L 8.562 4.654 L 8.516 6.297 L 8.136 6.373 L 7.482 4.867 L 7.482 4.867 L 7.786 6.449 L 7.421 6.51 L 7.056 4.624 L 7.634 4.517 L 8.258 5.932 L 8.258 5.932 L 8.303 4.38 L 8.881 4.274 Z M 17.839 4.913 L 18.646 4.989 L 18.539 6.023 L 18.265 5.992 L 18.25 5.749 C 18.144 5.856 17.976 6.008 17.627 5.977 C 17.17 5.932 16.775 5.551 16.851 4.882 C 16.912 4.365 17.246 3.894 17.885 3.97 C 18.478 4.03 18.661 4.441 18.661 4.7 L 18.265 4.654 C 18.265 4.578 18.159 4.319 17.885 4.289 C 17.596 4.259 17.322 4.426 17.262 4.928 C 17.201 5.445 17.474 5.612 17.748 5.643 C 17.839 5.658 18.128 5.643 18.25 5.262 L 17.809 5.217 L 17.839 4.913 Z M 19.741 5.354 L 19.589 6.205 L 19.193 6.129 L 19.543 4.228 L 19.938 4.304 L 19.801 5.019 L 20.547 5.156 L 20.668 4.441 L 21.064 4.502 L 20.729 6.403 L 20.334 6.342 L 20.486 5.49 Z M 21.794 6.662 L 21.398 6.57 L 21.855 4.684 L 22.235 4.776 Z M 24.151 5.323 L 24.516 5.43 L 23.954 7.27 L 23.573 7.163 L 23.224 5.612 L 23.224 5.612 L 22.813 6.935 L 22.463 6.814 L 23.026 4.973 L 23.421 5.095 L 23.771 6.601 L 23.771 6.601 Z M 24.973 7.65 L 24.592 7.513 L 25.277 5.703 L 25.657 5.856 Z M 22.265 19.65 C 21.916 19.544 21.52 19.331 21.033 18.814 C 21.064 18.586 21.079 18.433 21.064 18.297 C 21.049 18.16 21.003 18.068 20.942 17.932 C 20.881 17.795 20.805 17.673 20.76 17.475 C 20.714 17.278 20.684 17.004 20.729 16.563 C 20.775 16.122 20.76 15.407 20.577 14.631 C 20.395 13.856 20.03 13.019 19.406 12.319 C 19.573 11.802 19.665 11.437 19.68 11.148 C 19.695 10.859 19.649 10.646 19.528 10.388 C 19.406 10.144 19.102 9.932 18.646 9.795 C 18.189 9.658 17.596 9.582 16.912 9.582 C 16.227 9.582 15.239 9.643 14.433 9.627 C 13.627 9.612 12.973 9.551 12.973 9.338 C 12.973 9.125 13.079 9.034 13.231 8.973 C 13.383 8.913 13.581 8.913 13.733 8.897 C 13.961 8.989 14.296 9.049 14.63 9.065 C 14.965 9.095 15.33 9.095 15.604 9.095 C 15.893 9.095 16.151 9.004 16.44 8.928 C 16.714 8.852 17.018 8.76 17.353 8.76 C 17.064 8.669 16.699 8.532 16.319 8.426 C 15.938 8.319 15.558 8.259 15.239 8.335 C 15.117 8.228 15.041 8.137 14.904 8.106 C 14.767 8.076 14.585 8.076 14.281 8.167 C 13.976 8.243 13.779 8.274 13.627 8.304 C 13.459 8.319 13.338 8.335 13.14 8.38 C 12.942 8.426 12.684 8.456 12.471 8.563 C 12.258 8.669 12.09 8.837 12.09 9.171 C 12.09 9.49 12.212 9.779 12.532 9.977 C 12.866 10.175 13.414 10.297 14.281 10.281 C 15.163 10.266 16.121 10.251 16.912 10.281 C 17.703 10.327 18.326 10.433 18.539 10.677 C 18.752 10.92 18.813 11.087 18.782 11.224 C 18.752 11.361 18.63 11.468 18.478 11.605 C 18.341 11.605 18.113 11.62 17.824 11.605 C 17.551 11.589 17.231 11.529 16.942 11.407 C 16.653 11.27 16.319 11.194 15.969 11.194 C 15.634 11.194 15.284 11.255 15.011 11.422 C 14.722 11.574 14.022 11.924 13.307 12.441 C 12.592 12.973 11.847 13.688 11.512 14.616 C 11.163 15.544 10.995 16.122 10.889 16.532 C 10.782 16.943 10.752 17.156 10.676 17.369 C 10.6 17.582 10.478 17.795 10.372 18.038 C 10.265 18.281 10.174 18.54 10.189 18.844 C 10.189 19.148 10.174 19.513 10.128 19.863 C 10.083 20.213 10.037 20.548 9.992 20.791 C 9.946 21.034 9.87 21.323 9.809 21.658 C 9.748 21.992 9.703 22.342 9.718 22.722 C 9.718 23.103 9.703 23.483 9.642 23.848 C 9.596 24.213 9.505 24.548 9.398 24.837 C 9.292 25.125 9.246 25.369 9.216 25.612 C 9.17 25.84 9.125 26.068 9.003 26.297 C 8.866 26.525 8.699 26.814 8.516 27.087 C 8.334 27.361 8.166 27.62 8.03 27.802 C 7.893 27.97 7.832 28.183 7.878 28.35 C 7.923 28.517 8.06 28.654 8.349 28.684 C 8.638 28.715 8.881 28.654 9.064 28.532 C 9.246 28.411 9.368 28.243 9.398 28.046 C 9.429 27.848 9.429 27.589 9.444 27.316 C 9.459 27.042 9.474 26.768 9.566 26.555 L 9.657 26.327 L 9.748 26.099 C 9.839 25.947 9.9 25.886 9.976 25.84 C 10.037 25.795 10.113 25.749 10.205 25.643 C 10.296 25.536 10.448 25.202 10.57 24.852 C 10.691 24.502 10.798 24.106 10.782 23.833 C 10.782 23.559 10.798 23.346 10.843 23.179 C 10.889 22.996 10.95 22.859 11.026 22.722 C 11.102 22.586 11.147 22.433 11.208 22.312 C 11.284 22.19 11.376 22.114 11.543 22.129 C 11.71 22.144 11.771 22.236 11.786 22.342 C 11.801 22.449 11.801 22.586 11.862 22.707 C 11.923 22.829 11.984 22.951 12.06 23.057 C 12.136 23.163 12.243 23.255 12.41 23.316 C 12.562 23.376 12.684 23.483 12.76 23.62 C 12.82 23.757 12.82 23.909 12.729 24.046 C 12.638 24.183 12.501 24.411 12.395 24.654 C 12.288 24.897 12.212 25.125 12.212 25.278 C 12.212 25.43 12.243 25.658 12.212 25.901 C 12.182 26.144 12.121 26.388 11.923 26.586 C 11.741 26.783 11.589 26.981 11.482 27.148 C 11.376 27.316 11.33 27.468 11.33 27.559 C 11.33 27.65 11.376 27.772 11.467 27.878 C 11.573 27.985 11.725 28.046 11.984 28.046 C 12.227 28.046 12.425 27.985 12.562 27.894 C 12.699 27.802 12.79 27.665 12.851 27.498 C 12.912 27.331 12.897 27.194 12.866 27.087 C 12.836 26.981 12.805 26.89 12.805 26.768 C 12.805 26.646 12.836 26.525 12.881 26.373 C 12.927 26.236 12.973 26.084 12.988 25.947 C 13.003 25.81 13.033 25.643 13.094 25.46 C 13.155 25.278 13.246 25.08 13.398 24.867 C 13.551 24.654 13.627 24.471 13.703 24.304 C 13.779 24.137 13.824 24 13.916 23.863 C 14.007 23.726 14.052 23.665 14.083 23.635 C 14.113 23.62 14.159 23.65 14.25 23.696 C 14.341 23.757 14.372 23.802 14.341 23.878 C 14.326 23.939 14.265 24.03 14.205 24.122 C 14.144 24.213 14.037 24.38 13.916 24.563 C 13.794 24.73 13.672 24.928 13.596 25.049 C 13.52 25.186 13.474 25.354 13.505 25.506 C 13.535 25.658 13.627 25.764 13.839 25.779 C 14.052 25.795 14.22 25.795 14.326 25.764 C 14.448 25.734 14.509 25.658 14.524 25.551 C 14.539 25.43 14.57 25.247 14.63 25.065 C 14.676 24.882 14.737 24.7 14.813 24.578 C 14.889 24.456 14.935 24.35 14.965 24.259 C 14.995 24.167 14.995 24.091 14.995 24.03 C 15.117 24.137 15.208 24.274 15.3 24.411 C 15.376 24.548 15.452 24.684 15.512 24.821 C 15.573 24.958 15.71 25.11 15.954 25.232 C 16.197 25.354 16.547 25.43 17.018 25.414 C 17.49 25.384 17.733 25.369 17.87 25.323 C 18.007 25.278 18.037 25.217 18.083 25.095 C 18.144 24.973 18.265 24.745 18.326 24.517 C 18.387 24.289 18.387 24.046 18.174 23.909 C 18.205 23.711 18.265 23.452 18.341 23.209 C 18.417 22.966 18.539 22.722 18.691 22.555 C 18.843 22.403 19.056 22.236 19.239 22.099 C 19.421 21.962 19.589 21.825 19.634 21.734 C 19.878 21.871 20.121 22.023 20.288 22.266 C 20.471 22.51 20.577 22.814 20.608 23.24 C 20.608 23.468 20.638 23.681 20.684 23.878 C 20.714 24.061 20.76 24.228 20.775 24.335 C 20.79 24.456 20.79 24.578 20.805 24.7 C 20.805 24.837 20.805 24.958 20.836 25.095 C 20.866 25.232 20.942 25.354 21.049 25.43 C 21.155 25.521 21.292 25.567 21.414 25.536 C 21.535 25.521 21.627 25.414 21.703 25.278 C 21.779 25.141 21.824 24.973 21.824 24.852 C 21.824 24.715 21.779 24.624 21.733 24.548 C 21.672 24.471 21.611 24.411 21.551 24.365 C 21.49 24.319 21.459 24.259 21.444 24.183 C 21.429 24.106 21.444 24.015 21.505 23.863 C 21.566 23.711 21.551 23.574 21.505 23.468 C 21.459 23.361 21.398 23.27 21.338 23.209 C 21.277 23.148 21.216 22.996 21.155 22.783 C 21.109 22.57 21.079 22.312 21.079 22.068 C 21.079 21.825 21.064 21.536 20.988 21.278 C 20.912 21.034 20.805 20.821 20.653 20.73 C 21.094 20.7 21.596 20.669 22.037 20.532 C 22.478 20.395 22.874 20.167 23.102 19.772 C 22.904 19.726 22.615 19.757 22.265 19.65 Z M 20.851 20.122 C 20.455 20.03 20.121 19.863 19.954 19.665 C 19.862 19.559 19.741 19.452 19.619 19.376 C 19.482 19.3 19.345 19.24 19.208 19.194 C 19.071 19.163 18.859 19.072 18.63 18.981 C 18.402 18.89 18.189 18.783 18.052 18.722 C 18.022 18.783 17.961 18.859 17.87 18.951 C 17.779 19.042 17.657 19.163 17.505 19.285 C 17.368 19.407 17.338 19.513 17.338 19.589 C 17.353 19.665 17.414 19.741 17.444 19.802 C 17.49 19.863 17.657 20 17.839 20.167 C 18.022 20.319 18.22 20.471 18.281 20.548 C 18.068 20.548 17.916 20.532 17.733 20.471 C 17.551 20.411 17.353 20.304 17.018 20.091 C 16.684 19.878 16.577 19.665 16.577 19.468 C 16.577 19.285 16.668 19.118 16.714 19.057 C 16.76 18.996 16.881 18.89 17.003 18.798 C 17.125 18.707 17.246 18.616 17.292 18.57 C 17.338 18.525 17.383 18.479 17.368 18.433 C 17.368 18.388 17.322 18.357 17.246 18.373 C 16.684 18.464 16.288 18.616 16.03 18.783 C 15.771 18.951 15.665 19.118 15.649 19.24 C 15.634 19.361 15.665 19.468 15.71 19.574 C 15.756 19.681 15.847 19.787 15.969 19.894 C 16.09 20 16.136 20.152 16.121 20.289 C 16.121 20.426 16.06 20.548 15.999 20.624 C 15.923 20.7 15.893 20.745 15.862 20.791 C 15.832 20.837 15.817 20.928 15.771 21.08 C 15.725 21.232 15.695 21.521 15.68 21.84 C 15.665 22.16 15.665 22.479 15.68 22.707 C 15.756 22.586 15.862 22.479 15.969 22.403 C 16.075 22.327 16.197 22.281 16.273 22.251 C 16.334 22.844 16.303 23.255 16.243 23.559 C 16.197 23.863 16.106 24.061 16.06 24.228 C 16.045 24.274 16.03 24.304 15.999 24.289 C 15.969 24.289 15.938 24.259 15.923 24.198 C 15.878 24.061 15.801 23.848 15.71 23.65 C 15.619 23.452 15.512 23.27 15.406 23.179 C 15.117 22.89 14.98 22.738 14.919 22.616 C 14.859 22.494 14.874 22.403 14.874 22.221 C 14.417 21.992 14.265 21.719 14.265 21.445 C 14.265 21.186 14.402 20.943 14.524 20.76 C 14.646 20.593 14.737 20.38 14.813 20.183 C 14.889 19.985 14.919 19.817 14.935 19.711 C 14.95 19.605 14.889 19.407 14.813 19.209 C 14.722 19.011 14.615 18.798 14.478 18.646 C 14.448 18.631 14.372 18.616 14.281 18.631 C 14.189 18.646 14.098 18.692 14.037 18.829 C 13.976 18.966 13.885 19.042 13.809 19.072 C 13.718 19.103 13.627 19.118 13.535 19.103 C 13.444 19.087 13.322 19.087 13.216 19.103 C 13.109 19.118 13.003 19.179 12.927 19.285 C 12.851 19.392 12.76 19.392 12.653 19.361 C 12.562 19.331 12.455 19.27 12.379 19.224 C 12.303 19.194 12.258 19.148 12.197 19.118 C 12.136 19.087 12.06 19.072 11.893 19.087 C 11.725 19.103 11.665 19.209 11.619 19.346 C 11.558 19.468 11.512 19.605 11.376 19.635 C 11.239 19.681 11.132 19.605 11.071 19.452 C 11.011 19.3 10.995 19.087 10.995 18.859 C 10.95 18.57 11.056 18.114 11.193 17.688 C 11.33 17.262 11.497 16.867 11.589 16.669 C 11.665 16.471 11.801 16.106 11.923 15.681 C 12.06 15.27 12.182 14.814 12.273 14.464 C 12.364 14.114 12.562 13.856 12.82 13.612 C 13.079 13.369 13.353 13.156 13.611 12.897 C 13.87 12.639 14.174 12.411 14.478 12.243 C 14.782 12.076 15.087 11.97 15.315 11.97 C 15.543 11.97 15.786 12.106 15.984 12.243 C 16.182 12.395 16.349 12.548 16.425 12.639 C 16.501 12.73 16.577 12.928 16.653 13.141 C 16.729 13.354 16.805 13.582 16.897 13.719 C 16.988 13.856 17.064 14.053 17.125 14.297 C 17.185 14.54 17.246 14.814 17.292 15.072 C 17.338 15.346 17.444 15.529 17.551 15.681 C 17.657 15.833 17.779 15.954 17.855 16.091 C 17.931 16.228 18.022 16.548 18.128 16.897 C 18.235 17.247 18.372 17.643 18.539 17.901 C 18.706 18.16 18.965 18.342 19.224 18.449 C 19.482 18.57 19.725 18.616 19.847 18.662 C 19.969 18.692 20.06 18.707 20.151 18.753 C 20.243 18.798 20.349 18.89 20.501 19.072 C 20.714 19.316 21.033 19.529 21.338 19.681 C 21.642 19.833 21.916 19.924 22.037 19.97 C 21.687 20.198 21.246 20.198 20.851 20.122 Z M 5.703 4.973 L 5.262 5.095 L 5.125 7.133 L 5.535 7.011 L 5.551 6.586 L 6.235 6.388 L 6.463 6.738 L 6.889 6.616 Z M 5.566 6.251 L 5.596 5.445 L 5.596 5.445 L 6.037 6.114 Z M 11.452 5.323 C 11.436 5.141 11.345 4.958 11.102 4.897 C 11.178 4.852 11.33 4.76 11.284 4.471 C 11.269 4.274 11.117 4 10.646 4.046 L 9.718 4.152 L 9.931 6.068 L 10.737 5.977 C 11.132 5.932 11.224 5.856 11.315 5.734 C 11.421 5.627 11.467 5.475 11.452 5.323 Z M 10.144 4.441 L 10.6 4.395 C 10.782 4.38 10.904 4.411 10.919 4.563 C 10.935 4.715 10.813 4.791 10.661 4.806 L 10.189 4.852 Z M 10.767 5.627 L 10.281 5.688 L 10.22 5.171 L 10.722 5.11 C 10.859 5.095 11.011 5.141 11.041 5.308 C 11.071 5.521 10.965 5.612 10.767 5.627 Z M 12.942 3.833 C 12.684 3.848 12.03 3.985 12.06 4.882 C 12.09 5.779 12.775 5.871 13.018 5.856 C 13.277 5.84 13.931 5.703 13.9 4.806 C 13.87 3.894 13.185 3.817 12.942 3.833 Z M 13.003 5.521 C 12.79 5.536 12.471 5.414 12.455 4.867 C 12.44 4.335 12.729 4.183 12.957 4.167 C 13.17 4.152 13.49 4.274 13.505 4.821 C 13.52 5.354 13.216 5.506 13.003 5.521 Z M 16.121 5.384 C 16.136 5.019 16.045 4.958 15.893 4.882 C 16.09 4.821 16.197 4.639 16.197 4.426 C 16.197 4.259 16.121 3.878 15.604 3.863 L 14.63 3.833 L 14.57 5.764 L 14.965 5.779 L 14.995 5.019 L 15.406 5.034 C 15.71 5.049 15.71 5.141 15.71 5.414 C 15.71 5.612 15.71 5.719 15.741 5.81 L 16.182 5.825 L 16.182 5.779 C 16.106 5.734 16.106 5.658 16.121 5.384 Z M 15.482 4.715 L 15.011 4.7 L 15.026 4.183 L 15.528 4.198 C 15.756 4.198 15.801 4.35 15.801 4.456 C 15.786 4.654 15.68 4.73 15.482 4.715 Z" fill="transparent" height="39.83269961977186px" id="Tfz7CFNul" transform="translate(5.52 0.122)" width="28.588142876172622px"><g d="M 28.121 3.452 L 28.06 3.057 L 27.695 2.89 C 25.839 2.008 20.82 0 14.22 0 C 7.984 0 3.208 1.795 0.897 2.875 L 0.532 3.042 L 0.471 3.437 C 0.06 6.068 -0.67 13.065 1.368 20.958 C 3.436 28.958 7.649 35.194 13.855 39.529 L 14.281 39.833 L 14.706 39.529 C 20.912 35.209 25.125 28.958 27.193 20.958 C 29.262 13.08 28.532 6.084 28.121 3.452 Z M 25.748 20.593 C 23.817 28.046 19.969 33.886 14.296 37.992 C 8.623 33.886 4.775 28.03 2.843 20.593 C 0.957 13.338 1.505 6.89 1.916 4.091 C 4.212 3.057 8.592 1.536 14.22 1.536 C 20.121 1.536 24.684 3.209 26.691 4.091 C 27.087 6.89 27.634 13.338 25.748 20.593 Z M 3.68 7.285 L 4.577 6.951 L 4.699 7.27 L 3.421 7.757 L 2.767 5.947 L 3.132 5.81 Z M 9.246 6.16 L 8.881 6.236 L 8.577 4.654 L 8.562 4.654 L 8.516 6.297 L 8.136 6.373 L 7.482 4.867 L 7.482 4.867 L 7.786 6.449 L 7.421 6.51 L 7.056 4.624 L 7.634 4.517 L 8.258 5.932 L 8.258 5.932 L 8.303 4.38 L 8.881 4.274 Z M 17.839 4.913 L 18.646 4.989 L 18.539 6.023 L 18.265 5.992 L 18.25 5.749 C 18.144 5.856 17.976 6.008 17.627 5.977 C 17.17 5.932 16.775 5.551 16.851 4.882 C 16.912 4.365 17.246 3.894 17.885 3.97 C 18.478 4.03 18.661 4.441 18.661 4.7 L 18.265 4.654 C 18.265 4.578 18.159 4.319 17.885 4.289 C 17.596 4.259 17.322 4.426 17.262 4.928 C 17.201 5.445 17.474 5.612 17.748 5.643 C 17.839 5.658 18.128 5.643 18.25 5.262 L 17.809 5.217 L 17.839 4.913 Z M 19.741 5.354 L 19.589 6.205 L 19.193 6.129 L 19.543 4.228 L 19.938 4.304 L 19.801 5.019 L 20.547 5.156 L 20.668 4.441 L 21.064 4.502 L 20.729 6.403 L 20.334 6.342 L 20.486 5.49 Z M 21.794 6.662 L 21.398 6.57 L 21.855 4.684 L 22.235 4.776 Z M 24.151 5.323 L 24.516 5.43 L 23.954 7.27 L 23.573 7.163 L 23.224 5.612 L 23.224 5.612 L 22.813 6.935 L 22.463 6.814 L 23.026 4.973 L 23.421 5.095 L 23.771 6.601 L 23.771 6.601 Z M 24.973 7.65 L 24.592 7.513 L 25.277 5.703 L 25.657 5.856 Z M 22.265 19.65 C 21.916 19.544 21.52 19.331 21.033 18.814 C 21.064 18.586 21.079 18.433 21.064 18.297 C 21.049 18.16 21.003 18.068 20.942 17.932 C 20.881 17.795 20.805 17.673 20.76 17.475 C 20.714 17.278 20.684 17.004 20.729 16.563 C 20.775 16.122 20.76 15.407 20.577 14.631 C 20.395 13.856 20.03 13.019 19.406 12.319 C 19.573 11.802 19.665 11.437 19.68 11.148 C 19.695 10.859 19.649 10.646 19.528 10.388 C 19.406 10.144 19.102 9.932 18.646 9.795 C 18.189 9.658 17.596 9.582 16.912 9.582 C 16.227 9.582 15.239 9.643 14.433 9.627 C 13.627 9.612 12.973 9.551 12.973 9.338 C 12.973 9.125 13.079 9.034 13.231 8.973 C 13.383 8.913 13.581 8.913 13.733 8.897 C 13.961 8.989 14.296 9.049 14.63 9.065 C 14.965 9.095 15.33 9.095 15.604 9.095 C 15.893 9.095 16.151 9.004 16.44 8.928 C 16.714 8.852 17.018 8.76 17.353 8.76 C 17.064 8.669 16.699 8.532 16.319 8.426 C 15.938 8.319 15.558 8.259 15.239 8.335 C 15.117 8.228 15.041 8.137 14.904 8.106 C 14.767 8.076 14.585 8.076 14.281 8.167 C 13.976 8.243 13.779 8.274 13.627 8.304 C 13.459 8.319 13.338 8.335 13.14 8.38 C 12.942 8.426 12.684 8.456 12.471 8.563 C 12.258 8.669 12.09 8.837 12.09 9.171 C 12.09 9.49 12.212 9.779 12.532 9.977 C 12.866 10.175 13.414 10.297 14.281 10.281 C 15.163 10.266 16.121 10.251 16.912 10.281 C 17.703 10.327 18.326 10.433 18.539 10.677 C 18.752 10.92 18.813 11.087 18.782 11.224 C 18.752 11.361 18.63 11.468 18.478 11.605 C 18.341 11.605 18.113 11.62 17.824 11.605 C 17.551 11.589 17.231 11.529 16.942 11.407 C 16.653 11.27 16.319 11.194 15.969 11.194 C 15.634 11.194 15.284 11.255 15.011 11.422 C 14.722 11.574 14.022 11.924 13.307 12.441 C 12.592 12.973 11.847 13.688 11.512 14.616 C 11.163 15.544 10.995 16.122 10.889 16.532 C 10.782 16.943 10.752 17.156 10.676 17.369 C 10.6 17.582 10.478 17.795 10.372 18.038 C 10.265 18.281 10.174 18.54 10.189 18.844 C 10.189 19.148 10.174 19.513 10.128 19.863 C 10.083 20.213 10.037 20.548 9.992 20.791 C 9.946 21.034 9.87 21.323 9.809 21.658 C 9.748 21.992 9.703 22.342 9.718 22.722 C 9.718 23.103 9.703 23.483 9.642 23.848 C 9.596 24.213 9.505 24.548 9.398 24.837 C 9.292 25.125 9.246 25.369 9.216 25.612 C 9.17 25.84 9.125 26.068 9.003 26.297 C 8.866 26.525 8.699 26.814 8.516 27.087 C 8.334 27.361 8.166 27.62 8.03 27.802 C 7.893 27.97 7.832 28.183 7.878 28.35 C 7.923 28.517 8.06 28.654 8.349 28.684 C 8.638 28.715 8.881 28.654 9.064 28.532 C 9.246 28.411 9.368 28.243 9.398 28.046 C 9.429 27.848 9.429 27.589 9.444 27.316 C 9.459 27.042 9.474 26.768 9.566 26.555 L 9.657 26.327 L 9.748 26.099 C 9.839 25.947 9.9 25.886 9.976 25.84 C 10.037 25.795 10.113 25.749 10.205 25.643 C 10.296 25.536 10.448 25.202 10.57 24.852 C 10.691 24.502 10.798 24.106 10.782 23.833 C 10.782 23.559 10.798 23.346 10.843 23.179 C 10.889 22.996 10.95 22.859 11.026 22.722 C 11.102 22.586 11.147 22.433 11.208 22.312 C 11.284 22.19 11.376 22.114 11.543 22.129 C 11.71 22.144 11.771 22.236 11.786 22.342 C 11.801 22.449 11.801 22.586 11.862 22.707 C 11.923 22.829 11.984 22.951 12.06 23.057 C 12.136 23.163 12.243 23.255 12.41 23.316 C 12.562 23.376 12.684 23.483 12.76 23.62 C 12.82 23.757 12.82 23.909 12.729 24.046 C 12.638 24.183 12.501 24.411 12.395 24.654 C 12.288 24.897 12.212 25.125 12.212 25.278 C 12.212 25.43 12.243 25.658 12.212 25.901 C 12.182 26.144 12.121 26.388 11.923 26.586 C 11.741 26.783 11.589 26.981 11.482 27.148 C 11.376 27.316 11.33 27.468 11.33 27.559 C 11.33 27.65 11.376 27.772 11.467 27.878 C 11.573 27.985 11.725 28.046 11.984 28.046 C 12.227 28.046 12.425 27.985 12.562 27.894 C 12.699 27.802 12.79 27.665 12.851 27.498 C 12.912 27.331 12.897 27.194 12.866 27.087 C 12.836 26.981 12.805 26.89 12.805 26.768 C 12.805 26.646 12.836 26.525 12.881 26.373 C 12.927 26.236 12.973 26.084 12.988 25.947 C 13.003 25.81 13.033 25.643 13.094 25.46 C 13.155 25.278 13.246 25.08 13.398 24.867 C 13.551 24.654 13.627 24.471 13.703 24.304 C 13.779 24.137 13.824 24 13.916 23.863 C 14.007 23.726 14.052 23.665 14.083 23.635 C 14.113 23.62 14.159 23.65 14.25 23.696 C 14.341 23.757 14.372 23.802 14.341 23.878 C 14.326 23.939 14.265 24.03 14.205 24.122 C 14.144 24.213 14.037 24.38 13.916 24.563 C 13.794 24.73 13.672 24.928 13.596 25.049 C 13.52 25.186 13.474 25.354 13.505 25.506 C 13.535 25.658 13.627 25.764 13.839 25.779 C 14.052 25.795 14.22 25.795 14.326 25.764 C 14.448 25.734 14.509 25.658 14.524 25.551 C 14.539 25.43 14.57 25.247 14.63 25.065 C 14.676 24.882 14.737 24.7 14.813 24.578 C 14.889 24.456 14.935 24.35 14.965 24.259 C 14.995 24.167 14.995 24.091 14.995 24.03 C 15.117 24.137 15.208 24.274 15.3 24.411 C 15.376 24.548 15.452 24.684 15.512 24.821 C 15.573 24.958 15.71 25.11 15.954 25.232 C 16.197 25.354 16.547 25.43 17.018 25.414 C 17.49 25.384 17.733 25.369 17.87 25.323 C 18.007 25.278 18.037 25.217 18.083 25.095 C 18.144 24.973 18.265 24.745 18.326 24.517 C 18.387 24.289 18.387 24.046 18.174 23.909 C 18.205 23.711 18.265 23.452 18.341 23.209 C 18.417 22.966 18.539 22.722 18.691 22.555 C 18.843 22.403 19.056 22.236 19.239 22.099 C 19.421 21.962 19.589 21.825 19.634 21.734 C 19.878 21.871 20.121 22.023 20.288 22.266 C 20.471 22.51 20.577 22.814 20.608 23.24 C 20.608 23.468 20.638 23.681 20.684 23.878 C 20.714 24.061 20.76 24.228 20.775 24.335 C 20.79 24.456 20.79 24.578 20.805 24.7 C 20.805 24.837 20.805 24.958 20.836 25.095 C 20.866 25.232 20.942 25.354 21.049 25.43 C 21.155 25.521 21.292 25.567 21.414 25.536 C 21.535 25.521 21.627 25.414 21.703 25.278 C 21.779 25.141 21.824 24.973 21.824 24.852 C 21.824 24.715 21.779 24.624 21.733 24.548 C 21.672 24.471 21.611 24.411 21.551 24.365 C 21.49 24.319 21.459 24.259 21.444 24.183 C 21.429 24.106 21.444 24.015 21.505 23.863 C 21.566 23.711 21.551 23.574 21.505 23.468 C 21.459 23.361 21.398 23.27 21.338 23.209 C 21.277 23.148 21.216 22.996 21.155 22.783 C 21.109 22.57 21.079 22.312 21.079 22.068 C 21.079 21.825 21.064 21.536 20.988 21.278 C 20.912 21.034 20.805 20.821 20.653 20.73 C 21.094 20.7 21.596 20.669 22.037 20.532 C 22.478 20.395 22.874 20.167 23.102 19.772 C 22.904 19.726 22.615 19.757 22.265 19.65 Z M 20.851 20.122 C 20.455 20.03 20.121 19.863 19.954 19.665 C 19.862 19.559 19.741 19.452 19.619 19.376 C 19.482 19.3 19.345 19.24 19.208 19.194 C 19.071 19.163 18.859 19.072 18.63 18.981 C 18.402 18.89 18.189 18.783 18.052 18.722 C 18.022 18.783 17.961 18.859 17.87 18.951 C 17.779 19.042 17.657 19.163 17.505 19.285 C 17.368 19.407 17.338 19.513 17.338 19.589 C 17.353 19.665 17.414 19.741 17.444 19.802 C 17.49 19.863 17.657 20 17.839 20.167 C 18.022 20.319 18.22 20.471 18.281 20.548 C 18.068 20.548 17.916 20.532 17.733 20.471 C 17.551 20.411 17.353 20.304 17.018 20.091 C 16.684 19.878 16.577 19.665 16.577 19.468 C 16.577 19.285 16.668 19.118 16.714 19.057 C 16.76 18.996 16.881 18.89 17.003 18.798 C 17.125 18.707 17.246 18.616 17.292 18.57 C 17.338 18.525 17.383 18.479 17.368 18.433 C 17.368 18.388 17.322 18.357 17.246 18.373 C 16.684 18.464 16.288 18.616 16.03 18.783 C 15.771 18.951 15.665 19.118 15.649 19.24 C 15.634 19.361 15.665 19.468 15.71 19.574 C 15.756 19.681 15.847 19.787 15.969 19.894 C 16.09 20 16.136 20.152 16.121 20.289 C 16.121 20.426 16.06 20.548 15.999 20.624 C 15.923 20.7 15.893 20.745 15.862 20.791 C 15.832 20.837 15.817 20.928 15.771 21.08 C 15.725 21.232 15.695 21.521 15.68 21.84 C 15.665 22.16 15.665 22.479 15.68 22.707 C 15.756 22.586 15.862 22.479 15.969 22.403 C 16.075 22.327 16.197 22.281 16.273 22.251 C 16.334 22.844 16.303 23.255 16.243 23.559 C 16.197 23.863 16.106 24.061 16.06 24.228 C 16.045 24.274 16.03 24.304 15.999 24.289 C 15.969 24.289 15.938 24.259 15.923 24.198 C 15.878 24.061 15.801 23.848 15.71 23.65 C 15.619 23.452 15.512 23.27 15.406 23.179 C 15.117 22.89 14.98 22.738 14.919 22.616 C 14.859 22.494 14.874 22.403 14.874 22.221 C 14.417 21.992 14.265 21.719 14.265 21.445 C 14.265 21.186 14.402 20.943 14.524 20.76 C 14.646 20.593 14.737 20.38 14.813 20.183 C 14.889 19.985 14.919 19.817 14.935 19.711 C 14.95 19.605 14.889 19.407 14.813 19.209 C 14.722 19.011 14.615 18.798 14.478 18.646 C 14.448 18.631 14.372 18.616 14.281 18.631 C 14.189 18.646 14.098 18.692 14.037 18.829 C 13.976 18.966 13.885 19.042 13.809 19.072 C 13.718 19.103 13.627 19.118 13.535 19.103 C 13.444 19.087 13.322 19.087 13.216 19.103 C 13.109 19.118 13.003 19.179 12.927 19.285 C 12.851 19.392 12.76 19.392 12.653 19.361 C 12.562 19.331 12.455 19.27 12.379 19.224 C 12.303 19.194 12.258 19.148 12.197 19.118 C 12.136 19.087 12.06 19.072 11.893 19.087 C 11.725 19.103 11.665 19.209 11.619 19.346 C 11.558 19.468 11.512 19.605 11.376 19.635 C 11.239 19.681 11.132 19.605 11.071 19.452 C 11.011 19.3 10.995 19.087 10.995 18.859 C 10.95 18.57 11.056 18.114 11.193 17.688 C 11.33 17.262 11.497 16.867 11.589 16.669 C 11.665 16.471 11.801 16.106 11.923 15.681 C 12.06 15.27 12.182 14.814 12.273 14.464 C 12.364 14.114 12.562 13.856 12.82 13.612 C 13.079 13.369 13.353 13.156 13.611 12.897 C 13.87 12.639 14.174 12.411 14.478 12.243 C 14.782 12.076 15.087 11.97 15.315 11.97 C 15.543 11.97 15.786 12.106 15.984 12.243 C 16.182 12.395 16.349 12.548 16.425 12.639 C 16.501 12.73 16.577 12.928 16.653 13.141 C 16.729 13.354 16.805 13.582 16.897 13.719 C 16.988 13.856 17.064 14.053 17.125 14.297 C 17.185 14.54 17.246 14.814 17.292 15.072 C 17.338 15.346 17.444 15.529 17.551 15.681 C 17.657 15.833 17.779 15.954 17.855 16.091 C 17.931 16.228 18.022 16.548 18.128 16.897 C 18.235 17.247 18.372 17.643 18.539 17.901 C 18.706 18.16 18.965 18.342 19.224 18.449 C 19.482 18.57 19.725 18.616 19.847 18.662 C 19.969 18.692 20.06 18.707 20.151 18.753 C 20.243 18.798 20.349 18.89 20.501 19.072 C 20.714 19.316 21.033 19.529 21.338 19.681 C 21.642 19.833 21.916 19.924 22.037 19.97 C 21.687 20.198 21.246 20.198 20.851 20.122 Z M 5.703 4.973 L 5.262 5.095 L 5.125 7.133 L 5.535 7.011 L 5.551 6.586 L 6.235 6.388 L 6.463 6.738 L 6.889 6.616 Z M 5.566 6.251 L 5.596 5.445 L 5.596 5.445 L 6.037 6.114 Z M 11.452 5.323 C 11.436 5.141 11.345 4.958 11.102 4.897 C 11.178 4.852 11.33 4.76 11.284 4.471 C 11.269 4.274 11.117 4 10.646 4.046 L 9.718 4.152 L 9.931 6.068 L 10.737 5.977 C 11.132 5.932 11.224 5.856 11.315 5.734 C 11.421 5.627 11.467 5.475 11.452 5.323 Z M 10.144 4.441 L 10.6 4.395 C 10.782 4.38 10.904 4.411 10.919 4.563 C 10.935 4.715 10.813 4.791 10.661 4.806 L 10.189 4.852 Z M 10.767 5.627 L 10.281 5.688 L 10.22 5.171 L 10.722 5.11 C 10.859 5.095 11.011 5.141 11.041 5.308 C 11.071 5.521 10.965 5.612 10.767 5.627 Z M 12.942 3.833 C 12.684 3.848 12.03 3.985 12.06 4.882 C 12.09 5.779 12.775 5.871 13.018 5.856 C 13.277 5.84 13.931 5.703 13.9 4.806 C 13.87 3.894 13.185 3.817 12.942 3.833 Z M 13.003 5.521 C 12.79 5.536 12.471 5.414 12.455 4.867 C 12.44 4.335 12.729 4.183 12.957 4.167 C 13.17 4.152 13.49 4.274 13.505 4.821 C 13.52 5.354 13.216 5.506 13.003 5.521 Z M 16.121 5.384 C 16.136 5.019 16.045 4.958 15.893 4.882 C 16.09 4.821 16.197 4.639 16.197 4.426 C 16.197 4.259 16.121 3.878 15.604 3.863 L 14.63 3.833 L 14.57 5.764 L 14.965 5.779 L 14.995 5.019 L 15.406 5.034 C 15.71 5.049 15.71 5.141 15.71 5.414 C 15.71 5.612 15.71 5.719 15.741 5.81 L 16.182 5.825 L 16.182 5.779 C 16.106 5.734 16.106 5.658 16.121 5.384 Z M 15.482 4.715 L 15.011 4.7 L 15.026 4.183 L 15.528 4.198 C 15.756 4.198 15.801 4.35 15.801 4.456 C 15.786 4.654 15.68 4.73 15.482 4.715 Z" fill="transparent" height="39.83269961977186px" id="fakfb8QL0" transform="translate(0 0)" width="28.588142876172622px"><path d="M 28.121 3.452 L 28.06 3.057 L 27.695 2.89 C 25.839 2.008 20.82 0 14.22 0 C 7.984 0 3.208 1.795 0.897 2.875 L 0.532 3.042 L 0.471 3.437 C 0.06 6.068 -0.67 13.065 1.368 20.958 C 3.436 28.958 7.649 35.194 13.855 39.529 L 14.281 39.833 L 14.706 39.529 C 20.912 35.209 25.125 28.958 27.193 20.958 C 29.262 13.08 28.532 6.084 28.121 3.452 Z M 25.748 20.593 C 23.817 28.046 19.969 33.886 14.296 37.992 C 8.623 33.886 4.775 28.03 2.843 20.593 C 0.957 13.338 1.505 6.89 1.916 4.091 C 4.212 3.057 8.592 1.536 14.22 1.536 C 20.121 1.536 24.684 3.209 26.691 4.091 C 27.087 6.89 27.634 13.338 25.748 20.593 Z" fill="rgb(0, 0, 0)" height="39.83269961977186px" id="V5aDVlk7y" transform="translate(0 0)" width="28.588142876172622px"/><path d="M 0.913 1.475 L 1.81 1.141 L 1.932 1.46 L 0.654 1.947 L 0 0.137 L 0.365 0 Z" fill="rgb(0, 0, 0)" height="1.9467680608365008px" id="If5Ql_2xX" transform="translate(2.767 5.81)" width="1.9315589353612168px"/><path d="M 2.19 1.886 L 1.825 1.962 L 1.521 0.38 L 1.506 0.38 L 1.46 2.023 L 1.08 2.099 L 0.426 0.593 L 0.426 0.593 L 0.73 2.175 L 0.365 2.236 L 0 0.35 L 0.578 0.243 L 1.202 1.658 L 1.202 1.658 L 1.247 0.106 L 1.825 0 Z" fill="rgb(0, 0, 0)" height="2.235741444866921px" id="M11nx5YAn" transform="translate(7.056 4.274)" width="2.190114068441062px"/><path d="M 0.998 0.951 L 1.804 1.027 L 1.698 2.061 L 1.424 2.031 L 1.409 1.788 C 1.302 1.894 1.135 2.046 0.785 2.016 C 0.329 1.97 -0.067 1.59 0.009 0.921 C 0.07 0.404 0.405 -0.068 1.044 0.008 C 1.637 0.069 1.819 0.48 1.819 0.738 L 1.424 0.693 C 1.424 0.616 1.317 0.358 1.044 0.327 C 0.755 0.297 0.481 0.464 0.42 0.966 C 0.359 1.483 0.633 1.651 0.907 1.681 C 0.998 1.696 1.287 1.681 1.409 1.301 L 0.968 1.255 L 0.998 0.951 Z" fill="rgb(0, 0, 0)" height="2.061330021471548px" id="XwVLQkiIz" transform="translate(16.841 3.961)" width="1.8193125930101104px"/><path d="M 0.548 1.125 L 0.395 1.977 L 0 1.901 L 0.35 0 L 0.745 0.076 L 0.608 0.791 L 1.354 0.928 L 1.475 0.213 L 1.871 0.274 L 1.536 2.175 L 1.141 2.114 L 1.293 1.262 Z" fill="rgb(0, 0, 0)" height="2.174904942965778px" id="ZlVIFKSa4" transform="translate(19.193 4.228)" width="1.870722433460088px"/><path d="M 0.395 1.977 L 0 1.886 L 0.456 0 L 0.837 0.091 Z" fill="rgb(0, 0, 0)" height="1.9771863117870723px" id="EMUOR6Oj_" transform="translate(21.398 4.684)" width="1px"/><path d="M 1.688 0.35 L 2.053 0.456 L 1.49 2.297 L 1.11 2.19 L 0.76 0.639 L 0.76 0.639 L 0.35 1.962 L 0 1.84 L 0.563 0 L 0.958 0.122 L 1.308 1.627 L 1.308 1.627 Z" fill="rgb(0, 0, 0)" height="2.2965779467680605px" id="FygdLxFDF" transform="translate(22.463 4.973)" width="2.0532319391634815px"/><path d="M 0.38 1.947 L 0 1.81 L 0.684 0 L 1.065 0.152 Z" fill="rgb(0, 0, 0)" height="1.9467680608365043px" id="xCFdpw30E" transform="translate(24.592 5.703)" width="1.0646387832699702px"/><path d="M 14.403 11.562 C 14.053 11.455 13.658 11.243 13.171 10.725 C 13.201 10.497 13.216 10.345 13.201 10.208 C 13.186 10.071 13.14 9.98 13.08 9.843 C 13.019 9.706 12.943 9.585 12.897 9.387 C 12.851 9.189 12.821 8.916 12.867 8.474 C 12.912 8.033 12.897 7.319 12.715 6.543 C 12.532 5.767 12.167 4.931 11.543 4.231 C 11.711 3.714 11.802 3.349 11.817 3.06 C 11.832 2.771 11.787 2.558 11.665 2.3 C 11.543 2.056 11.239 1.843 10.783 1.706 C 10.327 1.57 9.734 1.493 9.049 1.493 C 8.365 1.493 7.376 1.554 6.57 1.539 C 5.764 1.524 5.11 1.463 5.11 1.25 C 5.11 1.037 5.216 0.946 5.369 0.885 C 5.521 0.824 5.718 0.824 5.87 0.809 C 6.099 0.9 6.433 0.961 6.768 0.976 C 7.102 1.007 7.467 1.007 7.741 1.007 C 8.03 1.007 8.289 0.916 8.578 0.839 C 8.851 0.763 9.156 0.672 9.49 0.672 C 9.201 0.581 8.836 0.444 8.456 0.338 C 8.076 0.231 7.696 0.17 7.376 0.246 C 7.255 0.14 7.178 0.049 7.042 0.018 C 6.905 -0.012 6.722 -0.012 6.418 0.079 C 6.114 0.155 5.916 0.185 5.764 0.216 C 5.597 0.231 5.475 0.246 5.277 0.292 C 5.08 0.338 4.821 0.368 4.608 0.474 C 4.395 0.581 4.228 0.748 4.228 1.083 C 4.228 1.402 4.35 1.691 4.669 1.889 C 5.004 2.087 5.551 2.208 6.418 2.193 C 7.3 2.178 8.258 2.163 9.049 2.193 C 9.84 2.239 10.464 2.345 10.677 2.589 C 10.89 2.832 10.95 2.999 10.92 3.136 C 10.89 3.273 10.768 3.379 10.616 3.516 C 10.479 3.516 10.251 3.532 9.962 3.516 C 9.688 3.501 9.369 3.44 9.08 3.319 C 8.791 3.182 8.456 3.106 8.106 3.106 C 7.772 3.106 7.422 3.166 7.148 3.334 C 6.859 3.486 6.159 3.836 5.445 4.353 C 4.73 4.885 3.985 5.6 3.65 6.528 C 3.3 7.455 3.133 8.033 3.026 8.444 C 2.92 8.855 2.89 9.068 2.813 9.281 C 2.737 9.493 2.616 9.706 2.509 9.95 C 2.403 10.193 2.312 10.452 2.327 10.756 C 2.327 11.06 2.312 11.425 2.266 11.775 C 2.22 12.125 2.175 12.459 2.129 12.703 C 2.083 12.946 2.007 13.235 1.947 13.57 C 1.886 13.904 1.84 14.254 1.855 14.634 C 1.855 15.014 1.84 15.395 1.779 15.76 C 1.734 16.125 1.642 16.459 1.536 16.748 C 1.429 17.037 1.384 17.281 1.353 17.524 C 1.308 17.752 1.262 17.98 1.14 18.208 C 1.004 18.436 0.836 18.725 0.654 18.999 C 0.471 19.273 0.304 19.532 0.167 19.714 C 0.03 19.881 -0.031 20.094 0.015 20.262 C 0.061 20.429 0.197 20.566 0.486 20.596 C 0.775 20.627 1.019 20.566 1.201 20.444 C 1.384 20.322 1.505 20.155 1.536 19.957 C 1.566 19.76 1.566 19.501 1.582 19.227 C 1.597 18.954 1.612 18.68 1.703 18.467 L 1.794 18.239 L 1.886 18.011 C 1.977 17.858 2.038 17.798 2.114 17.752 C 2.175 17.706 2.251 17.661 2.342 17.554 C 2.433 17.448 2.585 17.113 2.707 16.763 C 2.829 16.414 2.935 16.018 2.92 15.744 C 2.92 15.471 2.935 15.258 2.981 15.09 C 3.026 14.908 3.087 14.771 3.163 14.634 C 3.239 14.497 3.285 14.345 3.346 14.224 C 3.422 14.102 3.513 14.026 3.68 14.041 C 3.848 14.056 3.909 14.147 3.924 14.254 C 3.939 14.36 3.939 14.497 4 14.619 C 4.061 14.741 4.121 14.862 4.197 14.969 C 4.274 15.075 4.38 15.166 4.547 15.227 C 4.699 15.288 4.821 15.395 4.897 15.532 C 4.958 15.668 4.958 15.82 4.867 15.957 C 4.775 16.094 4.639 16.322 4.532 16.566 C 4.426 16.809 4.35 17.037 4.35 17.189 C 4.35 17.341 4.38 17.57 4.35 17.813 C 4.319 18.056 4.258 18.3 4.061 18.497 C 3.878 18.695 3.726 18.893 3.62 19.06 C 3.513 19.227 3.467 19.379 3.467 19.471 C 3.467 19.562 3.513 19.684 3.604 19.79 C 3.711 19.897 3.863 19.957 4.121 19.957 C 4.365 19.957 4.563 19.897 4.699 19.805 C 4.836 19.714 4.928 19.577 4.988 19.41 C 5.049 19.243 5.034 19.106 5.004 18.999 C 4.973 18.893 4.943 18.801 4.943 18.68 C 4.943 18.558 4.973 18.436 5.019 18.284 C 5.064 18.147 5.11 17.995 5.125 17.858 C 5.14 17.722 5.171 17.554 5.232 17.372 C 5.293 17.189 5.384 16.992 5.536 16.779 C 5.688 16.566 5.764 16.383 5.84 16.216 C 5.916 16.049 5.962 15.912 6.053 15.775 C 6.144 15.638 6.19 15.577 6.22 15.547 C 6.251 15.532 6.296 15.562 6.388 15.608 C 6.479 15.668 6.509 15.714 6.479 15.79 C 6.464 15.851 6.403 15.942 6.342 16.033 C 6.281 16.125 6.175 16.292 6.053 16.474 C 5.931 16.642 5.81 16.839 5.734 16.961 C 5.658 17.098 5.612 17.265 5.642 17.417 C 5.673 17.57 5.764 17.676 5.977 17.691 C 6.19 17.706 6.357 17.706 6.464 17.676 C 6.585 17.646 6.646 17.57 6.661 17.463 C 6.677 17.341 6.707 17.159 6.768 16.976 C 6.813 16.794 6.874 16.611 6.95 16.49 C 7.026 16.368 7.072 16.262 7.102 16.17 C 7.133 16.079 7.133 16.003 7.133 15.942 C 7.255 16.049 7.346 16.185 7.437 16.322 C 7.513 16.459 7.589 16.596 7.65 16.733 C 7.711 16.87 7.848 17.022 8.091 17.144 C 8.334 17.265 8.684 17.341 9.156 17.326 C 9.627 17.296 9.87 17.281 10.007 17.235 C 10.144 17.189 10.175 17.128 10.22 17.007 C 10.281 16.885 10.403 16.657 10.464 16.429 C 10.524 16.201 10.524 15.957 10.312 15.82 C 10.342 15.623 10.403 15.364 10.479 15.121 C 10.555 14.878 10.677 14.634 10.829 14.467 C 10.981 14.315 11.194 14.147 11.376 14.011 C 11.559 13.874 11.726 13.737 11.772 13.646 C 12.015 13.782 12.258 13.935 12.426 14.178 C 12.608 14.421 12.715 14.725 12.745 15.151 C 12.745 15.379 12.775 15.592 12.821 15.79 C 12.851 15.973 12.897 16.14 12.912 16.246 C 12.928 16.368 12.928 16.49 12.943 16.611 C 12.943 16.748 12.943 16.87 12.973 17.007 C 13.004 17.144 13.08 17.265 13.186 17.341 C 13.293 17.433 13.429 17.478 13.551 17.448 C 13.673 17.433 13.764 17.326 13.84 17.189 C 13.916 17.052 13.962 16.885 13.962 16.763 C 13.962 16.627 13.916 16.535 13.87 16.459 C 13.81 16.383 13.749 16.322 13.688 16.277 C 13.627 16.231 13.597 16.17 13.582 16.094 C 13.566 16.018 13.582 15.927 13.642 15.775 C 13.703 15.623 13.688 15.486 13.642 15.379 C 13.597 15.273 13.536 15.182 13.475 15.121 C 13.414 15.06 13.353 14.908 13.293 14.695 C 13.247 14.482 13.216 14.224 13.216 13.98 C 13.216 13.737 13.201 13.448 13.125 13.189 C 13.049 12.946 12.943 12.733 12.791 12.642 C 13.232 12.611 13.734 12.581 14.175 12.444 C 14.616 12.307 15.011 12.079 15.239 11.684 C 15.042 11.638 14.753 11.668 14.403 11.562 Z M 12.988 12.033 C 12.593 11.942 12.258 11.775 12.091 11.577 C 12 11.471 11.878 11.364 11.756 11.288 C 11.62 11.212 11.483 11.151 11.346 11.106 C 11.209 11.075 10.996 10.984 10.768 10.893 C 10.54 10.801 10.327 10.695 10.19 10.634 C 10.159 10.695 10.099 10.771 10.007 10.862 C 9.916 10.954 9.794 11.075 9.642 11.197 C 9.505 11.319 9.475 11.425 9.475 11.501 C 9.49 11.577 9.551 11.653 9.582 11.714 C 9.627 11.775 9.794 11.912 9.977 12.079 C 10.159 12.231 10.357 12.383 10.418 12.459 C 10.205 12.459 10.053 12.444 9.87 12.383 C 9.688 12.322 9.49 12.216 9.156 12.003 C 8.821 11.79 8.715 11.577 8.715 11.379 C 8.715 11.197 8.806 11.03 8.851 10.969 C 8.897 10.908 9.019 10.801 9.14 10.71 C 9.262 10.619 9.384 10.528 9.429 10.482 C 9.475 10.436 9.521 10.391 9.505 10.345 C 9.505 10.3 9.46 10.269 9.384 10.284 C 8.821 10.376 8.426 10.528 8.167 10.695 C 7.909 10.862 7.802 11.03 7.787 11.151 C 7.772 11.273 7.802 11.379 7.848 11.486 C 7.893 11.592 7.985 11.699 8.106 11.805 C 8.228 11.912 8.274 12.064 8.258 12.201 C 8.258 12.338 8.197 12.459 8.137 12.535 C 8.061 12.611 8.03 12.657 8 12.703 C 7.969 12.748 7.954 12.839 7.909 12.992 C 7.863 13.144 7.832 13.433 7.817 13.752 C 7.802 14.071 7.802 14.391 7.817 14.619 C 7.893 14.497 8 14.391 8.106 14.315 C 8.213 14.239 8.334 14.193 8.41 14.163 C 8.471 14.756 8.441 15.166 8.38 15.471 C 8.334 15.775 8.243 15.973 8.197 16.14 C 8.182 16.185 8.167 16.216 8.137 16.201 C 8.106 16.201 8.076 16.17 8.061 16.109 C 8.015 15.973 7.939 15.76 7.848 15.562 C 7.756 15.364 7.65 15.182 7.543 15.09 C 7.255 14.801 7.118 14.649 7.057 14.528 C 6.996 14.406 7.011 14.315 7.011 14.132 C 6.555 13.904 6.403 13.63 6.403 13.357 C 6.403 13.098 6.54 12.855 6.661 12.672 C 6.783 12.505 6.874 12.292 6.95 12.094 C 7.026 11.897 7.057 11.729 7.072 11.623 C 7.087 11.516 7.026 11.319 6.95 11.121 C 6.859 10.923 6.753 10.71 6.616 10.558 C 6.585 10.543 6.509 10.528 6.418 10.543 C 6.327 10.558 6.236 10.604 6.175 10.741 C 6.114 10.878 6.023 10.954 5.947 10.984 C 5.855 11.014 5.764 11.03 5.673 11.014 C 5.582 10.999 5.46 10.999 5.353 11.014 C 5.247 11.03 5.14 11.09 5.064 11.197 C 4.988 11.303 4.897 11.303 4.791 11.273 C 4.699 11.243 4.593 11.182 4.517 11.136 C 4.441 11.106 4.395 11.06 4.334 11.03 C 4.274 10.999 4.197 10.984 4.03 10.999 C 3.863 11.014 3.802 11.121 3.756 11.258 C 3.696 11.379 3.65 11.516 3.513 11.547 C 3.376 11.592 3.27 11.516 3.209 11.364 C 3.148 11.212 3.133 10.999 3.133 10.771 C 3.087 10.482 3.194 10.026 3.331 9.6 C 3.467 9.174 3.635 8.779 3.726 8.581 C 3.802 8.383 3.939 8.018 4.061 7.592 C 4.197 7.182 4.319 6.725 4.41 6.376 C 4.502 6.026 4.699 5.767 4.958 5.524 C 5.216 5.281 5.49 5.068 5.749 4.809 C 6.007 4.551 6.312 4.322 6.616 4.155 C 6.92 3.988 7.224 3.881 7.452 3.881 C 7.68 3.881 7.924 4.018 8.121 4.155 C 8.319 4.307 8.486 4.459 8.563 4.551 C 8.639 4.642 8.715 4.839 8.791 5.052 C 8.867 5.265 8.943 5.493 9.034 5.63 C 9.125 5.767 9.201 5.965 9.262 6.208 C 9.323 6.452 9.384 6.725 9.429 6.984 C 9.475 7.258 9.582 7.44 9.688 7.592 C 9.794 7.744 9.916 7.866 9.992 8.003 C 10.068 8.14 10.159 8.459 10.266 8.809 C 10.372 9.159 10.509 9.554 10.677 9.813 C 10.844 10.071 11.102 10.254 11.361 10.36 C 11.62 10.482 11.863 10.528 11.985 10.573 C 12.106 10.604 12.197 10.619 12.289 10.665 C 12.38 10.71 12.486 10.801 12.639 10.984 C 12.851 11.227 13.171 11.44 13.475 11.592 C 13.779 11.744 14.053 11.836 14.175 11.881 C 13.825 12.109 13.384 12.109 12.988 12.033 Z" fill="rgb(0, 0, 0)" height="20.603890804784548px" id="TGyhYKprB" transform="translate(7.863 8.088)" width="15.239314498440962px"/><path d="M 0.578 0 L 0.137 0.122 L 0 2.16 L 0.411 2.038 L 0.426 1.612 L 1.11 1.414 L 1.338 1.764 L 1.764 1.643 Z M 0.441 1.278 L 0.471 0.471 L 0.471 0.471 L 0.913 1.141 Z" fill="rgb(0, 0, 0)" height="2.159695817490494px" id="X9ke5xCVU" transform="translate(5.125 4.973)" width="1.7642585551330825px"/><path d="M 1.734 1.283 C 1.719 1.1 1.627 0.918 1.384 0.857 C 1.46 0.811 1.612 0.72 1.567 0.431 C 1.551 0.233 1.399 -0.041 0.928 0.005 L 0 0.112 L 0.213 2.028 L 1.019 1.937 C 1.414 1.891 1.506 1.815 1.597 1.693 C 1.703 1.587 1.749 1.435 1.734 1.283 Z M 0.426 0.4 L 0.882 0.355 C 1.065 0.34 1.186 0.37 1.202 0.522 C 1.217 0.674 1.095 0.75 0.943 0.765 L 0.471 0.811 Z M 1.049 1.587 L 0.563 1.648 L 0.502 1.131 L 1.004 1.07 C 1.141 1.054 1.293 1.1 1.323 1.267 C 1.354 1.48 1.247 1.572 1.049 1.587 Z" fill="rgb(0, 0, 0)" height="2.0278569475835297px" id="AFsVRTmhv" transform="translate(9.718 4.041)" width="1.7366920152091154px"/><path d="M 0.883 0.002 C 0.625 0.017 -0.029 0.154 0.001 1.051 C 0.031 1.948 0.716 2.04 0.959 2.024 C 1.218 2.009 1.872 1.872 1.841 0.975 C 1.811 0.062 1.127 -0.014 0.883 0.002 Z M 0.944 1.69 C 0.731 1.705 0.412 1.583 0.396 1.036 C 0.381 0.504 0.67 0.351 0.898 0.336 C 1.111 0.321 1.431 0.443 1.446 0.99 C 1.461 1.523 1.157 1.675 0.944 1.69 Z" fill="rgb(0, 0, 0)" height="2.0258551104996876px" id="Xig7TqWm9" transform="translate(12.059 3.831)" width="1.8423564122914655px"/><path d="M 1.551 1.551 C 1.567 1.186 1.475 1.125 1.323 1.049 C 1.521 0.989 1.627 0.806 1.627 0.593 C 1.627 0.426 1.551 0.046 1.034 0.03 L 0.061 0 L 0 1.932 L 0.395 1.947 L 0.426 1.186 L 0.837 1.202 C 1.141 1.217 1.141 1.308 1.141 1.582 C 1.141 1.779 1.141 1.886 1.171 1.977 L 1.612 1.992 L 1.612 1.947 C 1.536 1.901 1.536 1.825 1.551 1.551 Z M 0.913 0.882 L 0.441 0.867 L 0.456 0.35 L 0.958 0.365 C 1.186 0.365 1.232 0.517 1.232 0.624 C 1.217 0.821 1.11 0.897 0.913 0.882 Z" fill="rgb(0, 0, 0)" height="1.9923954372623598px" id="joa_T0HPE" transform="translate(14.57 3.833)" width="1.6273764258555303px"/></g></g></svg>