<svg display="block" role="presentation" viewBox="0 0 40 40" xmlns="http://www.w3.org/2000/svg"><path d="M 5.858 34.142 C 2.08 30.365 0 25.342 0 20 C 0 8.972 8.972 0 20 0 C 25.342 0 30.365 2.08 34.142 5.858 C 37.92 9.635 40 14.658 40 20 C 40 25.342 37.92 30.365 34.142 34.142 C 30.364 37.92 25.342 40 20 40 C 14.658 40 9.635 37.92 5.858 34.142 Z M 6.355 33.66 C 10.001 37.307 14.85 39.315 20.007 39.315 C 30.654 39.315 39.315 30.654 39.315 20.007 C 39.315 14.85 37.307 10.001 33.66 6.355 C 30.013 2.708 25.165 0.699 20.007 0.699 C 14.85 0.699 10.001 2.708 6.355 6.355 C 2.708 10.001 0.699 14.85 0.699 20.007 C 0.699 25.165 2.708 30.013 6.355 33.66 Z M 38.523 20.011 C 38.523 30.235 30.235 38.523 20.011 38.523 C 9.787 38.523 1.498 30.235 1.498 20.011 C 1.498 9.787 9.787 1.498 20.011 1.498 C 30.235 1.498 38.523 9.787 38.523 20.011 Z M 31.817 19.992 C 31.817 13.461 26.522 8.167 19.992 8.167 C 13.461 8.167 8.167 13.461 8.167 19.992 C 8.167 26.523 13.461 31.817 19.992 31.817 C 26.523 31.817 31.817 26.523 31.817 19.992 Z M 20.007 8.943 L 20.007 20.007 L 31.071 20.007 C 31.071 26.117 26.117 31.071 20.007 31.071 L 20.007 20.007 L 8.943 20.007 C 8.943 13.896 13.896 8.943 20.007 8.943 Z M 11.316 8.711 C 10.924 8.33 10.318 8.215 9.749 8.568 C 9.858 8.286 9.813 7.999 9.756 7.84 C 9.511 7.393 9.425 7.337 9.223 7.168 C 8.569 6.619 7.881 7.088 7.389 7.674 L 5.011 10.508 L 8.749 13.644 L 11.257 10.656 C 11.83 9.973 11.918 9.296 11.316 8.711 Z M 20.625 7.364 L 21.909 3.962 L 21.909 7.364 L 22.884 7.364 L 22.884 2.492 L 21.419 2.492 L 20.092 5.962 L 18.766 2.492 L 17.3 2.492 L 17.3 7.364 L 18.276 7.364 L 18.276 3.962 L 19.559 7.364 Z M 32.932 8.393 L 30.007 9.649 L 31.921 7.144 L 31.167 6.213 L 28.11 10.145 L 29.004 11.24 L 31.892 10.052 L 31.902 10.065 L 30.139 12.642 L 31.024 13.744 L 35.506 11.571 L 34.752 10.64 L 31.905 11.992 L 33.741 9.391 Z M 7.893 8.373 C 8.059 8.176 8.433 8.184 8.673 8.386 C 8.938 8.608 8.938 8.922 8.761 9.134 L 7.349 10.817 L 6.465 10.075 Z M 10.406 10.358 L 8.917 12.133 L 7.983 11.349 L 9.484 9.561 C 9.654 9.359 10.031 9.3 10.286 9.514 C 10.575 9.756 10.603 10.123 10.406 10.358 Z" fill="rgb(0, 0, 0)" height="40px" id="KUVhVBcp0" width="40px"/></svg>