<svg display="block" role="presentation" viewBox="0 0 40 40" xmlns="http://www.w3.org/2000/svg"><g d="M 0.894 0.933 L 0.864 0.606 L 0.398 0.042 L 0.256 0 L 0.157 0.142 L 0.173 0.312 L 0.016 0.454 L 0 0.651 L 0.184 0.75 L 0.442 0.934 L 0.894 0.934 Z" fill="transparent" height="1px" id="dVGuDqyVG" transform="translate(17.574 0.661)" width="1px"><path d="M 0.894 0.933 L 0.864 0.606 L 0.398 0.042 L 0.256 0 L 0.157 0.142 L 0.173 0.312 L 0.016 0.454 L 0 0.651 L 0.184 0.75 L 0.442 0.934 L 0.894 0.934 Z" fill="rgb(0, 0, 0)" height="1px" id="c5rIpihwG" transform="translate(0 0)" width="1px"/></g><g d="M 15.734 31.106 L 15.542 30.741 L 15.285 30.211 L 15.08 29.658 L 14.93 29.035 L 14.864 28.501 L 14.864 27.982 L 14.918 27.371 L 14.987 27.064 L 14.906 26.803 L 14.738 26.669 L 14.4 26.419 L 14.162 26.25 L 14.117 25.923 L 14.005 25.574 L 13.794 25.232 L 13.566 24.941 L 13.282 24.669 L 12.92 24.395 L 12.514 24.091 L 12.298 23.987 L 12.083 23.922 L 11.902 23.952 L 11.746 24.056 L 11.677 24.226 L 11.723 24.533 L 11.88 25.221 L 12.152 26.128 L 12.379 26.67 L 12.683 27.362 L 12.899 27.768 L 13.229 28.368 L 13.624 29.037 L 13.936 29.467 L 14.197 29.816 L 14.208 30.008 L 14.173 30.165 L 14.027 30.222 L 13.589 30.245 L 12.821 30.198 L 12.187 30.117 L 11.63 30.018 L 10.954 29.826 L 10.611 29.675 L 10.384 29.576 L 10.126 29.53 L 9.83 29.541 L 9.674 29.61 L 9.458 29.61 L 8.947 29.53 L 8.656 29.43 L 8.338 29.408 L 7.83 29.397 L 7.446 29.362 L 7.093 29.362 L 6.744 29.384 L 6.506 29.483 L 6.336 29.53 L 6.278 29.61 L 6.29 29.768 L 6.451 30.029 L 6.755 30.448 L 6.936 30.525 L 7.221 30.728 L 7.547 30.909 L 7.901 31.024 L 8.408 31.035 L 8.861 30.989 L 9.245 30.901 L 9.571 30.797 L 9.709 30.866 L 9.774 31 L 9.89 31.035 L 10.17 31.024 L 10.523 31.048 L 10.704 31.106 L 10.918 31.048 L 11.618 31.136 L 12.094 31.205 L 12.874 31.374 L 13.442 31.542 L 14.003 31.734 L 14.498 31.962 L 14.69 32.099 L 15.2 32.122 L 15.472 32.053 L 15.618 31.757 L 15.774 31.395 Z M 7.747 29.946 L 7.712 30.026 L 7.651 30.099 L 7.602 30.115 L 7.498 30.118 L 7.405 30.091 L 7.363 30.056 L 7.302 29.979 L 7.306 29.91 L 7.341 29.861 L 7.459 29.822 L 7.597 29.795 L 7.597 29.795 L 7.701 29.792 L 7.75 29.822 L 7.762 29.88 Z M 13.251 30.648 L 13.21 30.702 L 13.078 30.71 L 12.851 30.672 L 12.651 30.637 L 12.443 30.626 L 12.243 30.61 L 11.786 30.494 L 11.424 30.382 L 11.166 30.298 L 11.128 30.224 L 11.139 30.144 L 11.189 30.125 L 11.526 30.232 L 11.526 30.232 L 11.677 30.293 L 11.834 30.328 L 12.026 30.355 L 12.344 30.39 L 12.621 30.432 L 12.882 30.451 L 13.093 30.498 L 13.211 30.528 L 13.246 30.574 L 13.246 30.648 Z M 14.819 30.422 L 14.778 30.499 L 14.701 30.56 L 14.589 30.587 L 14.528 30.56 L 14.509 30.494 L 14.528 30.421 L 14.632 30.344 L 14.632 30.344 L 14.709 30.325 L 14.794 30.325 L 14.821 30.36 L 14.821 30.422 Z M 27.235 15.018 L 27.078 14.944 L 27.078 15.186 L 26.952 15.328 L 26.725 15.666 L 26.598 15.75 L 26.245 16.178 L 26.102 16.405 L 25.933 16.786 L 25.749 16.816 L 25.579 16.717 L 25.478 16.264 L 25.506 15.742 L 25.621 15.258 L 25.901 14.805 L 26.469 13.955 L 26.808 13.264 L 26.85 12.779 L 26.795 12.626 L 26.696 12.725 L 26.526 13.147 L 26.269 13.574 L 25.888 13.886 L 25.45 14.309 L 24.797 15.074 L 24.67 15.062 L 24.629 14.931 L 24.613 14.619 L 24.654 14.038 L 24.854 13.389 L 25.208 12.667 L 25.677 12.086 L 26.258 11.59 L 26.312 11.475 L 26.243 11.421 L 25.947 11.574 L 25.706 11.731 L 25.294 12.085 L 24.784 12.538 L 24.419 13.034 L 24.064 13.683 L 23.869 14.21 L 23.811 14.733 L 23.784 15.44 L 23.954 16.178 L 24.123 16.816 L 24.45 17.819 L 24.661 19.022 L 24.787 19.941 L 24.787 20.437 L 24.733 20.958 L 24.648 21.386 L 24.49 21.866 L 23.894 22.614 L 23.286 23.168 L 22.507 23.606 L 21.758 23.648 L 21.659 23.283 L 21.39 22.757 L 21.022 22.25 L 20.781 21.95 L 20.458 21.512 L 19.762 20.848 L 19.054 20.267 L 18.744 20.026 L 17.768 19.365 L 16.366 18.189 L 15.602 17.24 L 14.765 15.869 L 14.538 15.046 L 14.595 14.536 L 14.71 14.437 L 15.006 14.637 L 15.475 14.864 L 15.856 14.848 L 16.293 15.048 L 16.762 15.333 L 17.003 15.528 L 17.315 15.744 L 17.638 15.786 L 17.712 15.643 L 17.627 15.627 L 17.528 15.669 L 17.371 15.57 L 17.232 15.358 L 17.032 15.032 L 16.648 14.678 L 16.267 14.536 L 16.056 14.494 L 16.099 14.382 L 16.395 14.382 L 16.738 14.494 L 17.234 14.821 L 17.461 14.92 L 17.546 14.805 L 17.403 14.61 L 17.019 14.267 L 16.424 13.957 L 15.706 13.677 L 15.563 13.562 L 15.706 13.462 L 16.029 13.619 L 16.624 13.718 L 17.261 13.973 L 17.598 14.142 L 18.194 14.227 L 18.621 14.17 L 18.859 14.058 L 19.186 13.858 L 19.328 13.72 L 19.344 13.621 L 19.211 13.632 L 19.085 13.763 L 18.662 13.902 L 18.294 13.96 L 17.982 13.918 L 17.683 13.68 L 17.414 13.365 L 17.091 13.126 L 16.608 13.027 L 16.142 12.87 L 15.942 12.744 L 15.958 12.632 L 16.142 12.659 L 16.554 12.659 L 16.965 12.632 L 17.387 12.632 L 17.614 12.59 L 17.798 12.744 L 18.094 12.818 L 18.336 12.818 L 18.448 12.733 L 18.253 12.675 L 18.011 12.518 L 17.757 12.28 L 17.346 12.064 L 17.008 12.022 L 16.698 11.981 L 16.582 11.912 L 16.81 11.786 L 17.178 11.786 L 17.462 11.87 L 17.742 12.013 L 18.195 12.208 L 18.648 12.224 L 18.89 12.109 L 18.958 11.955 L 18.774 11.87 L 18.394 11.854 L 18.067 11.742 L 17.784 11.501 L 17.472 11.344 L 17.061 11.275 L 16.707 11.149 L 16.554 10.949 L 16.581 10.85 L 16.808 10.896 L 17.093 10.981 L 17.262 11.107 L 17.504 11.134 L 17.531 11.008 L 17.278 10.808 L 17.205 10.627 L 17.546 10.682 L 17.869 10.851 L 18.28 10.898 L 18.438 11.194 L 18.861 11.448 L 18.883 11.445 L 18.976 11.406 L 19.088 11.338 L 19.034 11.253 L 18.875 11.264 L 18.733 11.069 L 18.448 10.63 L 17.952 10.189 L 17.445 9.962 L 17.302 9.792 L 16.99 9.424 L 16.706 9.27 L 16.664 9.128 L 16.79 9.043 L 17.09 9.112 L 17.682 9.282 L 17.966 9.381 L 18.15 9.638 L 18.446 9.792 L 18.674 9.792 L 18.973 9.877 L 19.299 9.819 L 19.426 9.707 L 19.242 9.55 L 18.973 9.482 L 18.661 9.44 L 18.477 9.283 L 18.235 8.93 L 18.178 8.702 L 17.866 8.422 L 17.528 8.206 L 17.144 7.968 L 16.722 7.573 L 16.694 7.458 L 16.79 7.458 L 17.344 7.896 L 17.909 8.222 L 18.208 8.45 L 18.589 8.803 L 18.93 8.987 L 19.126 9.045 L 19.226 8.888 L 19.083 8.834 L 18.787 8.565 L 18.702 8.266 L 18.392 7.928 L 18.134 7.712 L 18.008 7.389 L 17.57 6.736 L 16.974 6.213 L 16.947 6.043 L 17.158 6.07 L 17.458 6.224 L 17.938 6.424 L 18.434 6.451 L 18.802 6.624 L 19.197 6.693 L 19.534 6.594 L 19.507 6.451 L 19.123 6.366 L 18.786 6.213 L 18.106 5.886 L 17.738 5.686 L 17.541 5.448 L 17.61 5.363 L 17.709 5.432 L 17.862 5.49 L 18.062 5.506 L 18.389 5.506 L 18.669 5.475 L 19.096 5.448 L 19.422 5.574 L 19.76 5.816 L 19.902 5.858 L 19.918 5.731 L 19.803 5.616 L 19.466 5.304 L 18.939 5.035 L 18.558 4.994 L 17.837 4.952 L 17.669 4.752 L 17.301 4.384 L 16.89 4.104 L 16.736 3.962 L 16.862 3.862 L 17.058 3.947 L 17.411 4.131 L 17.811 4.274 L 18.349 4.4 L 18.814 4.4 L 19.198 4.827 L 19.51 5.011 L 19.622 4.896 L 19.2 4.274 L 18.536 3.794 L 17.982 3.662 L 17.514 3.171 L 17.102 2.93 L 16.538 2.787 L 16.85 2.518 L 17.403 2.334 L 17.814 2.208 L 17.91 2.082 L 17.856 1.982 L 17.629 1.925 L 17.414 1.883 L 15.816 1.914 L 15.531 1.598 L 15.208 1.387 L 14.797 1.203 L 14.259 1.118 L 13.794 1.118 L 13.667 0.949 L 13.229 0.48 L 12.702 0 L 12.379 0.538 L 12.363 0.707 L 12.517 0.907 L 12.533 1.077 L 12.421 1.176 L 12.064 1.203 L 11.414 1.019 L 10.776 0.882 L 10.48 0.893 L 9.997 0.992 L 10.054 1.162 L 10.323 1.15 L 10.435 1.17 L 10.435 1.17 L 10.432 1.32 L 10.275 1.355 L 10.072 1.328 L 9.765 1.394 L 9.534 1.467 L 9.35 1.478 L 9.293 1.558 L 9.358 1.67 L 9.498 1.701 L 9.629 1.662 L 9.779 1.597 L 9.933 1.589 L 10.259 1.605 L 10.509 1.682 L 10.805 1.755 L 11.238 1.95 L 11.277 2.043 L 11.23 2.117 L 11.027 2.19 L 10.904 2.248 L 10.685 2.394 L 10.35 2.571 L 9.944 2.859 L 9.472 3.048 L 9.104 3.29 L 8.77 3.435 L 8.454 3.512 L 8.178 3.52 L 7.797 3.528 L 7.651 3.566 L 7.566 3.744 L 7.501 3.936 L 7.427 4.067 L 7.243 4.344 L 7.066 4.651 L 6.947 4.802 L 6.936 4.974 L 6.947 5.216 L 6.947 5.474 L 7.104 5.616 L 7.243 5.69 L 7.408 5.678 L 7.677 5.605 L 7.981 5.512 L 8.392 5.347 L 8.557 5.355 L 8.595 5.459 L 8.557 5.558 L 8.418 5.632 L 7.998 5.789 L 7.683 5.882 L 7.622 5.986 L 7.611 6.098 L 7.715 6.19 L 7.934 6.218 L 8.112 6.218 L 8.334 6.21 L 8.576 6.152 L 8.926 5.968 L 9.157 5.922 L 9.352 5.883 L 9.502 5.933 L 9.722 5.922 L 9.938 5.949 L 10.115 6.053 L 10.392 6.08 L 10.754 6.192 L 10.949 6.219 L 11.253 6.165 L 11.642 6.192 L 11.811 6.258 L 11.904 6.414 L 11.885 6.618 L 11.838 6.867 L 11.746 7.155 L 11.614 7.517 L 11.483 7.912 L 11.344 8.274 L 11.251 8.523 L 10.936 9.014 L 10.555 9.494 L 10.213 9.966 L 9.779 10.4 L 9.379 10.738 L 9.125 11.006 L 8.99 11.448 L 8.805 11.667 L 8.566 11.837 L 8.278 12.075 L 7.837 12.344 L 7.464 12.531 L 7.226 12.803 L 7.056 13.024 L 6.886 13.128 L 6.648 13.246 L 6.494 13.211 L 6.19 13.072 L 5.853 12.853 L 5.357 12.634 L 4.8 12.342 L 4.512 12.123 L 4.155 11.835 L 3.763 11.512 L 3.341 11.358 L 2.968 11.293 L 2.491 11.392 L 2.154 11.581 L 1.862 11.784 L 1.712 12.157 L 1.608 12.445 L 1.49 12.886 L 1.355 13.155 L 1.221 13.566 L 1.202 14.058 L 1.083 14.346 L 0.949 14.803 L 0.83 15.261 L 0.611 15.688 L 0.493 16.11 L 0.424 16.637 L 0.235 17.078 L 0.117 17.331 L 0.101 17.586 L 0.085 18.013 L 0.085 18.758 L 0 19.066 L 0.05 19.334 L 0.03 19.776 L 0.184 20.13 L 0.302 20.214 L 0.522 20.146 L 0.725 19.962 L 1.016 19.608 L 1.27 19.202 L 1.37 18.864 L 1.304 18.592 L 1.219 18.254 L 1.115 17.848 L 1.016 17.422 L 0.962 17.099 L 0.962 16.795 L 1.03 16.453 L 1.2 15.93 L 1.37 15.658 L 1.523 15.52 L 1.642 15.336 L 1.861 15.317 L 1.965 15.251 L 2.118 15.112 L 2.288 14.962 L 2.442 14.758 L 2.507 14.52 L 2.562 14.317 L 2.578 14.045 L 2.627 13.806 L 2.746 13.656 L 2.864 13.621 L 3.018 13.67 L 3.237 13.789 L 3.475 14.061 L 3.73 14.434 L 4.018 14.771 L 4.325 15.043 L 4.597 15.262 L 4.866 15.381 L 4.95 15.55 L 4.866 15.635 L 4.578 15.57 L 4.171 15.534 L 3.645 15.43 L 3.138 15.331 L 2.526 15.312 L 2.17 15.331 L 1.898 15.501 L 1.61 15.754 L 1.371 16.16 L 1.187 16.621 L 1.168 16.958 L 1.272 17.57 L 1.51 18.349 L 1.629 18.96 L 1.779 19.555 L 1.883 19.974 L 1.933 20.366 L 2.067 20.808 L 2.171 21.485 L 2.27 21.723 L 2.528 21.926 L 2.766 22.165 L 3.035 22.573 L 3.224 23.05 L 3.512 23.472 L 3.934 23.878 L 4.24 24.067 L 4.443 24.083 L 4.613 24.034 L 4.717 23.795 L 4.832 23.592 L 4.901 23.304 L 4.901 22.643 L 4.816 22.454 C 4.8 22.454 4.8 22.336 4.8 22.32 L 4.765 22.202 L 4.626 21.998 L 4.371 21.744 L 3.899 21.541 L 3.726 21.486 L 3.696 21.198 L 3.712 21.014 L 3.389 20.642 L 3.186 20.165 L 3.016 19.488 L 2.878 18.862 L 2.645 18.371 L 2.56 17.776 L 2.694 17.419 L 2.933 17.285 L 3.117 17.285 L 3.389 17.523 L 3.781 17.762 L 4.187 17.912 L 5.171 18.389 L 5.648 18.661 L 5.648 18.914 L 6.086 19.166 L 6.648 19.355 L 7.819 19.355 L 7.734 19.574 L 7.685 19.693 L 7.835 19.978 L 8.123 20.405 L 8.584 20.862 L 9.141 21.474 L 9.618 21.896 L 10.509 22.579 L 11.23 22.966 L 11.773 23.254 L 12.469 23.726 L 13.11 24.184 L 13.664 24.653 L 14.24 25.432 L 14.267 25.758 L 14.398 26.096 L 14.752 26.35 L 15.075 26.477 L 15.275 26.45 L 15.434 26.296 L 15.661 26.054 L 15.715 25.728 L 15.984 25.262 L 16.042 24.906 L 16.085 24.51 L 16.112 24.198 L 16.2 24.003 L 16.381 23.915 L 16.554 23.915 L 16.565 24.046 L 16.438 24.184 L 16.326 24.483 L 16.242 24.667 L 16.242 24.894 L 16.211 25.374 L 16.142 25.616 L 15.931 25.981 L 15.646 26.45 L 15.363 26.96 L 15.195 27.624 L 15.11 28.32 L 15.195 29.096 L 15.307 29.549 L 15.576 30.144 L 15.918 30.851 L 16.187 31.405 L 16.555 31.986 L 16.994 32.523 L 17.078 32.707 L 17.078 32.834 L 17.021 32.99 L 16.867 33.245 L 16.626 33.582 L 16.13 34.221 L 15.634 34.758 L 15.181 35.254 L 14.986 35.37 L 14.586 35.523 L 14.347 35.75 L 14.221 36.008 L 13.936 36.362 L 13.614 36.715 L 13.219 37.126 L 12.978 37.549 L 12.835 37.976 L 12.75 38.33 L 12.766 38.614 L 12.936 38.795 L 13.558 38.795 L 13.827 38.768 L 14.109 38.6 L 14.477 38.43 L 14.534 38.288 L 14.661 38.288 L 14.856 38.203 L 15.04 38.03 L 15.141 37.354 L 15.083 37.211 L 15.056 37.069 L 15.157 37.096 L 15.267 37.126 L 15.382 37.042 L 15.566 36.926 L 15.762 36.672 L 16.003 36.33 L 16.13 36.019 L 16.157 35.765 L 16.315 35.65 L 16.542 35.523 L 16.726 35.411 L 16.88 35.101 L 17.206 34.76 L 17.816 34.195 L 18.28 33.885 L 18.749 33.627 L 18.859 33.515 L 18.902 33.4 L 19.002 33.274 L 18.933 33.106 L 18.918 32.794 L 18.856 32.502 L 18.782 32.333 L 18.621 32.056 L 18.363 31.733 L 18.237 31.491 L 18.21 31.237 L 18.21 30.896 L 18.267 30.701 L 18.421 30.174 L 18.578 29.92 L 18.747 29.821 L 19.058 29.626 L 19.426 29.31 L 19.922 28.888 L 20.259 28.534 L 20.6 28.139 L 20.954 27.739 L 21.208 27.29 L 21.419 26.906 L 21.619 26.467 L 21.762 25.982 L 21.805 25.533 L 21.832 25.19 L 21.947 25.078 L 22.074 25.048 L 22.186 25.122 L 22.285 25.36 L 22.312 25.686 L 22.358 25.997 L 22.328 26.208 L 22.301 26.534 L 22.301 27.23 L 22.386 27.779 L 22.485 27.922 L 22.57 27.91 L 22.611 27.811 L 22.554 27.584 L 22.554 27.2 L 22.669 26.877 L 22.723 26.408 L 22.781 26.082 L 22.854 25.928 L 22.939 25.928 L 23.008 25.997 L 23.077 26.266 L 23.134 26.523 L 23.107 26.93 L 23.022 27.483 L 22.765 28.021 L 22.526 28.531 L 22.384 28.97 L 22.357 29.238 L 22.384 29.549 L 22.483 29.848 L 22.667 29.848 L 22.763 29.717 L 22.709 29.574 L 22.667 29.32 L 22.835 29.093 L 23.032 28.824 L 23.163 28.571 L 23.474 28.075 L 23.728 27.622 L 23.84 27.126 L 23.939 26.474 L 23.939 25.827 L 23.813 25.374 L 23.558 25.021 L 23.528 24.853 L 23.643 24.795 L 23.786 24.864 L 23.97 25.091 L 24.197 25.502 L 24.293 25.982 L 24.35 26.621 L 24.493 27.062 L 24.509 27.074 L 24.704 27.512 L 24.83 27.558 L 24.888 27.443 L 24.874 27.374 L 24.778 27.048 L 24.763 26.722 L 24.778 26.242 L 24.862 25.704 L 24.862 25.435 L 24.832 25.208 L 24.605 24.754 L 24.41 24.427 L 24.478 24.301 L 24.747 24.243 L 25.115 24.075 L 25.51 23.864 L 25.864 23.554 L 26.317 22.942 L 26.574 22.435 L 26.786 21.952 L 26.854 21.176 L 26.87 20.48 L 26.758 19.619 L 26.627 18.997 L 26.515 18.358 L 26.446 17.694 L 26.501 17.272 L 26.616 16.746 L 26.854 16.222 L 27.195 15.685 L 27.322 15.342 L 27.349 15.173 Z M 7.986 4.771 L 7.874 4.883 L 7.717 4.971 L 7.506 5.018 L 7.432 4.971 L 7.405 4.821 L 7.467 4.61 L 7.618 4.402 L 7.618 4.402 L 7.741 4.341 L 7.853 4.352 L 7.987 4.464 L 8.048 4.563 Z M 8.538 4.634 L 8.499 4.653 L 8.422 4.656 L 8.362 4.626 L 8.312 4.568 L 8.32 4.499 L 8.378 4.406 L 8.378 4.406 L 8.424 4.376 L 8.485 4.376 L 8.539 4.387 L 8.558 4.445 L 8.566 4.546 Z M 9.222 5.264 L 9.165 5.291 L 9.091 5.291 L 9.05 5.269 L 9.027 5.206 L 9.035 5.13 L 9.077 5.083 L 9.131 5.08 L 9.131 5.08 L 9.131 5.08 L 9.131 5.08 L 9.189 5.096 L 9.216 5.138 L 9.235 5.206 Z M 10.531 3.282 L 10.443 3.306 L 10.336 3.333 L 10.218 3.432 L 9.952 3.594 L 9.587 3.693 L 9.36 3.75 L 9.141 3.766 L 9.029 3.755 L 9.029 3.755 L 9.206 3.605 L 9.533 3.448 L 9.859 3.302 L 10.17 3.157 L 10.312 3.088 L 10.419 3.072 L 10.507 3.091 L 10.576 3.203 Z M 0.64 19.205 L 0.525 19.178 L 0.467 19.066 L 0.582 19.008 L 0.683 19.019 L 0.71 19.118 Z M 2.126 13.266 L 2.046 13.565 L 1.942 13.902 L 1.758 14.187 L 1.659 14.214 L 1.624 14.138 L 1.624 13.987 L 1.643 13.784 L 1.717 13.4 L 1.878 13.12 L 1.878 13.12 L 1.963 13.021 L 2.086 12.986 L 2.133 13.054 Z M 2.946 12.139 L 2.762 12.208 L 2.586 12.227 L 2.478 12.186 L 2.451 12.109 L 2.482 12.005 L 2.574 11.939 L 2.766 11.917 L 2.766 11.917 L 2.866 11.909 L 2.934 11.928 L 2.995 11.986 L 2.998 12.051 Z M 4.446 14.165 L 4.408 14.168 L 4.315 14.11 L 4.186 14.037 L 4.074 13.944 L 3.97 13.84 L 3.923 13.782 L 3.912 13.698 L 3.912 13.698 L 3.934 13.656 L 3.973 13.659 L 4.038 13.67 L 4.112 13.736 L 4.197 13.813 L 4.331 13.893 L 4.411 13.989 L 4.461 14.062 L 4.464 14.128 Z M 1.923 16.181 L 1.854 16.277 L 1.786 16.304 L 1.739 16.266 L 1.742 16.128 L 1.858 15.928 L 1.893 15.87 L 1.95 15.843 L 2.005 15.878 L 2.005 15.994 L 1.97 16.074 Z M 2.403 19.75 L 2.381 19.786 L 2.354 19.786 L 2.304 19.744 L 2.266 19.67 L 2.205 19.536 L 2.117 19.36 L 2.029 19.083 L 1.982 18.822 L 1.974 18.518 L 2.016 18.219 L 2.016 18.219 L 2.038 18.184 L 2.08 18.184 L 2.122 18.222 L 2.163 18.403 L 2.166 18.587 L 2.24 18.821 L 2.328 19.07 L 2.366 19.29 L 2.421 19.646 Z M 4.117 23.019 L 4.163 23.008 L 4.275 23.032 L 4.275 23.032 L 4.325 23.086 L 4.336 23.152 L 4.325 23.229 L 4.259 23.278 L 4.179 23.264 L 4.122 23.21 L 4.098 23.091 Z M 5.227 17.845 L 5.112 17.853 L 4.962 17.83 L 4.858 17.784 L 4.616 17.634 L 4.378 17.456 L 4.109 17.294 L 4.016 17.226 L 4.139 17.222 L 4.274 17.272 L 4.504 17.33 L 4.715 17.434 L 4.962 17.541 L 5.138 17.621 L 5.23 17.706 L 5.246 17.782 Z M 6.506 14.533 L 6.344 14.986 L 6.202 15.419 L 5.952 15.73 L 5.826 15.826 L 5.691 15.875 L 5.614 15.821 L 5.606 15.722 L 5.714 15.606 L 5.826 15.422 L 5.968 15.112 L 6.053 14.816 L 6.13 14.525 L 6.28 14.245 L 6.381 14.102 L 6.466 14.078 L 6.466 14.078 L 6.466 14.078 L 6.466 14.078 L 6.542 14.109 L 6.566 14.202 Z M 12.667 5.547 L 12.794 5.386 L 12.939 5.248 L 13.07 5.16 L 13.166 5.152 L 13.232 5.194 L 13.232 5.312 L 13.197 5.443 L 13.051 5.582 L 12.878 5.69 L 12.702 5.736 L 12.618 5.709 L 12.606 5.64 Z M 12.154 2.566 L 12.277 2.525 L 12.277 2.525 L 12.362 2.486 L 12.469 2.525 L 12.504 2.602 L 12.424 2.694 L 12.312 2.736 L 12.178 2.744 L 12.128 2.651 Z M 11.085 3.562 L 11.035 3.427 L 11.109 3.277 L 11.27 3.142 L 11.528 3.131 L 11.717 3.166 L 11.862 3.267 L 11.936 3.44 L 11.997 3.624 L 11.986 3.786 L 11.824 3.846 L 11.651 3.846 L 11.443 3.762 L 11.259 3.662 Z M 11.715 5.533 L 11.496 5.582 L 11.299 5.582 L 11.264 5.517 L 11.314 5.448 L 11.371 5.413 L 11.371 5.413 L 11.755 5.141 L 11.989 4.995 L 12.131 4.907 L 12.181 4.907 L 12.189 5.011 L 12.093 5.088 L 12.046 5.246 L 11.928 5.43 Z M 9.157 12.555 L 9.13 12.514 L 9.13 12.514 L 9.138 12.41 L 9.206 12.333 L 9.448 12.234 L 9.952 12.077 L 10.456 12.014 L 10.763 12.014 L 11.016 12.069 L 11.254 12.187 L 11.443 12.371 L 11.454 12.475 L 11.432 12.549 L 11.352 12.565 L 11.229 12.549 L 11.04 12.494 L 10.862 12.442 L 10.643 12.418 L 10.371 12.418 L 10.141 12.414 L 9.938 12.434 L 9.71 12.472 L 9.53 12.522 L 9.354 12.56 L 9.238 12.568 Z M 12.346 22.981 L 12.088 22.819 L 11.654 22.531 L 10.982 22.078 L 10.71 21.894 L 10.422 21.669 L 10.107 21.381 L 9.877 21.2 L 9.6 20.931 L 9.419 20.742 L 9.307 20.57 L 9.266 20.362 L 9.274 20.17 L 9.347 20.096 L 9.474 20.104 L 9.674 20.224 L 9.888 20.432 L 10.046 20.624 L 10.216 20.794 L 10.381 20.997 L 10.589 21.224 L 10.589 21.224 L 10.786 21.443 L 11.43 22.003 L 11.787 22.322 L 12.106 22.61 L 12.363 22.851 L 12.413 22.931 L 12.448 22.989 Z M 12.518 14.198 L 12.438 14.245 L 12.243 14.248 L 12.112 14.218 L 12.038 14.122 L 11.978 14.045 L 11.978 13.922 L 12.074 13.798 L 12.219 13.683 L 12.357 13.664 L 12.357 13.664 L 12.483 13.699 L 12.522 13.768 L 12.538 13.922 L 12.557 14.083 Z M 12.906 7.867 L 12.826 8.163 L 12.645 8.635 L 12.403 9.035 L 12.134 9.534 L 11.704 10.138 L 11.378 10.48 L 11.15 10.568 L 11.077 10.565 L 11.066 10.507 L 11.134 10.346 L 11.411 9.918 L 11.638 9.45 L 11.842 9.046 L 12.203 8.347 L 12.546 7.802 L 12.722 7.632 L 12.856 7.61 L 12.856 7.61 L 12.856 7.61 L 12.856 7.61 L 12.914 7.702 Z M 13.694 5.816 L 13.653 5.92 L 13.502 6.096 L 13.294 6.195 L 13.086 6.28 L 12.87 6.283 L 12.736 6.283 L 12.69 6.221 L 12.69 6.221 L 12.739 6.133 L 12.858 6.078 L 13.066 5.978 L 13.304 5.832 L 13.416 5.752 L 13.586 5.67 L 13.693 5.698 L 13.693 5.816 Z M 14.819 12.298 L 14.742 12.32 L 14.643 12.312 L 14.578 12.246 L 14.594 12.189 L 14.659 12.142 L 14.659 12.142 L 14.758 12.134 L 14.843 12.203 L 14.846 12.261 Z M 14.934 11.922 L 14.819 11.922 L 14.819 11.922 L 14.757 11.886 L 14.757 11.802 L 14.784 11.744 L 14.845 11.725 L 14.926 11.725 L 15.003 11.774 L 15.011 11.835 Z M 15.146 11.341 L 15.067 11.379 L 14.987 11.39 L 14.902 11.371 L 14.875 11.314 L 14.875 11.245 L 14.944 11.195 L 14.944 11.195 L 15.029 11.179 L 15.11 11.179 L 15.16 11.221 L 15.171 11.286 Z M 15.253 10.853 L 15.149 10.883 L 15.034 10.88 L 15.034 10.88 L 14.973 10.838 L 14.97 10.792 L 14.989 10.723 L 15.08 10.682 L 15.181 10.667 L 15.266 10.709 L 15.296 10.789 Z M 15.502 10.17 L 15.445 10.246 L 15.39 10.315 L 15.283 10.338 L 15.176 10.338 L 15.083 10.291 L 15.075 10.218 L 15.141 10.149 L 15.19 10.091 L 15.264 10.064 L 15.264 10.064 L 15.382 10.029 L 15.475 10.029 L 15.517 10.078 Z M 15.656 9.597 L 15.606 9.677 L 15.518 9.693 L 15.426 9.717 L 15.31 9.714 L 15.261 9.656 L 15.269 9.571 L 15.307 9.514 L 15.384 9.459 L 15.384 9.459 L 15.502 9.443 L 15.61 9.466 L 15.656 9.531 Z M 15.818 9.174 L 15.699 9.224 L 15.606 9.254 L 15.491 9.254 L 15.491 9.254 L 15.445 9.246 L 15.387 9.227 L 15.357 9.17 L 15.371 9.096 L 15.448 9.027 L 15.514 8.992 L 15.587 8.962 L 15.691 8.958 L 15.792 8.994 L 15.834 9.074 Z M 15.834 8.517 L 15.792 8.586 L 15.718 8.646 L 15.611 8.685 L 15.485 8.696 L 15.381 8.682 L 15.354 8.619 L 15.37 8.57 L 15.411 8.539 L 15.411 8.539 L 15.595 8.443 L 15.683 8.424 L 15.792 8.435 L 15.834 8.474 Z M 15.475 6.962 L 15.541 6.962 L 15.576 6.939 L 15.59 6.87 L 15.605 6.818 L 15.637 6.779 L 15.694 6.776 L 15.763 6.795 L 15.826 6.83 L 15.834 6.904 L 15.826 7.022 L 15.734 7.102 L 15.614 7.16 L 15.565 7.152 L 15.515 7.133 L 15.466 7.07 L 15.458 7.002 Z M 15.475 6.47 L 15.475 6.413 L 15.526 6.363 L 15.606 6.333 L 15.606 6.333 L 15.702 6.33 L 15.76 6.349 L 15.776 6.398 L 15.744 6.448 L 15.694 6.502 L 15.613 6.522 L 15.528 6.522 Z M 15.48 8.026 L 15.549 7.984 L 15.63 7.965 L 15.71 7.957 L 15.768 7.96 L 15.79 7.995 L 15.79 8.053 L 15.763 8.114 L 15.709 8.174 L 15.574 8.232 L 15.574 8.232 L 15.509 8.224 L 15.448 8.205 L 15.432 8.139 L 15.445 8.066 Z M 15.826 7.554 L 15.806 7.603 L 15.722 7.661 L 15.606 7.702 L 15.606 7.702 L 15.542 7.686 L 15.48 7.651 L 15.469 7.589 L 15.477 7.512 L 15.523 7.466 L 15.589 7.419 L 15.685 7.4 L 15.766 7.397 L 15.821 7.413 L 15.84 7.467 Z M 15.856 5.928 L 15.845 5.994 L 15.803 6.051 L 15.734 6.078 L 15.669 6.094 L 15.611 6.102 L 15.534 6.094 L 15.515 6.048 L 15.534 5.987 L 15.581 5.946 L 15.632 5.918 L 15.717 5.861 L 15.805 5.864 Z M 15.738 5.363 L 15.784 5.39 L 15.792 5.456 L 15.787 5.518 L 15.715 5.584 L 15.646 5.611 L 15.646 5.611 L 15.646 5.611 L 15.646 5.611 L 15.6 5.603 L 15.565 5.584 L 15.565 5.522 L 15.568 5.456 L 15.618 5.403 L 15.664 5.376 Z M 15.648 5.045 L 15.629 5.114 L 15.578 5.152 L 15.531 5.179 L 15.469 5.187 L 15.419 5.157 L 15.408 5.102 L 15.43 5.056 L 15.477 4.994 L 15.477 4.994 L 15.523 4.971 L 15.584 4.968 L 15.635 4.998 Z M 15.019 3.803 L 15.131 3.795 L 15.288 3.734 L 15.43 3.704 L 15.549 3.696 L 15.61 3.754 L 15.525 3.88 L 15.44 3.902 L 15.299 3.952 L 15.115 4.056 L 14.939 4.149 L 14.736 4.234 L 14.736 4.234 L 14.667 4.242 L 14.61 4.222 L 14.618 4.138 L 14.587 4.058 L 14.587 3.912 L 14.653 3.747 L 14.744 3.648 L 14.803 3.571 L 14.864 3.494 L 14.957 3.494 L 15.021 3.56 L 15.006 3.722 Z M 14.954 2.275 L 14.995 2.302 L 14.981 2.344 L 14.918 2.418 L 14.834 2.426 L 14.733 2.411 L 14.675 2.384 L 14.634 2.334 L 14.683 2.293 L 14.755 2.262 L 14.867 2.259 Z M 14.424 1.68 L 14.616 1.661 L 14.72 1.696 L 14.802 1.738 L 14.805 1.806 L 14.736 1.837 L 14.629 1.845 L 14.525 1.837 L 14.443 1.821 L 14.374 1.771 Z M 15.91 21.629 L 15.818 21.714 L 15.733 21.81 L 15.648 21.987 L 15.621 22.11 L 15.563 22.157 L 15.451 22.142 L 15.397 22.077 L 15.416 21.843 L 15.477 21.55 L 15.507 21.389 L 15.581 21.186 L 15.581 21.186 L 15.635 21.125 L 15.715 21.109 L 15.822 21.109 L 15.869 21.152 L 15.949 21.27 L 15.965 21.498 Z M 16.094 18.851 L 15.61 18.597 L 15.357 18.355 L 14.934 17.933 L 14.55 17.448 L 14.213 16.899 L 13.944 16.219 L 13.832 15.75 L 13.885 15.482 L 14.038 15.44 L 14.195 15.514 L 14.296 15.794 L 14.381 16.205 L 14.534 16.632 L 14.934 17.254 L 15.472 18.046 L 16.094 18.851 Z M 16.13 27.114 L 16.021 27.413 L 15.968 27.558 L 15.867 27.786 L 15.79 28.051 L 15.768 28.128 L 15.741 28.178 L 15.741 28.178 L 15.667 28.178 L 15.61 28.005 L 15.606 27.808 L 15.648 27.539 L 15.744 27.171 L 15.902 26.944 L 16.045 26.768 L 16.171 26.752 L 16.206 26.867 Z M 16.69 31.133 L 16.662 31.136 L 16.613 31.114 L 16.52 30.979 L 16.382 30.752 L 16.317 30.602 L 16.278 30.394 L 16.278 30.202 L 16.286 30.086 L 16.314 30.051 L 16.374 30.051 L 16.374 30.051 L 16.44 30.078 L 16.525 30.178 L 16.587 30.35 L 16.629 30.581 L 16.632 30.765 L 16.635 30.83 L 16.67 30.918 L 16.706 31.096 Z M 13.851 37.774 L 13.794 37.886 L 13.725 37.99 L 13.613 38.064 L 13.506 38.086 L 13.459 38.086 L 13.41 38.048 L 13.394 37.968 L 13.413 37.867 L 13.47 37.752 L 13.627 37.595 L 13.627 37.595 L 13.746 37.522 L 13.83 37.518 L 13.874 37.554 L 13.885 37.634 Z M 14.904 36.077 L 14.845 36.157 L 14.773 36.198 L 14.685 36.229 L 14.619 36.21 L 14.581 36.141 L 14.589 36.072 L 14.654 35.99 L 14.786 35.91 L 14.786 35.91 L 14.882 35.894 L 14.928 35.922 L 14.941 35.99 Z M 17.254 33.733 L 17.085 33.982 L 16.858 34.248 L 16.6 34.498 L 16.328 34.782 L 16.074 35.013 L 15.874 35.194 L 15.762 35.267 L 15.688 35.264 L 15.653 35.206 L 15.669 35.11 L 15.981 34.765 L 16.418 34.293 L 16.949 33.758 L 16.949 33.758 L 17.048 33.651 L 17.198 33.555 L 17.253 33.566 L 17.298 33.624 Z M 18.234 32.976 L 18.234 32.976 L 18.299 32.952 L 18.384 32.955 L 18.422 32.974 L 18.426 33.016 L 18.392 33.07 L 18.315 33.139 L 18.246 33.216 L 18.2 33.216 L 18.147 33.186 L 18.134 33.12 L 18.157 33.054 Z M 21.069 25.243 L 21.053 25.37 L 21.014 25.488 L 20.99 25.595 L 20.91 25.642 L 20.837 25.622 L 20.8 25.554 L 20.776 25.312 L 20.614 25.09 L 20.6 24.906 L 20.691 24.79 L 20.787 24.76 L 20.88 24.768 L 20.957 24.837 L 21.045 24.949 L 21.069 25.075 Z M 25.853 20.853 L 25.845 21.034 L 25.773 21.429 L 25.672 21.766 L 25.557 22.062 L 25.384 22.384 L 25.187 22.661 L 24.891 23.006 L 24.554 23.33 L 24.381 23.371 L 24.288 23.33 L 24.274 23.206 L 24.347 23.042 L 24.446 22.861 L 24.627 22.622 L 24.822 22.357 L 25.006 22.069 L 25.187 21.773 L 25.325 21.485 L 25.406 21.189 L 25.475 20.851 L 25.491 20.475 L 25.506 20.138 L 25.483 19.842 L 25.448 19.499 L 25.418 19.176 L 25.398 18.995 L 25.498 18.896 L 25.498 18.896 L 25.563 18.931 L 25.613 19.088 L 25.712 19.398 L 25.794 19.771 L 25.851 20.128 L 25.851 20.853 Z" fill="transparent" height="38.79519999999998px" id="PEPK2H_UH" transform="translate(6.32 0.621)" width="27.348799999999983px"><path d="M 9.456 7.184 L 9.264 6.819 L 9.006 6.29 L 8.802 5.736 L 8.651 5.114 L 8.586 4.579 L 8.586 4.061 L 8.64 3.45 L 8.709 3.142 L 8.627 2.882 L 8.459 2.747 L 8.122 2.498 L 7.883 2.328 L 7.838 2.002 L 7.726 1.653 L 7.515 1.31 L 7.288 1.019 L 7.003 0.747 L 6.642 0.474 L 6.235 0.17 L 6.019 0.066 L 5.805 0 L 5.624 0.03 L 5.467 0.134 L 5.398 0.304 L 5.445 0.611 L 5.602 1.299 L 5.874 2.206 L 6.101 2.749 L 6.405 3.44 L 6.621 3.846 L 6.95 4.446 L 7.346 5.115 L 7.658 5.546 L 7.918 5.894 L 7.93 6.086 L 7.894 6.243 L 7.749 6.301 L 7.31 6.323 L 6.542 6.277 L 5.909 6.195 L 5.352 6.096 L 4.675 5.904 L 4.333 5.754 L 4.106 5.654 L 3.848 5.608 L 3.552 5.619 L 3.395 5.688 L 3.179 5.688 L 2.669 5.608 L 2.378 5.509 L 2.059 5.486 L 1.552 5.475 L 1.168 5.44 L 0.814 5.44 L 0.466 5.462 L 0.227 5.562 L 0.058 5.608 L 0 5.688 L 0.011 5.846 L 0.173 6.107 L 0.477 6.526 L 0.658 6.603 L 0.942 6.806 L 1.269 6.987 L 1.622 7.102 L 2.13 7.114 L 2.582 7.067 L 2.966 6.979 L 3.293 6.875 L 3.43 6.944 L 3.496 7.078 L 3.611 7.114 L 3.891 7.102 L 4.245 7.126 L 4.426 7.184 L 4.64 7.126 L 5.339 7.214 L 5.816 7.283 L 6.595 7.453 L 7.163 7.621 L 7.725 7.813 L 8.219 8.04 L 8.411 8.178 L 8.922 8.2 L 9.194 8.131 L 9.339 7.835 L 9.496 7.474 Z M 1.469 6.024 L 1.434 6.104 L 1.373 6.178 L 1.323 6.194 L 1.219 6.197 L 1.126 6.17 L 1.085 6.135 L 1.024 6.058 L 1.027 5.989 L 1.062 5.939 L 1.181 5.901 L 1.318 5.874 L 1.318 5.874 L 1.422 5.871 L 1.472 5.901 L 1.483 5.959 Z M 6.973 6.727 L 6.931 6.781 L 6.8 6.789 L 6.573 6.751 L 6.373 6.715 L 6.165 6.704 L 5.965 6.688 L 5.507 6.573 L 5.146 6.461 L 4.888 6.376 L 4.85 6.303 L 4.861 6.223 L 4.91 6.203 L 5.248 6.311 L 5.248 6.311 L 5.398 6.371 L 5.555 6.407 L 5.747 6.434 L 6.066 6.469 L 6.342 6.511 L 6.603 6.53 L 6.814 6.576 L 6.933 6.607 L 6.968 6.653 L 6.968 6.727 Z M 8.541 6.501 L 8.499 6.578 L 8.422 6.638 L 8.31 6.666 L 8.25 6.638 L 8.23 6.573 L 8.25 6.499 L 8.354 6.422 L 8.354 6.422 L 8.43 6.403 L 8.515 6.403 L 8.542 6.438 L 8.542 6.501 Z" fill="rgb(0, 0, 0)" height="8.200000000000045px" id="eZq2wwiQy" transform="translate(6.278 23.922)" width="9.495999999999981px"/><path d="M 27.235 15.018 L 27.078 14.944 L 27.078 15.186 L 26.952 15.328 L 26.725 15.666 L 26.598 15.75 L 26.245 16.178 L 26.102 16.405 L 25.933 16.786 L 25.749 16.816 L 25.579 16.717 L 25.478 16.264 L 25.506 15.742 L 25.621 15.258 L 25.901 14.805 L 26.469 13.955 L 26.808 13.264 L 26.85 12.779 L 26.795 12.626 L 26.696 12.725 L 26.526 13.147 L 26.269 13.574 L 25.888 13.886 L 25.45 14.309 L 24.797 15.074 L 24.67 15.062 L 24.629 14.931 L 24.613 14.619 L 24.654 14.038 L 24.854 13.389 L 25.208 12.667 L 25.677 12.086 L 26.258 11.59 L 26.312 11.475 L 26.243 11.421 L 25.947 11.574 L 25.706 11.731 L 25.294 12.085 L 24.784 12.538 L 24.419 13.034 L 24.064 13.683 L 23.869 14.21 L 23.811 14.733 L 23.784 15.44 L 23.954 16.178 L 24.123 16.816 L 24.45 17.819 L 24.661 19.022 L 24.787 19.941 L 24.787 20.437 L 24.733 20.958 L 24.648 21.386 L 24.49 21.866 L 23.894 22.614 L 23.286 23.168 L 22.507 23.606 L 21.758 23.648 L 21.659 23.283 L 21.39 22.757 L 21.022 22.25 L 20.781 21.95 L 20.458 21.512 L 19.762 20.848 L 19.054 20.267 L 18.744 20.026 L 17.768 19.365 L 16.366 18.189 L 15.602 17.24 L 14.765 15.869 L 14.538 15.046 L 14.595 14.536 L 14.71 14.437 L 15.006 14.637 L 15.475 14.864 L 15.856 14.848 L 16.293 15.048 L 16.762 15.333 L 17.003 15.528 L 17.315 15.744 L 17.638 15.786 L 17.712 15.643 L 17.627 15.627 L 17.528 15.669 L 17.371 15.57 L 17.232 15.358 L 17.032 15.032 L 16.648 14.678 L 16.267 14.536 L 16.056 14.494 L 16.099 14.382 L 16.395 14.382 L 16.738 14.494 L 17.234 14.821 L 17.461 14.92 L 17.546 14.805 L 17.403 14.61 L 17.019 14.267 L 16.424 13.957 L 15.706 13.677 L 15.563 13.562 L 15.706 13.462 L 16.029 13.619 L 16.624 13.718 L 17.261 13.973 L 17.598 14.142 L 18.194 14.227 L 18.621 14.17 L 18.859 14.058 L 19.186 13.858 L 19.328 13.72 L 19.344 13.621 L 19.211 13.632 L 19.085 13.763 L 18.662 13.902 L 18.294 13.96 L 17.982 13.918 L 17.683 13.68 L 17.414 13.365 L 17.091 13.126 L 16.608 13.027 L 16.142 12.87 L 15.942 12.744 L 15.958 12.632 L 16.142 12.659 L 16.554 12.659 L 16.965 12.632 L 17.387 12.632 L 17.614 12.59 L 17.798 12.744 L 18.094 12.818 L 18.336 12.818 L 18.448 12.733 L 18.253 12.675 L 18.011 12.518 L 17.757 12.28 L 17.346 12.064 L 17.008 12.022 L 16.698 11.981 L 16.582 11.912 L 16.81 11.786 L 17.178 11.786 L 17.462 11.87 L 17.742 12.013 L 18.195 12.208 L 18.648 12.224 L 18.89 12.109 L 18.958 11.955 L 18.774 11.87 L 18.394 11.854 L 18.067 11.742 L 17.784 11.501 L 17.472 11.344 L 17.061 11.275 L 16.707 11.149 L 16.554 10.949 L 16.581 10.85 L 16.808 10.896 L 17.093 10.981 L 17.262 11.107 L 17.504 11.134 L 17.531 11.008 L 17.278 10.808 L 17.205 10.627 L 17.546 10.682 L 17.869 10.851 L 18.28 10.898 L 18.438 11.194 L 18.861 11.448 L 18.883 11.445 L 18.976 11.406 L 19.088 11.338 L 19.034 11.253 L 18.875 11.264 L 18.733 11.069 L 18.448 10.63 L 17.952 10.189 L 17.445 9.962 L 17.302 9.792 L 16.99 9.424 L 16.706 9.27 L 16.664 9.128 L 16.79 9.043 L 17.09 9.112 L 17.682 9.282 L 17.966 9.381 L 18.15 9.638 L 18.446 9.792 L 18.674 9.792 L 18.973 9.877 L 19.299 9.819 L 19.426 9.707 L 19.242 9.55 L 18.973 9.482 L 18.661 9.44 L 18.477 9.283 L 18.235 8.93 L 18.178 8.702 L 17.866 8.422 L 17.528 8.206 L 17.144 7.968 L 16.722 7.573 L 16.694 7.458 L 16.79 7.458 L 17.344 7.896 L 17.909 8.222 L 18.208 8.45 L 18.589 8.803 L 18.93 8.987 L 19.126 9.045 L 19.226 8.888 L 19.083 8.834 L 18.787 8.565 L 18.702 8.266 L 18.392 7.928 L 18.134 7.712 L 18.008 7.389 L 17.57 6.736 L 16.974 6.213 L 16.947 6.043 L 17.158 6.07 L 17.458 6.224 L 17.938 6.424 L 18.434 6.451 L 18.802 6.624 L 19.197 6.693 L 19.534 6.594 L 19.507 6.451 L 19.123 6.366 L 18.786 6.213 L 18.106 5.886 L 17.738 5.686 L 17.541 5.448 L 17.61 5.363 L 17.709 5.432 L 17.862 5.49 L 18.062 5.506 L 18.389 5.506 L 18.669 5.475 L 19.096 5.448 L 19.422 5.574 L 19.76 5.816 L 19.902 5.858 L 19.918 5.731 L 19.803 5.616 L 19.466 5.304 L 18.939 5.035 L 18.558 4.994 L 17.837 4.952 L 17.669 4.752 L 17.301 4.384 L 16.89 4.104 L 16.736 3.962 L 16.862 3.862 L 17.058 3.947 L 17.411 4.131 L 17.811 4.274 L 18.349 4.4 L 18.814 4.4 L 19.198 4.827 L 19.51 5.011 L 19.622 4.896 L 19.2 4.274 L 18.536 3.794 L 17.982 3.662 L 17.514 3.171 L 17.102 2.93 L 16.538 2.787 L 16.85 2.518 L 17.403 2.334 L 17.814 2.208 L 17.91 2.082 L 17.856 1.982 L 17.629 1.925 L 17.414 1.883 L 15.816 1.914 L 15.531 1.598 L 15.208 1.387 L 14.797 1.203 L 14.259 1.118 L 13.794 1.118 L 13.667 0.949 L 13.229 0.48 L 12.702 0 L 12.379 0.538 L 12.363 0.707 L 12.517 0.907 L 12.533 1.077 L 12.421 1.176 L 12.064 1.203 L 11.414 1.019 L 10.776 0.882 L 10.48 0.893 L 9.997 0.992 L 10.054 1.162 L 10.323 1.15 L 10.435 1.17 L 10.435 1.17 L 10.432 1.32 L 10.275 1.355 L 10.072 1.328 L 9.765 1.394 L 9.534 1.467 L 9.35 1.478 L 9.293 1.558 L 9.358 1.67 L 9.498 1.701 L 9.629 1.662 L 9.779 1.597 L 9.933 1.589 L 10.259 1.605 L 10.509 1.682 L 10.805 1.755 L 11.238 1.95 L 11.277 2.043 L 11.23 2.117 L 11.027 2.19 L 10.904 2.248 L 10.685 2.394 L 10.35 2.571 L 9.944 2.859 L 9.472 3.048 L 9.104 3.29 L 8.77 3.435 L 8.454 3.512 L 8.178 3.52 L 7.797 3.528 L 7.651 3.566 L 7.566 3.744 L 7.501 3.936 L 7.427 4.067 L 7.243 4.344 L 7.066 4.651 L 6.947 4.802 L 6.936 4.974 L 6.947 5.216 L 6.947 5.474 L 7.104 5.616 L 7.243 5.69 L 7.408 5.678 L 7.677 5.605 L 7.981 5.512 L 8.392 5.347 L 8.557 5.355 L 8.595 5.459 L 8.557 5.558 L 8.418 5.632 L 7.998 5.789 L 7.683 5.882 L 7.622 5.986 L 7.611 6.098 L 7.715 6.19 L 7.934 6.218 L 8.112 6.218 L 8.334 6.21 L 8.576 6.152 L 8.926 5.968 L 9.157 5.922 L 9.352 5.883 L 9.502 5.933 L 9.722 5.922 L 9.938 5.949 L 10.115 6.053 L 10.392 6.08 L 10.754 6.192 L 10.949 6.219 L 11.253 6.165 L 11.642 6.192 L 11.811 6.258 L 11.904 6.414 L 11.885 6.618 L 11.838 6.867 L 11.746 7.155 L 11.614 7.517 L 11.483 7.912 L 11.344 8.274 L 11.251 8.523 L 10.936 9.014 L 10.555 9.494 L 10.213 9.966 L 9.779 10.4 L 9.379 10.738 L 9.125 11.006 L 8.99 11.448 L 8.805 11.667 L 8.566 11.837 L 8.278 12.075 L 7.837 12.344 L 7.464 12.531 L 7.226 12.803 L 7.056 13.024 L 6.886 13.128 L 6.648 13.246 L 6.494 13.211 L 6.19 13.072 L 5.853 12.853 L 5.357 12.634 L 4.8 12.342 L 4.512 12.123 L 4.155 11.835 L 3.763 11.512 L 3.341 11.358 L 2.968 11.293 L 2.491 11.392 L 2.154 11.581 L 1.862 11.784 L 1.712 12.157 L 1.608 12.445 L 1.49 12.886 L 1.355 13.155 L 1.221 13.566 L 1.202 14.058 L 1.083 14.346 L 0.949 14.803 L 0.83 15.261 L 0.611 15.688 L 0.493 16.11 L 0.424 16.637 L 0.235 17.078 L 0.117 17.331 L 0.101 17.586 L 0.085 18.013 L 0.085 18.758 L 0 19.066 L 0.05 19.334 L 0.03 19.776 L 0.184 20.13 L 0.302 20.214 L 0.522 20.146 L 0.725 19.962 L 1.016 19.608 L 1.27 19.202 L 1.37 18.864 L 1.304 18.592 L 1.219 18.254 L 1.115 17.848 L 1.016 17.422 L 0.962 17.099 L 0.962 16.795 L 1.03 16.453 L 1.2 15.93 L 1.37 15.658 L 1.523 15.52 L 1.642 15.336 L 1.861 15.317 L 1.965 15.251 L 2.118 15.112 L 2.288 14.962 L 2.442 14.758 L 2.507 14.52 L 2.562 14.317 L 2.578 14.045 L 2.627 13.806 L 2.746 13.656 L 2.864 13.621 L 3.018 13.67 L 3.237 13.789 L 3.475 14.061 L 3.73 14.434 L 4.018 14.771 L 4.325 15.043 L 4.597 15.262 L 4.866 15.381 L 4.95 15.55 L 4.866 15.635 L 4.578 15.57 L 4.171 15.534 L 3.645 15.43 L 3.138 15.331 L 2.526 15.312 L 2.17 15.331 L 1.898 15.501 L 1.61 15.754 L 1.371 16.16 L 1.187 16.621 L 1.168 16.958 L 1.272 17.57 L 1.51 18.349 L 1.629 18.96 L 1.779 19.555 L 1.883 19.974 L 1.933 20.366 L 2.067 20.808 L 2.171 21.485 L 2.27 21.723 L 2.528 21.926 L 2.766 22.165 L 3.035 22.573 L 3.224 23.05 L 3.512 23.472 L 3.934 23.878 L 4.24 24.067 L 4.443 24.083 L 4.613 24.034 L 4.717 23.795 L 4.832 23.592 L 4.901 23.304 L 4.901 22.643 L 4.816 22.454 C 4.8 22.454 4.8 22.336 4.8 22.32 L 4.765 22.202 L 4.626 21.998 L 4.371 21.744 L 3.899 21.541 L 3.726 21.486 L 3.696 21.198 L 3.712 21.014 L 3.389 20.642 L 3.186 20.165 L 3.016 19.488 L 2.878 18.862 L 2.645 18.371 L 2.56 17.776 L 2.694 17.419 L 2.933 17.285 L 3.117 17.285 L 3.389 17.523 L 3.781 17.762 L 4.187 17.912 L 5.171 18.389 L 5.648 18.661 L 5.648 18.914 L 6.086 19.166 L 6.648 19.355 L 7.819 19.355 L 7.734 19.574 L 7.685 19.693 L 7.835 19.978 L 8.123 20.405 L 8.584 20.862 L 9.141 21.474 L 9.618 21.896 L 10.509 22.579 L 11.23 22.966 L 11.773 23.254 L 12.469 23.726 L 13.11 24.184 L 13.664 24.653 L 14.24 25.432 L 14.267 25.758 L 14.398 26.096 L 14.752 26.35 L 15.075 26.477 L 15.275 26.45 L 15.434 26.296 L 15.661 26.054 L 15.715 25.728 L 15.984 25.262 L 16.042 24.906 L 16.085 24.51 L 16.112 24.198 L 16.2 24.003 L 16.381 23.915 L 16.554 23.915 L 16.565 24.046 L 16.438 24.184 L 16.326 24.483 L 16.242 24.667 L 16.242 24.894 L 16.211 25.374 L 16.142 25.616 L 15.931 25.981 L 15.646 26.45 L 15.363 26.96 L 15.195 27.624 L 15.11 28.32 L 15.195 29.096 L 15.307 29.549 L 15.576 30.144 L 15.918 30.851 L 16.187 31.405 L 16.555 31.986 L 16.994 32.523 L 17.078 32.707 L 17.078 32.834 L 17.021 32.99 L 16.867 33.245 L 16.626 33.582 L 16.13 34.221 L 15.634 34.758 L 15.181 35.254 L 14.986 35.37 L 14.586 35.523 L 14.347 35.75 L 14.221 36.008 L 13.936 36.362 L 13.614 36.715 L 13.219 37.126 L 12.978 37.549 L 12.835 37.976 L 12.75 38.33 L 12.766 38.614 L 12.936 38.795 L 13.558 38.795 L 13.827 38.768 L 14.109 38.6 L 14.477 38.43 L 14.534 38.288 L 14.661 38.288 L 14.856 38.203 L 15.04 38.03 L 15.141 37.354 L 15.083 37.211 L 15.056 37.069 L 15.157 37.096 L 15.267 37.126 L 15.382 37.042 L 15.566 36.926 L 15.762 36.672 L 16.003 36.33 L 16.13 36.019 L 16.157 35.765 L 16.315 35.65 L 16.542 35.523 L 16.726 35.411 L 16.88 35.101 L 17.206 34.76 L 17.816 34.195 L 18.28 33.885 L 18.749 33.627 L 18.859 33.515 L 18.902 33.4 L 19.002 33.274 L 18.933 33.106 L 18.918 32.794 L 18.856 32.502 L 18.782 32.333 L 18.621 32.056 L 18.363 31.733 L 18.237 31.491 L 18.21 31.237 L 18.21 30.896 L 18.267 30.701 L 18.421 30.174 L 18.578 29.92 L 18.747 29.821 L 19.058 29.626 L 19.426 29.31 L 19.922 28.888 L 20.259 28.534 L 20.6 28.139 L 20.954 27.739 L 21.208 27.29 L 21.419 26.906 L 21.619 26.467 L 21.762 25.982 L 21.805 25.533 L 21.832 25.19 L 21.947 25.078 L 22.074 25.048 L 22.186 25.122 L 22.285 25.36 L 22.312 25.686 L 22.358 25.997 L 22.328 26.208 L 22.301 26.534 L 22.301 27.23 L 22.386 27.779 L 22.485 27.922 L 22.57 27.91 L 22.611 27.811 L 22.554 27.584 L 22.554 27.2 L 22.669 26.877 L 22.723 26.408 L 22.781 26.082 L 22.854 25.928 L 22.939 25.928 L 23.008 25.997 L 23.077 26.266 L 23.134 26.523 L 23.107 26.93 L 23.022 27.483 L 22.765 28.021 L 22.526 28.531 L 22.384 28.97 L 22.357 29.238 L 22.384 29.549 L 22.483 29.848 L 22.667 29.848 L 22.763 29.717 L 22.709 29.574 L 22.667 29.32 L 22.835 29.093 L 23.032 28.824 L 23.163 28.571 L 23.474 28.075 L 23.728 27.622 L 23.84 27.126 L 23.939 26.474 L 23.939 25.827 L 23.813 25.374 L 23.558 25.021 L 23.528 24.853 L 23.643 24.795 L 23.786 24.864 L 23.97 25.091 L 24.197 25.502 L 24.293 25.982 L 24.35 26.621 L 24.493 27.062 L 24.509 27.074 L 24.704 27.512 L 24.83 27.558 L 24.888 27.443 L 24.874 27.374 L 24.778 27.048 L 24.763 26.722 L 24.778 26.242 L 24.862 25.704 L 24.862 25.435 L 24.832 25.208 L 24.605 24.754 L 24.41 24.427 L 24.478 24.301 L 24.747 24.243 L 25.115 24.075 L 25.51 23.864 L 25.864 23.554 L 26.317 22.942 L 26.574 22.435 L 26.786 21.952 L 26.854 21.176 L 26.87 20.48 L 26.758 19.619 L 26.627 18.997 L 26.515 18.358 L 26.446 17.694 L 26.501 17.272 L 26.616 16.746 L 26.854 16.222 L 27.195 15.685 L 27.322 15.342 L 27.349 15.173 Z M 7.986 4.771 L 7.874 4.883 L 7.717 4.971 L 7.506 5.018 L 7.432 4.971 L 7.405 4.821 L 7.467 4.61 L 7.618 4.402 L 7.618 4.402 L 7.741 4.341 L 7.853 4.352 L 7.987 4.464 L 8.048 4.563 Z M 8.538 4.634 L 8.499 4.653 L 8.422 4.656 L 8.362 4.626 L 8.312 4.568 L 8.32 4.499 L 8.378 4.406 L 8.378 4.406 L 8.424 4.376 L 8.485 4.376 L 8.539 4.387 L 8.558 4.445 L 8.566 4.546 Z M 9.222 5.264 L 9.165 5.291 L 9.091 5.291 L 9.05 5.269 L 9.027 5.206 L 9.035 5.13 L 9.077 5.083 L 9.131 5.08 L 9.131 5.08 L 9.131 5.08 L 9.131 5.08 L 9.189 5.096 L 9.216 5.138 L 9.235 5.206 Z M 10.531 3.282 L 10.443 3.306 L 10.336 3.333 L 10.218 3.432 L 9.952 3.594 L 9.587 3.693 L 9.36 3.75 L 9.141 3.766 L 9.029 3.755 L 9.029 3.755 L 9.206 3.605 L 9.533 3.448 L 9.859 3.302 L 10.17 3.157 L 10.312 3.088 L 10.419 3.072 L 10.507 3.091 L 10.576 3.203 Z M 0.64 19.205 L 0.525 19.178 L 0.467 19.066 L 0.582 19.008 L 0.683 19.019 L 0.71 19.118 Z M 2.126 13.266 L 2.046 13.565 L 1.942 13.902 L 1.758 14.187 L 1.659 14.214 L 1.624 14.138 L 1.624 13.987 L 1.643 13.784 L 1.717 13.4 L 1.878 13.12 L 1.878 13.12 L 1.963 13.021 L 2.086 12.986 L 2.133 13.054 Z M 2.946 12.139 L 2.762 12.208 L 2.586 12.227 L 2.478 12.186 L 2.451 12.109 L 2.482 12.005 L 2.574 11.939 L 2.766 11.917 L 2.766 11.917 L 2.866 11.909 L 2.934 11.928 L 2.995 11.986 L 2.998 12.051 Z M 4.446 14.165 L 4.408 14.168 L 4.315 14.11 L 4.186 14.037 L 4.074 13.944 L 3.97 13.84 L 3.923 13.782 L 3.912 13.698 L 3.912 13.698 L 3.934 13.656 L 3.973 13.659 L 4.038 13.67 L 4.112 13.736 L 4.197 13.813 L 4.331 13.893 L 4.411 13.989 L 4.461 14.062 L 4.464 14.128 Z M 1.923 16.181 L 1.854 16.277 L 1.786 16.304 L 1.739 16.266 L 1.742 16.128 L 1.858 15.928 L 1.893 15.87 L 1.95 15.843 L 2.005 15.878 L 2.005 15.994 L 1.97 16.074 Z M 2.403 19.75 L 2.381 19.786 L 2.354 19.786 L 2.304 19.744 L 2.266 19.67 L 2.205 19.536 L 2.117 19.36 L 2.029 19.083 L 1.982 18.822 L 1.974 18.518 L 2.016 18.219 L 2.016 18.219 L 2.038 18.184 L 2.08 18.184 L 2.122 18.222 L 2.163 18.403 L 2.166 18.587 L 2.24 18.821 L 2.328 19.07 L 2.366 19.29 L 2.421 19.646 Z M 4.117 23.019 L 4.163 23.008 L 4.275 23.032 L 4.275 23.032 L 4.325 23.086 L 4.336 23.152 L 4.325 23.229 L 4.259 23.278 L 4.179 23.264 L 4.122 23.21 L 4.098 23.091 Z M 5.227 17.845 L 5.112 17.853 L 4.962 17.83 L 4.858 17.784 L 4.616 17.634 L 4.378 17.456 L 4.109 17.294 L 4.016 17.226 L 4.139 17.222 L 4.274 17.272 L 4.504 17.33 L 4.715 17.434 L 4.962 17.541 L 5.138 17.621 L 5.23 17.706 L 5.246 17.782 Z M 6.506 14.533 L 6.344 14.986 L 6.202 15.419 L 5.952 15.73 L 5.826 15.826 L 5.691 15.875 L 5.614 15.821 L 5.606 15.722 L 5.714 15.606 L 5.826 15.422 L 5.968 15.112 L 6.053 14.816 L 6.13 14.525 L 6.28 14.245 L 6.381 14.102 L 6.466 14.078 L 6.466 14.078 L 6.466 14.078 L 6.466 14.078 L 6.542 14.109 L 6.566 14.202 Z M 12.667 5.547 L 12.794 5.386 L 12.939 5.248 L 13.07 5.16 L 13.166 5.152 L 13.232 5.194 L 13.232 5.312 L 13.197 5.443 L 13.051 5.582 L 12.878 5.69 L 12.702 5.736 L 12.618 5.709 L 12.606 5.64 Z M 12.154 2.566 L 12.277 2.525 L 12.277 2.525 L 12.362 2.486 L 12.469 2.525 L 12.504 2.602 L 12.424 2.694 L 12.312 2.736 L 12.178 2.744 L 12.128 2.651 Z M 11.085 3.562 L 11.035 3.427 L 11.109 3.277 L 11.27 3.142 L 11.528 3.131 L 11.717 3.166 L 11.862 3.267 L 11.936 3.44 L 11.997 3.624 L 11.986 3.786 L 11.824 3.846 L 11.651 3.846 L 11.443 3.762 L 11.259 3.662 Z M 11.715 5.533 L 11.496 5.582 L 11.299 5.582 L 11.264 5.517 L 11.314 5.448 L 11.371 5.413 L 11.371 5.413 L 11.755 5.141 L 11.989 4.995 L 12.131 4.907 L 12.181 4.907 L 12.189 5.011 L 12.093 5.088 L 12.046 5.246 L 11.928 5.43 Z M 9.157 12.555 L 9.13 12.514 L 9.13 12.514 L 9.138 12.41 L 9.206 12.333 L 9.448 12.234 L 9.952 12.077 L 10.456 12.014 L 10.763 12.014 L 11.016 12.069 L 11.254 12.187 L 11.443 12.371 L 11.454 12.475 L 11.432 12.549 L 11.352 12.565 L 11.229 12.549 L 11.04 12.494 L 10.862 12.442 L 10.643 12.418 L 10.371 12.418 L 10.141 12.414 L 9.938 12.434 L 9.71 12.472 L 9.53 12.522 L 9.354 12.56 L 9.238 12.568 Z M 12.346 22.981 L 12.088 22.819 L 11.654 22.531 L 10.982 22.078 L 10.71 21.894 L 10.422 21.669 L 10.107 21.381 L 9.877 21.2 L 9.6 20.931 L 9.419 20.742 L 9.307 20.57 L 9.266 20.362 L 9.274 20.17 L 9.347 20.096 L 9.474 20.104 L 9.674 20.224 L 9.888 20.432 L 10.046 20.624 L 10.216 20.794 L 10.381 20.997 L 10.589 21.224 L 10.589 21.224 L 10.786 21.443 L 11.43 22.003 L 11.787 22.322 L 12.106 22.61 L 12.363 22.851 L 12.413 22.931 L 12.448 22.989 Z M 12.518 14.198 L 12.438 14.245 L 12.243 14.248 L 12.112 14.218 L 12.038 14.122 L 11.978 14.045 L 11.978 13.922 L 12.074 13.798 L 12.219 13.683 L 12.357 13.664 L 12.357 13.664 L 12.483 13.699 L 12.522 13.768 L 12.538 13.922 L 12.557 14.083 Z M 12.906 7.867 L 12.826 8.163 L 12.645 8.635 L 12.403 9.035 L 12.134 9.534 L 11.704 10.138 L 11.378 10.48 L 11.15 10.568 L 11.077 10.565 L 11.066 10.507 L 11.134 10.346 L 11.411 9.918 L 11.638 9.45 L 11.842 9.046 L 12.203 8.347 L 12.546 7.802 L 12.722 7.632 L 12.856 7.61 L 12.856 7.61 L 12.856 7.61 L 12.856 7.61 L 12.914 7.702 Z M 13.694 5.816 L 13.653 5.92 L 13.502 6.096 L 13.294 6.195 L 13.086 6.28 L 12.87 6.283 L 12.736 6.283 L 12.69 6.221 L 12.69 6.221 L 12.739 6.133 L 12.858 6.078 L 13.066 5.978 L 13.304 5.832 L 13.416 5.752 L 13.586 5.67 L 13.693 5.698 L 13.693 5.816 Z M 14.819 12.298 L 14.742 12.32 L 14.643 12.312 L 14.578 12.246 L 14.594 12.189 L 14.659 12.142 L 14.659 12.142 L 14.758 12.134 L 14.843 12.203 L 14.846 12.261 Z M 14.934 11.922 L 14.819 11.922 L 14.819 11.922 L 14.757 11.886 L 14.757 11.802 L 14.784 11.744 L 14.845 11.725 L 14.926 11.725 L 15.003 11.774 L 15.011 11.835 Z M 15.146 11.341 L 15.067 11.379 L 14.987 11.39 L 14.902 11.371 L 14.875 11.314 L 14.875 11.245 L 14.944 11.195 L 14.944 11.195 L 15.029 11.179 L 15.11 11.179 L 15.16 11.221 L 15.171 11.286 Z M 15.253 10.853 L 15.149 10.883 L 15.034 10.88 L 15.034 10.88 L 14.973 10.838 L 14.97 10.792 L 14.989 10.723 L 15.08 10.682 L 15.181 10.667 L 15.266 10.709 L 15.296 10.789 Z M 15.502 10.17 L 15.445 10.246 L 15.39 10.315 L 15.283 10.338 L 15.176 10.338 L 15.083 10.291 L 15.075 10.218 L 15.141 10.149 L 15.19 10.091 L 15.264 10.064 L 15.264 10.064 L 15.382 10.029 L 15.475 10.029 L 15.517 10.078 Z M 15.656 9.597 L 15.606 9.677 L 15.518 9.693 L 15.426 9.717 L 15.31 9.714 L 15.261 9.656 L 15.269 9.571 L 15.307 9.514 L 15.384 9.459 L 15.384 9.459 L 15.502 9.443 L 15.61 9.466 L 15.656 9.531 Z M 15.818 9.174 L 15.699 9.224 L 15.606 9.254 L 15.491 9.254 L 15.491 9.254 L 15.445 9.246 L 15.387 9.227 L 15.357 9.17 L 15.371 9.096 L 15.448 9.027 L 15.514 8.992 L 15.587 8.962 L 15.691 8.958 L 15.792 8.994 L 15.834 9.074 Z M 15.834 8.517 L 15.792 8.586 L 15.718 8.646 L 15.611 8.685 L 15.485 8.696 L 15.381 8.682 L 15.354 8.619 L 15.37 8.57 L 15.411 8.539 L 15.411 8.539 L 15.595 8.443 L 15.683 8.424 L 15.792 8.435 L 15.834 8.474 Z M 15.475 6.962 L 15.541 6.962 L 15.576 6.939 L 15.59 6.87 L 15.605 6.818 L 15.637 6.779 L 15.694 6.776 L 15.763 6.795 L 15.826 6.83 L 15.834 6.904 L 15.826 7.022 L 15.734 7.102 L 15.614 7.16 L 15.565 7.152 L 15.515 7.133 L 15.466 7.07 L 15.458 7.002 Z M 15.475 6.47 L 15.475 6.413 L 15.526 6.363 L 15.606 6.333 L 15.606 6.333 L 15.702 6.33 L 15.76 6.349 L 15.776 6.398 L 15.744 6.448 L 15.694 6.502 L 15.613 6.522 L 15.528 6.522 Z M 15.48 8.026 L 15.549 7.984 L 15.63 7.965 L 15.71 7.957 L 15.768 7.96 L 15.79 7.995 L 15.79 8.053 L 15.763 8.114 L 15.709 8.174 L 15.574 8.232 L 15.574 8.232 L 15.509 8.224 L 15.448 8.205 L 15.432 8.139 L 15.445 8.066 Z M 15.826 7.554 L 15.806 7.603 L 15.722 7.661 L 15.606 7.702 L 15.606 7.702 L 15.542 7.686 L 15.48 7.651 L 15.469 7.589 L 15.477 7.512 L 15.523 7.466 L 15.589 7.419 L 15.685 7.4 L 15.766 7.397 L 15.821 7.413 L 15.84 7.467 Z M 15.856 5.928 L 15.845 5.994 L 15.803 6.051 L 15.734 6.078 L 15.669 6.094 L 15.611 6.102 L 15.534 6.094 L 15.515 6.048 L 15.534 5.987 L 15.581 5.946 L 15.632 5.918 L 15.717 5.861 L 15.805 5.864 Z M 15.738 5.363 L 15.784 5.39 L 15.792 5.456 L 15.787 5.518 L 15.715 5.584 L 15.646 5.611 L 15.646 5.611 L 15.646 5.611 L 15.646 5.611 L 15.6 5.603 L 15.565 5.584 L 15.565 5.522 L 15.568 5.456 L 15.618 5.403 L 15.664 5.376 Z M 15.648 5.045 L 15.629 5.114 L 15.578 5.152 L 15.531 5.179 L 15.469 5.187 L 15.419 5.157 L 15.408 5.102 L 15.43 5.056 L 15.477 4.994 L 15.477 4.994 L 15.523 4.971 L 15.584 4.968 L 15.635 4.998 Z M 15.019 3.803 L 15.131 3.795 L 15.288 3.734 L 15.43 3.704 L 15.549 3.696 L 15.61 3.754 L 15.525 3.88 L 15.44 3.902 L 15.299 3.952 L 15.115 4.056 L 14.939 4.149 L 14.736 4.234 L 14.736 4.234 L 14.667 4.242 L 14.61 4.222 L 14.618 4.138 L 14.587 4.058 L 14.587 3.912 L 14.653 3.747 L 14.744 3.648 L 14.803 3.571 L 14.864 3.494 L 14.957 3.494 L 15.021 3.56 L 15.006 3.722 Z M 14.954 2.275 L 14.995 2.302 L 14.981 2.344 L 14.918 2.418 L 14.834 2.426 L 14.733 2.411 L 14.675 2.384 L 14.634 2.334 L 14.683 2.293 L 14.755 2.262 L 14.867 2.259 Z M 14.424 1.68 L 14.616 1.661 L 14.72 1.696 L 14.802 1.738 L 14.805 1.806 L 14.736 1.837 L 14.629 1.845 L 14.525 1.837 L 14.443 1.821 L 14.374 1.771 Z M 15.91 21.629 L 15.818 21.714 L 15.733 21.81 L 15.648 21.987 L 15.621 22.11 L 15.563 22.157 L 15.451 22.142 L 15.397 22.077 L 15.416 21.843 L 15.477 21.55 L 15.507 21.389 L 15.581 21.186 L 15.581 21.186 L 15.635 21.125 L 15.715 21.109 L 15.822 21.109 L 15.869 21.152 L 15.949 21.27 L 15.965 21.498 Z M 16.094 18.851 L 15.61 18.597 L 15.357 18.355 L 14.934 17.933 L 14.55 17.448 L 14.213 16.899 L 13.944 16.219 L 13.832 15.75 L 13.885 15.482 L 14.038 15.44 L 14.195 15.514 L 14.296 15.794 L 14.381 16.205 L 14.534 16.632 L 14.934 17.254 L 15.472 18.046 L 16.094 18.851 Z M 16.13 27.114 L 16.021 27.413 L 15.968 27.558 L 15.867 27.786 L 15.79 28.051 L 15.768 28.128 L 15.741 28.178 L 15.741 28.178 L 15.667 28.178 L 15.61 28.005 L 15.606 27.808 L 15.648 27.539 L 15.744 27.171 L 15.902 26.944 L 16.045 26.768 L 16.171 26.752 L 16.206 26.867 Z M 16.69 31.133 L 16.662 31.136 L 16.613 31.114 L 16.52 30.979 L 16.382 30.752 L 16.317 30.602 L 16.278 30.394 L 16.278 30.202 L 16.286 30.086 L 16.314 30.051 L 16.374 30.051 L 16.374 30.051 L 16.44 30.078 L 16.525 30.178 L 16.587 30.35 L 16.629 30.581 L 16.632 30.765 L 16.635 30.83 L 16.67 30.918 L 16.706 31.096 Z M 13.851 37.774 L 13.794 37.886 L 13.725 37.99 L 13.613 38.064 L 13.506 38.086 L 13.459 38.086 L 13.41 38.048 L 13.394 37.968 L 13.413 37.867 L 13.47 37.752 L 13.627 37.595 L 13.627 37.595 L 13.746 37.522 L 13.83 37.518 L 13.874 37.554 L 13.885 37.634 Z M 14.904 36.077 L 14.845 36.157 L 14.773 36.198 L 14.685 36.229 L 14.619 36.21 L 14.581 36.141 L 14.589 36.072 L 14.654 35.99 L 14.786 35.91 L 14.786 35.91 L 14.882 35.894 L 14.928 35.922 L 14.941 35.99 Z M 17.254 33.733 L 17.085 33.982 L 16.858 34.248 L 16.6 34.498 L 16.328 34.782 L 16.074 35.013 L 15.874 35.194 L 15.762 35.267 L 15.688 35.264 L 15.653 35.206 L 15.669 35.11 L 15.981 34.765 L 16.418 34.293 L 16.949 33.758 L 16.949 33.758 L 17.048 33.651 L 17.198 33.555 L 17.253 33.566 L 17.298 33.624 Z M 18.234 32.976 L 18.234 32.976 L 18.299 32.952 L 18.384 32.955 L 18.422 32.974 L 18.426 33.016 L 18.392 33.07 L 18.315 33.139 L 18.246 33.216 L 18.2 33.216 L 18.147 33.186 L 18.134 33.12 L 18.157 33.054 Z M 21.069 25.243 L 21.053 25.37 L 21.014 25.488 L 20.99 25.595 L 20.91 25.642 L 20.837 25.622 L 20.8 25.554 L 20.776 25.312 L 20.614 25.09 L 20.6 24.906 L 20.691 24.79 L 20.787 24.76 L 20.88 24.768 L 20.957 24.837 L 21.045 24.949 L 21.069 25.075 Z M 25.853 20.853 L 25.845 21.034 L 25.773 21.429 L 25.672 21.766 L 25.557 22.062 L 25.384 22.384 L 25.187 22.661 L 24.891 23.006 L 24.554 23.33 L 24.381 23.371 L 24.288 23.33 L 24.274 23.206 L 24.347 23.042 L 24.446 22.861 L 24.627 22.622 L 24.822 22.357 L 25.006 22.069 L 25.187 21.773 L 25.325 21.485 L 25.406 21.189 L 25.475 20.851 L 25.491 20.475 L 25.506 20.138 L 25.483 19.842 L 25.448 19.499 L 25.418 19.176 L 25.398 18.995 L 25.498 18.896 L 25.498 18.896 L 25.563 18.931 L 25.613 19.088 L 25.712 19.398 L 25.794 19.771 L 25.851 20.128 L 25.851 20.853 Z" fill="rgb(0, 0, 0)" height="38.79519999999998px" id="v8kguMPdO" width="27.348799999999983px"/></g></svg>