<svg display="block" role="presentation" viewBox="0 0 40 40" xmlns="http://www.w3.org/2000/svg"><g d="M 20 28.732 C 26.621 28.732 32.497 26.418 36.137 22.856 L 32.856 22.869 C 29.758 25.477 25.222 27.118 20.085 27.118 C 10.497 27.118 3.02 21.405 3.02 14.359 C 3.02 6.229 10.503 1.601 20.085 1.601 C 20.693 1.601 21.183 1.882 20.817 2.412 C 18.824 4.81 13.15 12.529 12.118 14.203 C 10.078 17.497 10.124 21.556 15.124 21.843 L 36.144 21.843 C 37.216 21.843 37.49 21.34 37.876 20.817 C 39.281 18.915 40 16.686 39.993 14.366 C 39.987 8.307 35.725 3.771 29.458 1.536 L 28.49 2.987 C 33.699 4.909 37.144 8.797 37.144 14.366 C 37.144 15.333 37 16.275 36.732 17.183 C 36.497 17.967 36.046 18.634 35.183 18.634 L 18.412 18.634 C 16.261 18.634 17.092 16.418 17.889 15.34 C 19.046 13.268 25.366 4.654 26.889 3.046 C 27.275 2.458 28.366 1.235 26.863 0.771 C 24.725 0.261 22.412 0 20 0 C 8.954 -0.007 0.007 5.667 0 14.359 C -0.007 23.137 8.954 28.732 20 28.732 Z" fill="transparent" height="28.73203178521917px" id="OyFpUiNeV" transform="translate(0 5.412)" width="39.99351179087226px"><path d="M 20 28.732 C 26.621 28.732 32.497 26.418 36.137 22.856 L 32.856 22.869 C 29.758 25.477 25.222 27.118 20.085 27.118 C 10.497 27.118 3.02 21.405 3.02 14.359 C 3.02 6.229 10.503 1.601 20.085 1.601 C 20.693 1.601 21.183 1.882 20.817 2.412 C 18.824 4.81 13.15 12.529 12.118 14.203 C 10.078 17.497 10.124 21.556 15.124 21.843 L 36.144 21.843 C 37.216 21.843 37.49 21.34 37.876 20.817 C 39.281 18.915 40 16.686 39.993 14.366 C 39.987 8.307 35.725 3.771 29.458 1.536 L 28.49 2.987 C 33.699 4.909 37.144 8.797 37.144 14.366 C 37.144 15.333 37 16.275 36.732 17.183 C 36.497 17.967 36.046 18.634 35.183 18.634 L 18.412 18.634 C 16.261 18.634 17.092 16.418 17.889 15.34 C 19.046 13.268 25.366 4.654 26.889 3.046 C 27.275 2.458 28.366 1.235 26.863 0.771 C 24.725 0.261 22.412 0 20 0 C 8.954 -0.007 0.007 5.667 0 14.359 C -0.007 23.137 8.954 28.732 20 28.732 Z" fill="rgb(0, 0, 0)" height="28.73203178521917px" id="bxR15kk_x" transform="translate(0 0)" width="39.99351179087227px"/></g></svg>