<svg display="block" role="presentation" viewBox="0 0 40 40" xmlns="http://www.w3.org/2000/svg"><g d="M 15.806 35.663 L 22.939 35.663 C 21.847 35.082 21.459 33.541 21.398 32.061 C 20.694 25.378 16.969 20.173 16.061 18.827 C 20.296 16.286 22.163 12.398 22.163 8.806 C 22.163 2.827 16.898 0 12.337 0 L 0.316 0 C 0.765 0.643 1.092 0.898 1.092 2.378 L 1.092 32.837 C 1.092 34.316 0.449 35.02 0 35.663 L 5.459 35.663 C 5.01 35.02 4.367 34.316 4.367 32.837 L 4.367 21.653 C 8.051 21.592 11.122 20.99 13.592 20.01 C 17.347 24.041 17.796 29.888 17.867 31.49 C 17.918 33.092 17.092 34.51 15.806 35.663 Z M 4.367 18.898 L 4.367 2.122 L 11.439 2.122 C 16.327 2.122 17.929 5.204 17.867 8.48 C 17.541 17.541 8.541 18.898 4.367 18.898 Z M 10.786 25.194 C 12.48 25.163 14.102 25.031 15.541 24.786 C 15.347 24.133 14.643 22.724 14.286 22.133 C 12.969 22.357 11.755 22.429 10.786 22.429 L 10.786 21.724 C 10.337 21.888 8.347 22.173 7.51 22.276 L 7.51 36.378 C 7.51 37.857 6.867 38.561 6.418 39.204 L 11.878 39.204 C 11.429 38.561 10.786 37.857 10.786 36.378 L 10.786 25.194 Z M 16.571 5.561 L 10.786 5.561 L 10.786 17.061 C 10.051 17.316 8.571 17.796 7.51 17.898 L 7.51 5.816 C 7.51 4.337 7.194 4.082 6.735 3.439 L 14.735 3.439 C 15.388 3.827 16.255 4.755 16.571 5.561 Z M 23.02 7.612 C 24 8.786 24.378 10.357 24.337 11.98 C 24.163 16.888 21.439 19.531 18.327 20.929 C 18.786 21.622 19.357 22.929 19.714 23.643 C 19.806 23.612 20.082 23.51 20.163 23.48 C 23.918 27.51 24.276 33.388 24.337 34.99 C 24.398 36.592 23.561 38.01 22.286 39.163 L 29.418 39.163 C 28.327 38.582 27.939 37.041 27.878 35.561 C 27.173 28.878 23.449 23.673 22.541 22.327 C 26.776 19.786 28.643 15.898 28.643 12.306 C 28.643 7.592 25.265 4.806 21.643 3.857 C 21.939 4.327 22.735 5.908 23.02 7.612 Z" fill="transparent" height="39.204080810352224px" id="ppbj2Tezl" transform="translate(5.265 0.408)" width="29.41836528388822px"><path d="M 15.806 35.663 L 22.939 35.663 C 21.847 35.082 21.459 33.541 21.398 32.061 C 20.694 25.378 16.969 20.173 16.061 18.827 C 20.296 16.286 22.163 12.398 22.163 8.806 C 22.163 2.827 16.898 0 12.337 0 L 0.316 0 C 0.765 0.643 1.092 0.898 1.092 2.378 L 1.092 32.837 C 1.092 34.316 0.449 35.02 0 35.663 L 5.459 35.663 C 5.01 35.02 4.367 34.316 4.367 32.837 L 4.367 21.653 C 8.051 21.592 11.122 20.99 13.592 20.01 C 17.347 24.041 17.796 29.888 17.867 31.49 C 17.918 33.092 17.092 34.51 15.806 35.663 Z M 4.367 18.898 L 4.367 2.122 L 11.439 2.122 C 16.327 2.122 17.929 5.204 17.867 8.48 C 17.541 17.541 8.541 18.898 4.367 18.898 Z" fill="rgb(0, 0, 0)" height="35.66326530612245px" id="sUmF_8xsX" width="22.938775510204078px"/><path d="M 4.367 3.469 C 6.061 3.439 7.684 3.306 9.122 3.061 C 8.929 2.408 8.224 1 7.867 0.408 C 6.551 0.633 5.337 0.704 4.367 0.704 L 4.367 0 C 3.918 0.163 1.929 0.449 1.092 0.551 L 1.092 14.653 C 1.092 16.133 0.449 16.837 0 17.48 L 5.459 17.48 C 5.01 16.837 4.367 16.133 4.367 14.653 L 4.367 3.469 Z" fill="rgb(0, 0, 0)" height="17.47959183673467px" id="QApCnpXDo" transform="translate(6.418 21.724)" width="9.122448979591837px"/><path d="M 9.837 2.122 L 4.051 2.122 L 4.051 13.622 C 3.316 13.878 1.837 14.357 0.776 14.459 L 0.776 2.378 C 0.776 0.898 0.459 0.643 0 0 L 8 0 C 8.653 0.388 9.52 1.316 9.837 2.122 Z" fill="rgb(0, 0, 0)" height="14.45918367346939px" id="Gz5f2Pp8z" transform="translate(6.735 3.439)" width="9.836734693877546px"/><path d="M 4.694 3.755 C 5.673 4.929 6.051 6.5 6.01 8.122 C 5.837 13.031 3.112 15.673 0 17.071 C 0.459 17.765 1.031 19.071 1.388 19.786 C 1.48 19.755 1.755 19.653 1.837 19.622 C 5.592 23.653 5.949 29.531 6.01 31.133 C 6.071 32.735 5.235 34.153 3.959 35.306 L 11.092 35.306 C 10 34.724 9.612 33.184 9.551 31.704 C 8.847 25.02 5.122 19.816 4.214 18.469 C 8.449 15.929 10.316 12.041 10.316 8.449 C 10.316 3.735 6.939 0.949 3.316 0 C 3.612 0.469 4.408 2.051 4.694 3.755 Z" fill="rgb(0, 0, 0)" height="35.30612244897959px" id="ugUdVAh38" transform="translate(18.327 3.857)" width="11.091836734693885px"/></g></svg>