<?xml version="1.0" encoding="UTF-8"?>
<!DOCTYPE svg PUBLIC "-//W3C//DTD SVG 1.1//EN" "http://www.w3.org/Graphics/SVG/1.1/DTD/svg11.dtd">
<!-- Creator: CorelDRAW 2021 (64-Bit) -->
<svg xmlns="http://www.w3.org/2000/svg" xml:space="preserve" width="3.84356in" height="2.44143in" version="1.1" style="shape-rendering:geometricPrecision; text-rendering:geometricPrecision; image-rendering:optimizeQuality; fill-rule:evenodd; clip-rule:evenodd"
viewBox="0 0 3843.55 2441.43"
 xmlns:xlink="http://www.w3.org/1999/xlink"
 xmlns:xodm="http://www.corel.com/coreldraw/odm/2003">
 <defs>
  <style type="text/css">
   <![CDATA[
    .fil0 {fill:black}
   ]]>
  </style>
 </defs>
 <g id="Layer_x0020_1">
  <metadata id="CorelCorpID_0Corel-Layer"/>
  <path class="fil0" d="M2501.43 439.66c-36.7,-49.85 -124.51,-139.6 -171.04,-194.76 -165.23,-195.87 -266.61,-288.44 -534.94,-225.15 -202.3,76.21 -333.85,278.78 -477.34,437.26 -286.61,320.25 -559.57,648.75 -849.73,966.91 -235.86,258.63 -620.34,550.41 -405.23,889.44 54.35,85.67 175.96,134.81 276.4,122.63 248.39,-86.13 395.83,-323.49 567.9,-513.68 276.5,-305.84 539.87,-611.47 808.1,-924.07 206.59,-240.77 245.14,-187.28 422.44,18.35 259.51,300.98 513.42,594.12 782.62,886.91 77.57,84.37 153.31,170.34 226.76,258.32 113.5,136.44 240.52,308.48 439.15,275.51l28.53 -4.74c252.72,-54.39 283.94,-373.9 151.9,-557.98 -16.55,-23.07 -53.76,-55.94 -79.09,-87.97 -44.63,-56.43 -104.01,-119.2 -152.29,-177.41 -207.74,-248.25 -429.56,-482.52 -643.62,-725.07 -110.09,-125.41 -218,-246.08 -325.09,-374.57 -22.26,-26.7 -41.69,-39.23 -65.43,-69.92z"/>
 </g>
</svg>
