<svg width="27" height="35" viewBox="0 0 27 35" fill="none" xmlns="http://www.w3.org/2000/svg">
<mask id="mask0_5_4085" style="mask-type:luminance" maskUnits="userSpaceOnUse" x="1" y="5" width="26" height="26">
<path d="M26.429 5.34131H1.17188V30.5985H26.429V5.34131Z" fill="white"/>
</mask>
<g mask="url(#mask0_5_4085)">
<path d="M22.8291 14.968H20.8154C20.1425 13.98 19.2472 13.1541 18.2042 12.5651C17.0362 11.9055 15.7099 11.5569 14.3687 11.5569H13.8004C13.3882 11.5569 13.0541 11.891 13.0541 12.3032V14.968H4.77183C2.95336 14.968 1.44647 16.3237 1.20617 18.0772C1.20348 18.0941 1.20117 18.111 1.19962 18.1284C1.18209 18.2728 1.17188 18.4192 1.17188 18.5681V21.4218C1.17188 21.8339 1.50601 22.1681 1.91819 22.1681H4.52943C4.86144 23.4507 6.0286 24.4005 7.41352 24.4005C8.79842 24.4005 9.9656 23.4507 10.2976 22.1681H17.3033C17.6355 23.4507 18.8025 24.4005 20.1874 24.4005C21.5723 24.4005 22.7392 23.4507 23.0715 22.1681H25.6827C26.0949 22.1681 26.429 21.8339 26.429 21.4218V18.5681C26.429 16.583 24.814 14.968 22.8291 14.968ZM14.5468 13.0522C16.1962 13.0994 17.7608 13.8029 18.8956 14.968H14.5468V13.0522ZM2.66451 18.9385H3.81722C4.22939 18.9385 4.56353 18.6044 4.56353 18.1922C4.56353 17.78 4.22939 17.4459 3.81722 17.4459H2.98958C3.36322 16.8545 4.02225 16.4608 4.77183 16.4608H13.0541V20.6755H10.2976C9.96537 19.3929 8.79842 18.4429 7.41352 18.4429C6.0286 18.4429 4.86163 19.3929 4.52943 20.6755H2.66451V18.9385ZM8.8996 21.4218C8.8996 22.2413 8.23303 22.9079 7.41352 22.9079C6.59397 22.9079 5.92744 22.2413 5.92744 21.4218C5.92744 20.6023 6.59397 19.9357 7.41352 19.9357C8.23303 19.9357 8.8996 20.6023 8.8996 21.4218ZM21.6735 21.4218C21.6735 22.2413 21.0069 22.9079 20.1874 22.9079C19.3679 22.9079 18.7013 22.2413 18.7013 21.4218C18.7013 20.6023 19.3679 19.9357 20.1874 19.9357C21.0069 19.9357 21.6735 20.6023 21.6735 21.4218ZM23.0715 20.6755C22.7395 19.3929 21.5723 18.4429 20.1874 18.4429C18.8025 18.4429 17.6353 19.3929 17.3033 20.6755H14.5468V16.4608H22.8291C23.5654 16.4608 24.2146 16.8408 24.5915 17.4147H23.4364C23.0243 17.4147 22.6901 17.7488 22.6901 18.161C22.6901 18.5732 23.0243 18.9075 23.4364 18.9075H24.9364V20.6755H23.0715Z" fill="#050B20"/>
</g>
</svg>
