<svg width="26" height="35" viewBox="0 0 26 35" fill="none" xmlns="http://www.w3.org/2000/svg">
<mask id="mask0_5_4064" style="mask-type:luminance" maskUnits="userSpaceOnUse" x="0" y="4" width="26" height="27">
<path d="M26 4.96997H0V30.97H26V4.96997Z" fill="white"/>
</mask>
<g mask="url(#mask0_5_4064)">
<path d="M25.1522 21.3612H24.3043V17.1222C24.3043 15.7196 23.1633 14.5787 21.7609 14.5787H18.9807L17.8648 11.2308C17.5179 10.1906 16.5482 9.4917 15.4517 9.4917C15.3197 9.4917 6.15383 9.4917 5.93475 9.4917C4.82945 9.4917 3.8871 10.2006 3.53712 11.1873H2.54348C1.141 11.1873 0 12.3283 0 13.7308V17.1222C0 18.5246 1.141 19.6656 2.54348 19.6656H3.39133V21.3612H2.54348C2.07527 21.3612 1.69564 21.7408 1.69564 22.2091C1.69564 22.6774 2.07523 23.057 2.54348 23.057C3.3375 23.057 4.29031 23.057 5.08696 23.057C5.08696 24.9269 6.60831 26.4483 8.47829 26.4483C10.3482 26.4483 11.8696 24.9269 11.8696 23.057H15.8261C15.8261 24.9269 17.3475 26.4483 19.2174 26.4483C21.0875 26.4483 22.6088 24.9269 22.6088 23.057C23.4057 23.057 24.3588 23.057 25.1522 23.057C25.6205 23.057 26.0001 22.6774 26.0001 22.2091C26.0001 21.7408 25.6204 21.3612 25.1522 21.3612ZM3.39133 17.9699H2.54348C2.07599 17.9699 1.69564 17.5896 1.69564 17.1221V13.7308C1.69564 13.2632 2.07599 12.8829 2.54348 12.8829H3.39133C3.39133 13.4231 3.39133 17.4461 3.39133 17.9699ZM11.8695 11.1873H13.2826H15.4517C15.8173 11.1873 16.1405 11.4203 16.256 11.767L17.1932 14.5786H11.8695V11.1873ZM5.08696 12.0351C5.08696 11.5676 5.46731 11.1873 5.93481 11.1873H10.174V14.5786H5.08696V12.0351ZM8.47829 24.7526C7.5433 24.7526 6.78265 23.9919 6.78265 23.0569C6.78265 22.1219 7.5433 21.3612 8.47829 21.3612C9.4133 21.3612 10.174 22.1219 10.174 23.0569C10.174 23.9919 9.4133 24.7526 8.47829 24.7526ZM19.2174 24.7526C18.2824 24.7526 17.5218 23.9919 17.5218 23.0569C17.5218 22.1219 18.2824 21.3612 19.2174 21.3612C20.1524 21.3612 20.913 22.1219 20.913 23.0569C20.913 23.9919 20.1524 24.7526 19.2174 24.7526ZM22.6087 21.3612H22.1525C21.5651 20.3486 20.4699 19.6656 19.2174 19.6656C17.9649 19.6656 16.8697 20.3486 16.2823 21.3612H11.4133C10.826 20.3486 9.73073 19.6656 8.47829 19.6656C7.22581 19.6656 6.13056 20.3486 5.54323 21.3612H5.08701V18.8178V16.2743C6.46958 16.2743 20.8531 16.2743 21.7609 16.2743C22.2284 16.2743 22.6088 16.6546 22.6088 17.1222L22.6087 21.3612Z" fill="#050B20"/>
<path d="M14.4146 17.97H12.7189C12.2507 17.97 11.8711 18.3496 11.8711 18.8178C11.8711 19.286 12.2507 19.6656 12.7189 19.6656H14.4146C14.8827 19.6656 15.2624 19.2861 15.2624 18.8178C15.2624 18.3496 14.8828 17.97 14.4146 17.97Z" fill="#050B20"/>
</g>
</svg>
