<svg width="61" height="61" viewBox="0 0 61 61" fill="none" xmlns="http://www.w3.org/2000/svg">
<g clip-path="url(#clip0_5_6883)">
<g clip-path="url(#clip1_5_6883)">
<path d="M24.0465 4.54297C20.3452 4.54297 16.9904 6.72067 15.4836 10.1012L9.38656 23.7804C5.73148 24.0316 2.84375 27.0742 2.84375 30.7929V36.1836C2.84375 39.4196 5.46711 42.0429 8.70312 42.0429H10.3092C10.3179 41.592 10.3293 41.1412 10.3438 40.6903C9.9623 39.9128 9.74727 39.0388 9.74727 38.1143L9.64062 33.957C9.64062 30.8825 10.2662 29.6992 12.5483 29.2395C13.6331 29.0209 14.5413 28.2818 14.9858 27.2684L22.5148 10.1012C24.0215 6.72067 27.3764 4.54297 31.0777 4.54297H24.0465Z" fill="#F9FBFC"/>
<path d="M8.70312 42.0429C5.46711 42.0429 2.84375 39.4196 2.84375 36.1836V30.7929C2.84375 27.0741 5.73148 24.0316 9.38656 23.7804L15.4836 10.1012C16.9903 6.72067 20.3451 4.54297 24.0465 4.54297H34.7217C38.2441 4.54297 41.4692 6.51735 43.0711 9.65446L46.0859 15.5586M58.1562 30.7929C58.1562 26.9097 55.0082 23.7617 51.125 23.7617H19.1328M28.7422 15.5586V4.66016M32.9609 42.0429H27.6873M21.242 37.3554C18.6532 37.3554 16.5545 39.4541 16.5545 42.0429C16.5545 44.6317 18.6532 46.7304 21.242 46.7304C23.8307 46.7304 25.9295 44.6317 25.9295 42.0429C25.9295 39.4541 23.8309 37.3554 21.242 37.3554Z" stroke="#050B20" stroke-width="3" stroke-miterlimit="10" stroke-linecap="round" stroke-linejoin="round"/>
<path d="M58.1562 41.6915C58.1562 46.1896 54.5097 49.8946 50.0117 49.8946C45.5136 49.8946 41.8671 46.2482 41.8671 41.7501C41.8671 37.2519 45.5722 33.6055 50.0703 33.6055M44.0351 48.1954L36.5938 55.6368" stroke="#E1E1E1" stroke-width="3" stroke-miterlimit="10" stroke-linecap="round" stroke-linejoin="round"/>
</g>
</g>
<defs>
<clipPath id="clip0_5_6883">
<rect width="60" height="60" fill="white" transform="translate(0.5 0.0898438)"/>
</clipPath>
<clipPath id="clip1_5_6883">
<rect width="60" height="60" fill="white" transform="translate(0.5 0.0898438)"/>
</clipPath>
</defs>
</svg>
