<svg width="27" height="35" viewBox="0 0 27 35" fill="none" xmlns="http://www.w3.org/2000/svg">
<mask id="mask0_5_4073" style="mask-type:luminance" maskUnits="userSpaceOnUse" x="0" y="5" width="26" height="26">
<path d="M25.6478 5.34131H0.390625V30.5985H25.6478V5.34131Z" fill="white"/>
</mask>
<g mask="url(#mask0_5_4073)">
<path d="M23.2402 16.9205L18.8802 16.1935C18.6252 15.7794 18.1185 15.0304 17.3816 14.28C15.9109 12.7822 14.2176 11.9905 12.4848 11.9905H5.38448C4.23114 11.9905 3.16181 12.6141 2.59377 13.6179L0.637178 17.0757C0.634021 17.0813 0.631653 17.0871 0.628644 17.0927C0.477299 17.3636 0.390625 17.6753 0.390625 18.007V21.6507C0.390625 22.0593 0.721927 22.3906 1.13058 22.3906H3.50046C3.84829 23.3007 4.73485 23.9495 5.77143 23.9495C6.80801 23.9495 7.69455 23.3007 8.04243 22.3906H17.2327C17.5805 23.3007 18.467 23.9495 19.5036 23.9495C20.5402 23.9495 21.4267 23.3007 21.7745 22.3906H24.9078C25.3165 22.3906 25.6478 22.0593 25.6478 21.6507V19.6918C25.6478 18.3037 24.6135 17.1144 23.2402 16.9205ZM17.0288 16.1264H11.6984V13.4704H12.4848C14.5822 13.4704 16.1662 15.021 17.0288 16.1264ZM6.75967 13.4704H10.2186V16.1264H6.75967V13.4704ZM3.88179 14.3467C4.17036 13.8367 4.69929 13.5093 5.27975 13.474V16.1264H2.87475L3.88179 14.3467ZM5.77143 22.4696C5.24838 22.4696 4.82286 22.0512 4.82286 21.5369C4.82286 21.0226 5.24838 20.6041 5.77143 20.6041C6.29448 20.6041 6.72001 21.0226 6.72001 21.5369C6.72001 22.0512 6.29448 22.4696 5.77143 22.4696ZM19.5036 22.4696C18.9805 22.4696 18.555 22.0512 18.555 21.5369C18.555 21.0226 18.9806 20.6041 19.5036 20.6041C20.0266 20.6041 20.4522 21.0226 20.4522 21.5369C20.4522 22.0512 20.0266 22.4696 19.5036 22.4696ZM21.8486 20.9106C21.5703 19.8831 20.6246 19.1242 19.5036 19.1242C18.3825 19.1242 17.4369 19.8831 17.1585 20.9106H8.11641C7.83814 19.8831 6.89251 19.1242 5.77143 19.1242C4.65035 19.1242 3.70473 19.8831 3.42636 20.9106H1.87054V18.007C1.87054 17.786 2.05029 17.6063 2.27129 17.6063H18.3551L23.0065 18.382C23.0137 18.3832 23.0208 18.3843 23.028 18.3852C23.1538 18.4025 23.2736 18.4376 23.3851 18.4875C23.0756 18.5761 22.8487 18.8605 22.8487 19.1985C22.8487 19.6072 23.18 19.9385 23.5886 19.9385H24.1678V20.9107L21.8486 20.9106Z" fill="#050B20"/>
</g>
</svg>
